<svg width="22px" height="20px" viewBox="0 0 22 20" version="1.1" xmlns="http://www.w3.org/2000/svg" xmlns:xlink="http://www.w3.org/1999/xlink">
  <title>Ambassabot</title>
  <g id="Ambassabot" stroke="none" stroke-width="1" fill-rule="evenodd">
    <g id="Icon" transform="translate(-1.000000, -2.000000)" fill-rule="nonzero">
      <g id="Ambassabot" transform="translate(1.000000, 2.000000)">
        <g id="Head">
          <g id="Antenna" transform="translate(10.000000, 0.000000)" stroke="#2D3E50">
            <path d="M1,2 L1,4" id="Antenna-stem" stroke-width="0.6" stroke-linecap="square"></path>
            <circle id="Antenna-ball" stroke-width="0.5" cx="1" cy="1" r="1"></circle>
          </g>
          <g id="Ears-Copy" transform="translate(11.000000, 13.500000) scale(-1, 1) translate(-11.000000, -13.500000) translate(0.000000, 10.000000)" stroke="#2D3E50" stroke-width="0.7">
            <path d="M2.17671172,0.38644821 C1.16383599,0.61626667 0.35,1.90638561 0.35,3.5 C0.35,4.97993459 1.46690363,6.35110995 2.62105669,6.60727769 L2.17671172,0.38644821 Z" id="Left-ear"></path>
            <path d="M21.1767117,0.38644821 C20.163836,0.61626667 19.35,1.90638561 19.35,3.5 C19.35,4.97993459 20.4669036,6.35110995 21.6210567,6.60727769 L21.1767117,0.38644821 Z" id="Right-ear" transform="translate(20.500000, 3.500000) scale(-1, 1) translate(-20.500000, -3.500000) "></path>
          </g>
          <g id="Face" transform="translate(2.000000, 4.000000)">
            <rect id="Head" stroke="#2D3E50" stroke-width="0.7" x="0.35" y="0.35" width="17.3" height="15.3" rx="6"></rect>
            <rect stroke="#2D3E50" stroke-width="0.7" x="2.35" y="3.35" width="13.3" height="10.3" rx="4"></rect>
            <path d="M6,10 C6.8954305,11.3333333 7.8954305,12 9,12 C10.1045695,12 11.1045695,11.3333333 12,10 Z" id="Mouth" fill="#2D3E50"></path>
            <g id="Left-Eye" transform="translate(5.000000, 6.000000)" fill="#2D3E50">
              <circle cx="1" cy="1" r="1"></circle>
            </g>
            <g id="Right-Eye" transform="translate(11.000000, 6.000000)" fill="#2D3E50">
              <circle cx="1" cy="1" r="1"></circle>
            </g>
          </g>
        </g>
      </g>
    </g>
  </g>
</svg>