<svg width="24px" height="24px" viewBox="0 0 24 24" version="1.1" xmlns="http://www.w3.org/2000/svg" xmlns:xlink="http://www.w3.org/1999/xlink">
  <title>Ambassabot</title>
  <g id="Ambassabot" stroke="none" stroke-width="1" fill-rule="evenodd">
    <g id="ambassabot" transform="translate(4.000000, 2.000000)" fill-rule="nonzero">
      <path d="M2.40106106,12.0173002 C2.21898554,12.098734 2.02407162,12.1428571 1.82142857,12.1428571 C0.815481354,12.1428571 0,11.0555487 0,9.71428571 C0,8.37302275 0.815481354,7.28571429 1.82142857,7.28571429 C1.83396369,7.28571429 1.84646923,7.28588307 1.85894399,7.28621919 C2.15749364,4.88999986 4.20148674,3.03571429 6.67857143,3.03571429 L8.19642857,3.03571429 L8.19642857,1.76960719 C7.84270945,1.64458543 7.58928571,1.307245 7.58928571,0.910714286 C7.58928571,0.407740677 7.99702634,0 8.5,0 C9.00297366,0 9.41071429,0.407740677 9.41071429,0.910714286 C9.41071429,1.307245 9.15729055,1.64458543 8.80357143,1.76960719 L8.80357143,3.03571429 L10.3214286,3.03571429 C12.7985133,3.03571429 14.8425063,4.88999986 15.141056,7.28621919 C15.1535308,7.28588307 15.1660364,7.28571429 15.1785714,7.28571429 C16.1845186,7.28571429 17,8.37302275 17,9.71428571 C17,11.0555487 16.1845186,12.1428571 15.1785714,12.1428571 C14.9759284,12.1428571 14.7810144,12.098734 14.5989389,12.0173002 C13.778435,13.5380637 12.1706094,14.5714286 10.3214286,14.5714286 L6.67857143,14.5714286 C4.82939054,14.5714286 3.22156495,13.5380637 2.40106106,12.0173002 Z M6.07142857,4.85714286 C4.39484987,4.85714286 3.03571429,6.21627844 3.03571429,7.89285714 L3.03571429,10.3214286 C3.03571429,11.9980073 4.39484987,13.3571429 6.07142857,13.3571429 L10.9285714,13.3571429 C12.6051502,13.3571429 13.9642857,11.9980073 13.9642857,10.3214286 L13.9642857,7.89285714 C13.9642857,6.21627844 12.6051502,4.85714286 10.9285714,4.85714286 L6.07142857,4.85714286 Z M5.76785714,9.10714286 C5.26488353,9.10714286 4.85714286,8.69940223 4.85714286,8.19642857 C4.85714286,7.69345491 5.26488353,7.28571429 5.76785714,7.28571429 C6.2708308,7.28571429 6.67857143,7.69345491 6.67857143,8.19642857 C6.67857143,8.69940223 6.2708308,9.10714286 5.76785714,9.10714286 Z M11.2321429,9.10714286 C10.7291692,9.10714286 10.3214286,8.69940223 10.3214286,8.19642857 C10.3214286,7.69345491 10.7291692,7.28571429 11.2321429,7.28571429 C11.7351165,7.28571429 12.1428571,7.69345491 12.1428571,8.19642857 C12.1428571,8.69940223 11.7351165,9.10714286 11.2321429,9.10714286 Z M8.4206372,11.7785714 C8.04773929,11.7785714 7.57256014,11.5599543 6.99509977,11.1227203 C6.80624859,10.9797283 6.49835819,10.712631 6.07142857,10.3214286 L10.9285714,10.3214286 C10.4612074,10.7109035 10.1257096,10.9769596 9.92207829,11.1195968 C9.29490239,11.5589132 8.79442203,11.7785714 8.4206372,11.7785714 Z M3.03571429,19.4281179 L3.03571429,18.8214286 C3.03571429,16.8095342 4.66667698,15.1785714 6.67857143,15.1785714 L10.3214286,15.1785714 C12.333323,15.1785714 13.9642857,16.8095342 13.9642857,18.8214286 L13.9642857,19.4298499 L3.03571429,19.4281179 Z" id="Combined-Shape"></path>
    </g>
  </g>
</svg>