<?xml version="1.0" encoding="UTF-8"?>
<svg width="24px" height="24px" viewBox="0 0 24 24" version="1.1" xmlns="http://www.w3.org/2000/svg" xmlns:xlink="http://www.w3.org/1999/xlink">
    <!-- Generator: Sketch 50.2 (55047) - http://www.bohemiancoding.com/sketch -->
    <title>internet</title>
    <desc>Created with Sketch.</desc>
    <defs></defs>
    <g id="Page-1" stroke="none" stroke-width="1" fill="none" fill-rule="evenodd">
        <g id="internet" fill="#000000" fill-rule="nonzero">
            <path d="M23.959668,10.2837584 C23.959668,10.0622819 23.7454606,9.82791946 23.4836515,9.76292617 L9.40909544,6.27672483 C9.14718672,6.21189262 9.02688797,6.32343624 9.14180913,6.52445638 L11.7605975,11.1231141 C11.8752199,11.3241342 12.173278,11.5634094 12.4227386,11.6546577 L16.013278,12.9699866 C16.2628382,13.0610738 16.2688133,13.2200537 16.0265228,13.323302 L0.705560166,19.8420403 C0.463170124,19.9452081 0.432,19.9087248 0.636348548,19.7613423 L6.52262241,15.5212349 C6.72707054,15.3738523 6.89427386,15.0721611 6.89427386,14.8506846 L6.89845643,1.99626846 C6.89825726,1.77479195 6.68395021,1.54026846 6.42214108,1.47527517 L0.531883817,0.0167516779 C0.269975104,-0.0479194631 0.0556680498,0.0804563758 0.0556680498,0.301932886 L0.0556680498,19.8030604 C0.0556680498,20.0245369 0.23920332,20.3097181 0.46346888,20.4368054 L6.44912863,23.8292617 C6.67339419,23.956349 7.0493278,23.9677047 7.2846473,23.8543087 L23.5325477,16.0262013 C23.7677676,15.9128054 23.9603651,15.6388993 23.9603651,15.4174228 L23.959668,10.2837584 Z" id="XMLID_6_"></path>
        </g>
    </g>
</svg>