<svg xmlns="http://www.w3.org/2000/svg" viewBox="-5 0 24 24">
  <path d="M11.2662722,9.56213018 C10.3668639,8.4260355 9.37278107,7.33727811 8.71005917,6.0591716 C7.76331361,4.26035503 7.62130178,1.70414201 10.0828402,0 C7.62130178,1.0887574 5.15976331,2.13017751 2.69822485,3.21893491 C1.04142012,3.97633136 0.189349112,5.30177515 0.236686391,7.05325444 C0.284023669,8.75739645 0.99408284,10.2248521 2.08284024,11.5029586 C3.12426036,12.7337278 4.16568047,13.9171598 5.25443787,15.1005917 C5.34911243,15.1952663 5.44378698,15.2899408 5.49112426,15.3846154 C5.49112426,15.3846154 5.49112426,15.3846154 5.53846154,15.3846154 C4.92307692,15.6213018 4.30769231,15.9053254 3.73964497,16.1420118 C3.31360947,16.3313609 2.93491124,16.5207101 2.50887574,16.7100592 C0.236686391,17.6568047 -0.520710059,19.5029586 0.426035503,21.7751479 C0.946745562,23.147929 2.22485207,24 3.73964497,24 C4.07100592,24 4.40236686,24 4.68639053,23.9053254 L4.73372781,23.9053254 C5.11242604,23.7633136 5.3964497,23.6213018 5.68047337,23.4319527 C8.14201183,22.3905325 10.556213,21.3017751 12.9704142,20.2130178 C14.5325444,19.4556213 15.147929,18.0828402 15.1952663,16.4260355 C15.2426036,15.1005917 14.7692308,13.964497 13.964497,12.8284024 C13.1597633,11.6923077 12.1183432,10.6982249 11.2662722,9.56213018 Z M4.49704142,23.147929 C4.21301775,23.1952663 3.97633136,23.1952663 3.73964497,23.1952663 C2.6035503,23.1952663 1.60946746,22.5798817 1.18343195,21.4911243 C0.426035503,19.5976331 0.99408284,18.2248521 2.84023669,17.4201183 C3.26627219,17.2307692 3.69230769,17.0414201 4.1183432,16.852071 C4.73372781,16.6153846 5.34911243,16.3313609 5.96449704,16.0473373 C6.01183432,16.0473373 6.0591716,16.0473373 6.10650888,16 C6.29585799,16.2840237 6.53254438,16.6153846 6.76923077,16.9940828 C7.10059172,17.6094675 7.33727811,18.3668639 7.28994083,19.1715976 C7.19526627,20.6390533 6.39053254,22.3905325 4.49704142,23.147929 Z" id="Shape"></path>
</svg>