<svg xmlns="http://www.w3.org/2000/svg" viewBox="0 0 512 512">
  <path d="m329 205c-19-24-40-47-54-74-20-38-23-92 29-128-52 23-104 45-156 68-35 16-53 44-52 81 1 36 16 67 39 94 22 26 44 51 67 76 2 2 4 4 5 6 0 0 0 0 1 0-13 5-26 11-38 16-9 4-17 8-26 12-48 20-64 59-44 107 11 29 38 47 70 47 7 0 14 0 20-2l1 0c8-3 14-6 20-10 52-22 103-45 154-68 33-16 46-45 47-80 1-28-9-52-26-76-17-24-39-45-57-69z m-143 287c-6 1-11 1-16 1-24 0-45-13-54-36-16-40-4-69 35-86 9-4 18-8 27-12 13-5 26-11 39-17 1 0 2 0 3-1 4 6 9 13 14 21 7 13 12 29 11 46-2 31-19 68-59 84z"/>
</svg>
