<svg xmlns="http://www.w3.org/2000/svg" width="24" height="24" viewBox="0 0 24 24">
    <g id="google_plus" transform="translate(2.000000, 6.000000)">
        <path d="M12.6285714,5.29285714 C12.6904762,5.72619048 12.7523809,6.15952381 12.7523809,6.65476188 C12.7523809,10.3690477 10.2452381,13 6.5,13 C2.90952381,13 0,10.0904762 0,6.5 C0,2.90952381 2.90952381,0 6.5,0 C8.26428571,0 9.71904765,0.65 10.8642857,1.70238095 L9.00714289,3.52857143 C8.32619047,2.87857143 7.45952383,2.53809524 6.5,2.53809524 C4.36428571,2.53809524 2.63095238,4.36428571 2.63095238,6.5 C2.63095238,8.6357143 4.36428571,10.4619048 6.5,10.4619048 C8.45,10.4619048 9.78095235,9.34761906 10.0595238,7.83095235 L6.5,7.83095235 L6.5,5.29285714 L12.6285714,5.29285714 Z" id="Shape"></path>
    </g>
    <text id="+" font-family="Arial-BoldMT, Arial" font-size="12" font-weight="bold" fill="#000000">
        <tspan x="16" y="17">+</tspan>
    </text>
</svg>