<svg xmlns="http://www.w3.org/2000/svg" viewBox="0 0 24 24">
  <path d="M23.3142857,9.77142857 C23.4285714,10.5714286 23.5428571,11.3714286 23.5428571,12.2857143 C23.5428571,19.1428571 18.9142857,24 12,24 C5.37142857,24 0,18.6285714 0,12 C0,5.37142857 5.37142857,0 12,0 C15.2571429,0 17.9428571,1.2 20.0571429,3.14285714 L16.6285714,6.51428571 C15.3714286,5.31428571 13.7714286,4.68571429 12,4.68571429 C8.05714286,4.68571429 4.85714286,8.05714286 4.85714286,12 C4.85714286,15.9428571 8.05714286,19.3142857 12,19.3142857 C15.6,19.3142857 18.0571429,17.2571429 18.5714286,14.4571429 L12,14.4571429 L12,9.77142857 L23.3142857,9.77142857 Z" id="Shape"></path>
</svg>