<?xml version="1.0" encoding="UTF-8"?>
<svg width="24px" height="24px" viewBox="0 0 24 24" version="1.1" xmlns="http://www.w3.org/2000/svg" xmlns:xlink="http://www.w3.org/1999/xlink">
    <!-- Generator: Sketch 50.2 (55047) - http://www.bohemiancoding.com/sketch -->
    <title>Instagram</title>
    <desc>Created with Sketch.</desc>
    <defs></defs>
    <g id="Page-1" stroke="none" stroke-width="1" fill="none" fill-rule="evenodd">
        <g id="Instagram" fill="#0A0B09">
            <path d="M11.9962381,0 C8.7382381,0 8.32971429,0.0138095238 7.05019048,0.0721904762 C5.77333333,0.130428571 4.90128571,0.333238095 4.1382381,0.629809524 C3.34938095,0.936333333 2.68038095,1.34652381 2.01342857,2.01342857 C1.34652381,2.68038095 0.936333333,3.34938095 0.629809524,4.1382381 C0.333238095,4.90128571 0.130428571,5.77333333 0.0721904762,7.05019048 C0.0138095238,8.32971429 0,8.7382381 0,11.9962381 C0,15.2541905 0.0138095238,15.6627143 0.0721904762,16.9422381 C0.130428571,18.2190952 0.333238095,19.0911429 0.629809524,19.8541905 C0.936333333,20.6430476 1.34652381,21.3120476 2.01342857,21.979 C2.68038095,22.6459048 3.34938095,23.0560952 4.1382381,23.3626667 C4.90128571,23.6591905 5.77333333,23.862 7.05019048,23.9202381 C8.32971429,23.978619 8.7382381,23.9924286 11.9962381,23.9924286 C15.2541905,23.9924286 15.6627143,23.978619 16.9422381,23.9202381 C18.2190952,23.862 19.0911429,23.6591905 19.8541905,23.3626667 C20.6430476,23.0560952 21.3120476,22.6459048 21.979,21.979 C22.6459048,21.3120476 23.0560952,20.6430476 23.3626667,19.8541905 C23.6591905,19.0911429 23.862,18.2190952 23.9202381,16.9422381 C23.978619,15.6627143 23.9924286,15.2541905 23.9924286,11.9962381 C23.9924286,8.7382381 23.978619,8.32971429 23.9202381,7.05019048 C23.862,5.77333333 23.6591905,4.90128571 23.3626667,4.1382381 C23.0560952,3.34938095 22.6459048,2.68038095 21.979,2.01342857 C21.3120476,1.34652381 20.6430476,0.936333333 19.8541905,0.629809524 C19.0911429,0.333238095 18.2190952,0.130428571 16.9422381,0.0721904762 C15.6627143,0.0138095238 15.2541905,0 11.9962381,0 Z M11.9962381,2.16147619 C15.1993333,2.16147619 15.5787619,2.17371429 16.8437143,2.23142857 C18.0133333,2.2847619 18.6485238,2.48019048 19.0712381,2.64447619 C19.6311905,2.86209524 20.0308095,3.12204762 20.4505714,3.54185714 C20.870381,3.96161905 21.1303333,4.3612381 21.3479524,4.92119048 C21.5122381,5.34390476 21.7076667,5.97909524 21.761,7.14871429 C21.8187143,8.41366667 21.8309524,8.79309524 21.8309524,11.9962381 C21.8309524,15.1993333 21.8187143,15.5787619 21.761,16.8437143 C21.7076667,18.0133333 21.5122381,18.6485238 21.3479524,19.0712381 C21.1303333,19.6311905 20.870381,20.0308095 20.4505714,20.4505714 C20.0308095,20.870381 19.6311905,21.1303333 19.0712381,21.3479524 C18.6485238,21.5122381 18.0133333,21.7076667 16.8437143,21.761 C15.5789524,21.8187143 15.1995714,21.8309524 11.9962381,21.8309524 C8.79285714,21.8309524 8.41352381,21.8187143 7.14871429,21.761 C5.97909524,21.7076667 5.34390476,21.5122381 4.92119048,21.3479524 C4.3612381,21.1303333 3.96161905,20.870381 3.54185714,20.4505714 C3.12209524,20.0308095 2.86209524,19.6311905 2.64447619,19.0712381 C2.48019048,18.6485238 2.2847619,18.0133333 2.23142857,16.8437143 C2.17371429,15.5787619 2.16147619,15.1993333 2.16147619,11.9962381 C2.16147619,8.79309524 2.17371429,8.41366667 2.23142857,7.14871429 C2.2847619,5.97909524 2.48019048,5.34390476 2.64447619,4.92119048 C2.86209524,4.3612381 3.12204762,3.96161905 3.54185714,3.54185714 C3.96161905,3.12204762 4.3612381,2.86209524 4.92119048,2.64447619 C5.34390476,2.48019048 5.97909524,2.2847619 7.14871429,2.23142857 C8.41366667,2.17371429 8.79309524,2.16147619 11.9962381,2.16147619 Z" id="Fill-1"></path>
            <path d="M11.9962381,15.9949524 C9.7877619,15.9949524 7.99747619,14.2046667 7.99747619,11.9962381 C7.99747619,9.7877619 9.7877619,7.99747619 11.9962381,7.99747619 C14.2046667,7.99747619 15.9949524,9.7877619 15.9949524,11.9962381 C15.9949524,14.2046667 14.2046667,15.9949524 11.9962381,15.9949524 Z M11.9962381,5.836 C8.594,5.836 5.836,8.594 5.836,11.9962381 C5.836,15.3984286 8.594,18.1564286 11.9962381,18.1564286 C15.3984286,18.1564286 18.1564286,15.3984286 18.1564286,11.9962381 C18.1564286,8.594 15.3984286,5.836 11.9962381,5.836 Z" id="Fill-4"></path>
            <path d="M19.839381,5.59261905 C19.839381,6.38766667 19.1948571,7.03214286 18.3998095,7.03214286 C17.6048095,7.03214286 16.9602857,6.38766667 16.9602857,5.59261905 C16.9602857,4.79757143 17.6048095,4.15304762 18.3998095,4.15304762 C19.1948571,4.15304762 19.839381,4.79757143 19.839381,5.59261905" id="Fill-5"></path>
        </g>
    </g>
</svg>