<svg xmlns="http://www.w3.org/2000/svg" viewBox="0 -5 24 24">
  <path d="M4.26035503,13.6331361 L0,13.6331361 L4.92307692,6.67455621 L0.378698225,0 L4.5443787,0 L7.81065089,5.11242604 L9.27810651,5.11242604 L9.27810651,8.28402367 L7.81065089,8.28402367 L4.26035503,13.6331361 M4.26035503,13.6331361 L0,13.6331361 L4.92307692,6.67455621 L0.378698225,0 L4.5443787,0 L7.81065089,5.11242604 L9.27810651,5.11242604 L9.27810651,8.28402367 L7.81065089,8.28402367 L4.26035503,13.6331361 M19.739645,13.6331361 L16.1893491,8.28402367 L13.7278107,8.28402367 L13.7278107,13.6331361 L10.3195266,13.6331361 L10.3195266,0 L13.7278107,0 L13.7278107,5.11242604 L16.1893491,5.11242604 L19.5029586,0 L23.6213018,0 L19.1242604,6.67455621 L24,13.6331361 L19.739645,13.6331361" id="Shape"></path>
</svg>