<svg xmlns="http://www.w3.org/2000/svg" viewBox="0 0 24 24">
  <path d="M5.42378577,7.50564293 L5.42378577,23.0100002 L0.273928574,23.0100002 L0.273928574,7.50564293 L5.42378577,7.50564293 Z M5.75250006,2.68450003 C5.75250006,3.45150003 5.5333572,4.10892861 4.98550005,4.60200005 C4.4376429,5.09507148 3.72542861,5.36900005 2.84885717,5.36900005 C1.97228573,5.36900005 1.26007144,5.09507148 0.767000008,4.60200005 C0.219142859,4.10892861 0,3.45150003 0,2.68450003 C0,1.91750002 0.219142859,1.26007144 0.767000008,0.767000008 C1.31485716,0.273928574 2.02707145,0 2.90364289,0 C3.78021432,0 4.4376429,0.273928574 4.98550005,0.767000008 C5.47857148,1.26007144 5.75250006,1.91750002 5.75250006,2.68450003 Z M23.9961431,14.0799287 L23.9961431,23.0100002 L18.8462859,23.0100002 L18.8462859,14.6825716 C18.8462859,13.5868573 18.6819288,12.7650716 18.243643,12.107643 C17.8053573,11.5050001 17.1479287,11.1762858 16.2713573,11.1762858 C15.6139287,11.1762858 15.0660716,11.3954287 14.6277859,11.724143 C14.1347144,12.107643 13.8060001,12.5459287 13.5868573,13.0937858 C13.4772858,13.3677144 13.4225001,13.8060001 13.4225001,14.3538573 L13.4225001,23.0100002 L8.27264294,23.0100002 C8.32742865,18.8462859 8.32742865,15.4495716 8.32742865,12.874643 C8.32742865,10.2997144 8.32742865,8.71092866 8.32742865,8.21785722 L8.27264294,7.50564293 L13.4225001,7.50564293 L13.4225001,9.75185724 C13.641643,9.42314295 13.8060001,9.09442866 14.025143,8.8752858 C14.2442859,8.60135723 14.5730001,8.32742865 14.9565001,8.05350008 C15.2852144,7.77957151 15.7782859,7.50564293 16.2713573,7.34128579 C16.8192145,7.17692864 17.4218573,7.12214293 18.0792859,7.12214293 C19.8872145,7.12214293 21.3116431,7.72478579 22.4073574,8.8752858 C23.5030717,10.0805715 23.9961431,11.8337144 23.9961431,14.0799287 Z" id="Shape"></path>
</svg>