<svg width="24px" height="24px" viewBox="0 0 24 24" version="1.1" xmlns="http://www.w3.org/2000/svg" xmlns:xlink="http://www.w3.org/1999/xlink">
  <title>Megaphone</title>
  <g id="Megaphone" stroke="none" stroke-width="1" fill="none" fill-rule="evenodd">
    <g id="mbsy-megaphone" transform="translate(2.000000, 5.000000)" fill="#000000" fill-rule="nonzero">
      <path d="M0,5.88521743 C0,4.44521739 1.16173913,3.28347826 2.60173913,3.28347826 L7.80608695,3.28347826 L7.80608695,8.4878261 L4.91826087,8.4878261 L6.57913044,13.0426087 L4.4973913,13.0426087 L2.84,8.4878261 L2.60173913,8.4878261 C1.16521739,8.4878261 0,7.32260867 0,5.88521743 Z M14.0521739,4.3226087 C14.9147826,4.3226087 15.6147826,5.01913048 15.6147826,5.88521743 C15.6147826,6.74521743 14.9147826,7.44434781 14.0521739,7.44434781 L14.0521739,11.6086956 L8.84869562,8.4878261 L8.84869562,3.28347826 L14.0521739,0.158260867 L14.0521739,4.3226087 Z M15.9104348,2.05391305 C16.0730435,2.05391305 16.206087,2.18608695 16.206087,2.34956522 L16.206087,3.53478261 C16.206087,3.69826087 16.0730435,3.83043478 15.9104348,3.83043478 C15.7469565,3.83043478 15.6147826,3.69478261 15.6147826,3.53478261 L15.6147826,2.34956522 C15.6147826,2.18608695 15.7469565,2.05391305 15.9104348,2.05391305 Z M15.9104348,7.93739133 C16.0730435,7.93739133 16.206087,8.06956524 16.206087,8.23304352 L16.206087,9.41826086 C16.206087,9.58086952 16.0730435,9.71391305 15.9104348,9.71391305 C15.7469565,9.71391305 15.6147826,9.58086952 15.6147826,9.41826086 L15.6147826,8.23304352 C15.6147826,8.06956524 15.7469565,7.93739133 15.9104348,7.93739133 Z M17.7817391,7.33565219 L18.6173913,8.17478257 C18.7365217,8.29043476 18.7365217,8.47739133 18.6173913,8.59304352 C18.56,8.65043476 18.4852174,8.67739133 18.4104348,8.67739133 C18.3321739,8.67739133 18.2573913,8.65043476 18.2,8.59304352 L17.3608695,7.75391305 C17.2486956,7.63826086 17.2486956,7.45130438 17.3608695,7.33565219 C17.48,7.22 17.666087,7.22 17.7817391,7.33565219 Z M19.446087,5.58695648 C19.6095652,5.58695648 19.7382609,5.71913048 19.7417391,5.88521743 C19.7417391,6.04869562 19.6095652,6.18086952 19.446087,6.18086952 L18.2608695,6.18086952 C18.0973913,6.18086952 17.9652174,6.04869562 17.9652174,5.88521743 C17.9652174,5.71913048 18.0973913,5.58695648 18.2608695,5.58695648 L19.446087,5.58695648 Z M17.5713044,4.52 C17.4965217,4.52 17.4217391,4.48956522 17.3643478,4.43130435 C17.2486956,4.31652174 17.2486956,4.12956522 17.3643478,4.01391305 L18.2,3.17478261 C18.3147826,3.05913044 18.5017391,3.05913044 18.6173913,3.17478261 C18.7365217,3.29391305 18.7365217,3.48086956 18.6173913,3.59304348 L17.7817391,4.43130435 C17.7243478,4.48956522 17.6495652,4.52 17.5713044,4.52 Z" id="Megaphone"></path>
    </g>
  </g>
</svg>