<svg width="24px" height="24px" viewBox="0 0 24 24" version="1.1" xmlns="http://www.w3.org/2000/svg" xmlns:xlink="http://www.w3.org/1999/xlink">
  <g id="Megaphone" stroke="none" stroke-width="1" fill-rule="evenodd">
    <g id="megaphone" transform="translate(2.000000, 3.000000)" fill-rule="nonzero">
      <path d="M10.5,4.2 L2.1,4.2 C0.940202025,4.2 0,5.14020203 0,6.3 L0,10.5 C0,11.6597979 0.940202025,12.6 2.1,12.6 L3.15,12.6 L3.15,16.8 C3.15,17.379899 3.62010102,17.85 4.2,17.85 L6.3,17.85 C6.87989898,17.85 7.35,17.379899 7.35,16.8 L7.35,12.6 L10.5,12.6 L15.75,16.8 L15.75,0 L10.5,4.2 Z M13.65,12.18 L11.55,10.5 L2.1,10.5 L2.1,6.3 L11.55,6.3 L13.65,4.62 L13.65,12.18 Z M20.475,8.4 C20.475,10.1955 19.467,11.823 17.85,12.6 L17.85,4.2 C19.4565,4.9875 20.475,6.615 20.475,8.4 Z" id="Shape"></path>
    </g>
  </g>
</svg>