<svg width="24px" height="24px" viewBox="0 0 24 24" version="1.1" xmlns="http://www.w3.org/2000/svg" xmlns:xlink="http://www.w3.org/1999/xlink">
  <g id="Native-Share" stroke="none" stroke-width="1" fill-rule="evenodd">
    <g id="native-share" transform="translate(4.000000, 1.000000)" fill-rule="nonzero">
      <path d="M8,0 L4,4 L7,4 L7,13 L9,13 L9,4 L12,4 L8,0 Z M14,22 L2,22 C0.89,22 0,21.1 0,20 L0,8 C0,6.8954305 0.8954305,6 2,6 L5,6 L5,8 L2,8 L2,20 L14,20 L14,8 L11,8 L11,6 L14,6 C15.1045695,6 16,6.8954305 16,8 L16,20 C16,21.1045695 15.1045695,22 14,22 Z" id="Shape"></path>
    </g>
  </g>
</svg>
