<svg xmlns="http://www.w3.org/2000/svg" viewBox="0 0 24 24">
  <path d="M17.6442688,1.80237154 C16.5059289,0.52173913 14.4664032,0 11.8577075,0 L4.2687747,0 C3.74703557,0 3.27272727,0.37944664 3.17786561,0.901185771 L0.04743083,20.5849802 C-0.04743083,20.9644269 0.28458498,21.3438735 0.664031621,21.3438735 L5.35968379,21.3438735 L6.54545455,13.9920949 L6.49802372,14.229249 C6.59288538,13.7075099 7.01976285,13.3280632 7.58893281,13.3280632 L9.81818182,13.3280632 C14.1818182,13.3280632 17.5968379,11.5731225 18.5928854,6.54545455 C18.6403162,6.40316206 18.6403162,6.26086957 18.687747,6.07114625 C18.972332,4.22134387 18.687747,2.94071146 17.6442688,1.80237154 M18.687747,6.07114625 C18.6403162,6.26086957 18.6403162,6.40316206 18.5928854,6.54545455 C17.5968379,11.5731225 14.1818182,13.3280632 9.81818182,13.3280632 L7.58893281,13.3280632 C7.01976285,13.3280632 6.59288538,13.7075099 6.49802372,14.229249 L5.35968379,21.3438735 L5.02766798,23.3359684 C4.98023715,23.6679842 5.26482213,24 5.59683794,24 L9.53359684,24 C10.0079051,24 10.4347826,23.6679842 10.4822134,23.1936759 L10.5296443,23.0039526 L11.2885375,18.3557312 L11.3359684,18.1185771 C11.3833992,17.6442688 11.8102767,17.312253 12.2371542,17.312253 L12.8537549,17.312253 C16.6956522,17.312253 19.6837945,15.7944664 20.5375494,11.3833992 C20.916996,9.53359684 20.7272727,8.01581028 19.7786561,6.92490119 C19.4466403,6.59288538 19.1146245,6.3083004 18.687747,6.07114625 M17.6442688,5.6916996 C17.312253,5.59683794 16.9802372,5.50197628 16.6482213,5.45454545 C16.0316206,5.35968379 15.4150198,5.31225296 14.7035573,5.31225296 L8.72727273,5.31225296 C8.58498024,5.31225296 8.44268775,5.35968379 8.34782609,5.40711462 C8.06324111,5.54940711 7.87351779,5.78656126 7.82608696,6.11857708 L6.54545455,13.9920949 L6.49802372,14.229249 C6.59288538,13.7075099 7.01976285,13.3280632 7.58893281,13.3280632 L9.81818182,13.3280632 C14.1818182,13.3280632 17.5968379,11.5731225 18.5928854,6.54545455 C18.6403162,6.40316206 18.6403162,6.26086957 18.687747,6.07114625 C18.4031621,5.97628458 18.1660079,5.83399209 17.8339921,5.73913043 C17.7865613,5.73913043 17.6916996,5.6916996 17.6442688,5.6916996" id="Shape"></path>
</svg>