<?xml version="1.0" encoding="UTF-8"?>
<svg width="24px" height="24px" viewBox="0 0 24 24" version="1.1" xmlns="http://www.w3.org/2000/svg" xmlns:xlink="http://www.w3.org/1999/xlink">
    <!-- Generator: Sketch 50.2 (55047) - http://www.bohemiancoding.com/sketch -->
    <title>Shape</title>
    <desc>Created with Sketch.</desc>
    <defs></defs>
    <g id="Page-1" stroke="none" stroke-width="1" fill="none" fill-rule="evenodd">
        <g id="pinterest-seeklogo.com" fill="#000000" fill-rule="nonzero">
            <path d="M0,12 C0.0624,8.5944 1.2648,5.7504 3.6096,3.4704 C5.9544,1.1904 8.7504,0.0312 12,0 C15.4992,0.0624 18.3672,1.2576 20.6016,3.5856 C22.836,5.9136 23.9688,8.7192 24,12 C23.9376,15.3744 22.7352,18.2112 20.3904,20.508 C18.0456,22.8024 15.2496,23.9664 12,23.9976 C10.8744,23.9976 9.7512,23.8248 8.6256,23.4816 C8.844,23.1384 9.0624,22.7472 9.2808,22.3104 C9.5304,21.78 9.8424,20.7792 10.2192,19.3104 C10.3128,18.9048 10.4544,18.3576 10.6416,17.6688 C10.86,18.0432 11.2344,18.3864 11.7672,18.7008 C13.1736,19.356 14.6568,19.2936 16.2192,18.5136 C17.844,17.5752 18.9696,16.1232 19.5936,14.1552 C20.1552,12.0936 20.0856,10.1784 19.3824,8.4144 C18.6792,6.648 17.4216,5.376 15.6096,4.5936 C13.3296,3.9384 11.1096,4.008 8.9544,4.8048 C6.7992,5.6016 5.2992,6.9696 4.4544,8.9064 C4.236,9.624 4.104,10.3368 4.056,11.04 C4.008,11.7432 4.032,12.4296 4.1256,13.1016 C4.2192,13.7736 4.4544,14.376 4.8288,14.9064 C5.2032,15.4368 5.7048,15.8448 6.3288,16.1256 C6.4848,16.188 6.6096,16.188 6.7032,16.1256 C6.828,16.0632 6.9528,15.8136 7.0776,15.3768 C7.2024,14.94 7.2504,14.6424 7.2192,14.4864 C7.188,14.424 7.1256,14.3136 7.032,14.1576 C6.3768,13.0944 6.156,11.9784 6.3768,10.8072 C6.5952,9.636 7.08,8.6424 7.8288,7.8312 C8.9856,6.7992 10.3368,6.2376 11.8824,6.144 C13.428,6.0504 14.7504,6.4728 15.8424,7.4088 C16.4352,8.0952 16.8192,8.9232 16.9896,9.8928 C17.16,10.8624 17.1624,11.7912 16.9896,12.6816 C16.8168,13.572 16.512,14.4072 16.0752,15.1896 C15.2928,16.4088 14.3712,17.0328 13.3104,17.064 C12.6864,17.0328 12.1776,16.7904 11.7864,16.3368 C11.3952,15.8832 11.2776,15.36 11.436,14.7672 C11.4984,14.424 11.6856,13.752 11.9976,12.7512 C12.3096,11.7504 12.4824,11.0016 12.5136,10.5024 C12.42,9.3144 11.8728,8.7048 10.872,8.6736 C10.0896,8.7672 9.5136,9.12 9.1368,9.7272 C8.76,10.3344 8.5584,11.0328 8.5272,11.8128 C8.6208,12.72 8.7624,13.344 8.9496,13.6872 C8.6064,15.0936 8.34,16.2192 8.1528,17.0616 C8.0904,17.28 7.9176,17.952 7.6368,19.0776 C7.356,20.2032 7.2,21.0624 7.1688,21.6552 L7.1688,22.968 C4.9512,21.936 3.1992,20.4456 1.92,18.492 C0.6408,16.5384 0,14.3736 0,12 Z" id="Shape"></path>
        </g>
    </g>
</svg>