<svg xmlns="http://www.w3.org/2000/svg" viewBox="0 0 24 24">
  <path d="M15.5625,1.5 C15.1875,0.375 13.96875,-0.234375 12.84375,0.09375 C11.765625,0.46875 11.109375,1.6875 11.484375,2.8125 L17.015625,19.828125 C17.390625,20.859375 18.515625,21.46875 19.640625,21.140625 C20.765625,20.8125 21.46875,19.59375 21.09375,18.46875 C21.09375,18.46875 15.5625,1.5 15.5625,1.5 M6.984375,4.265625 C6.609375,3.140625 5.4375,2.53125 4.3125,2.90625 C3.1875,3.28125 2.578125,4.453125 2.953125,5.578125 L8.4375,22.59375 C8.859375,23.625 9.984375,24.234375 11.0625,23.90625 C12.1875,23.578125 12.890625,22.40625 12.515625,21.28125 C12.515625,21.234375 6.984375,4.265625 6.984375,4.265625 M22.5,15.5625 C23.625,15.1875 24.234375,14.015625 23.90625,12.890625 C23.53125,11.765625 22.3125,11.15625 21.1875,11.484375 L4.171875,17.015625 C3.140625,17.390625 2.53125,18.5625 2.859375,19.640625 C3.1875,20.765625 4.40625,21.46875 5.53125,21.09375 C5.53125,21.09375 22.5,15.5625 22.5,15.5625 M7.734375,20.390625 C8.859375,20.015625 10.265625,19.546875 11.8125,19.03125 C11.4375,17.953125 10.96875,16.5 10.5,15 L6.421875,16.3125 L7.734375,20.390625 M16.3125,17.578125 C17.8125,17.109375 19.265625,16.640625 20.34375,16.265625 C20.015625,15.140625 19.546875,13.734375 19.03125,12.1875 L15,13.5 L16.3125,17.578125 M19.734375,6.984375 C20.859375,6.65625 21.46875,5.4375 21.09375,4.3125 C20.71875,3.1875 19.546875,2.578125 18.421875,2.953125 L1.40625,8.484375 C0.375,8.859375 -0.234375,9.984375 0.09375,11.0625 C0.421875,12.1875 1.59375,12.890625 2.71875,12.515625 C2.765625,12.515625 19.734375,6.984375 19.734375,6.984375 M4.96875,11.8125 C6.046875,11.4375 7.5,10.96875 9,10.5 C8.53125,8.953125 8.0625,7.5 7.6875,6.421875 L3.609375,7.734375 L4.96875,11.8125 M13.5,9.046875 C15.046875,8.53125 16.5,8.0625 17.578125,7.6875 C17.0625,6.1875 16.59375,4.734375 16.265625,3.65625 L12.1875,4.96875 L13.5,9.046875" id="Shape"></path>
</svg>