<svg viewBox="0 0 512 512">
  <path d="m332 32c-8-24-34-37-58-30-23 8-37 34-29 58l118 363c8 22 32 35 56 28 24-7 39-33 31-57 0 0-118-362-118-362m-183 59c-8-24-33-37-57-29-24 8-37 33-29 57l117 363c9 22 33 35 56 28 24-7 39-32 31-56 0-1-118-363-118-363m331 241c24-8 37-33 30-57-8-24-34-37-58-30l-363 118c-22 8-35 33-28 56 7 24 33 39 57 31 0 0 362-118 362-118m-315 103c24-8 54-18 87-29-8-23-18-54-28-86l-87 28 28 87m183-60c32-10 63-20 86-28-7-24-17-54-28-87l-86 28 28 87m73-226c24-7 37-33 29-57-8-24-33-37-57-29l-363 118c-22 8-35 32-28 55 7 24 32 39 56 31 1 0 363-118 363-118m-315 103c23-8 54-18 86-28-10-33-20-64-28-87l-87 28 29 87m182-59c33-11 64-21 87-29-11-32-21-63-28-86l-87 28 28 87"/>
</svg>
