<svg xmlns="http://www.w3.org/2000/svg" viewBox="0 0 24 24">
  <path d="M24.0000006,2.34666672 C23.3066672,3.30666674 22.5066672,4.1600001 21.5466672,4.85333345 C21.5466672,5.01333345 21.5466672,5.22666679 21.5466672,5.49333346 C21.5466672,6.82666683 21.3866672,8.16000019 20.9600005,9.44000022 C20.5866671,10.7733336 20.0000005,12.0533336 19.2000005,13.226667 C18.4533338,14.4533337 17.4933337,15.5200004 16.4266671,16.4800004 C15.306667,17.3866671 14.026667,18.1333338 12.4800003,18.6666671 C10.9333336,19.2533338 9.28000022,19.5200005 7.57333351,19.5200005 C4.80000011,19.5200005 2.29333339,18.7733338 0,17.2800004 C0.373333342,17.3333337 0.746666684,17.3866671 1.17333336,17.3866671 C3.46666675,17.3866671 5.49333346,16.6400004 7.30666684,15.2533337 C6.24000015,15.2533337 5.28000012,14.9333337 4.42666677,14.2933337 C3.57333342,13.6533337 2.98666674,12.8533336 2.66666673,11.8400003 C3.04000007,11.8933336 3.36000008,11.9466669 3.62666675,11.9466669 C4.05333343,11.9466669 4.48000011,11.8933336 4.90666678,11.7333336 C3.78666676,11.5200003 2.82666673,10.9333336 2.08000005,10.0800002 C1.33333336,9.17333355 0.960000023,8.10666686 0.960000023,6.9333335 L0.960000023,6.88000016 C1.65333337,7.2533335 2.40000006,7.46666684 3.20000008,7.46666684 C2.50666673,7.04000017 1.97333338,6.45333348 1.60000004,5.76000014 C1.17333336,5.01333345 1.01333336,4.21333343 1.01333336,3.41333341 C1.01333336,2.50666673 1.2266667,1.65333337 1.65333337,0.906666688 C2.88000007,2.40000006 4.37333344,3.62666675 6.13333348,4.53333344 C7.89333352,5.44000013 9.81333356,5.97333347 11.8400003,6.08000014 C11.7333336,5.65333347 11.6800003,5.28000012 11.6800003,4.90666678 C11.6800003,3.57333342 12.1600003,2.40000006 13.1200003,1.44000003 C14.0800003,0.480000011 15.2533337,0 16.6400004,0 C18.0266671,0 19.2533338,0.533333346 20.2133338,1.5466667 C21.3333338,1.33333336 22.3466672,0.960000023 23.3600005,0.373333342 C22.9866672,1.5466667 22.2400005,2.45333339 21.1733338,3.09333341 C22.1333339,2.98666674 23.0400005,2.72000006 24.0000006,2.34666672 Z" id="Shape"></path>
</svg>