<svg xmlns="http://www.w3.org/2000/svg" viewBox="0 0 512 512">
  <path d="m239 218c-21 36-41 70-62 105-6 8-8 15-4 27 12 31-5 61-36 69-29 8-58-12-64-43-5-28 17-55 47-60 3 0 6 0 10-1 15-25 30-51 47-78-30-29-47-63-43-106 2-29 14-55 36-76 41-41 104-48 152-16 47 29 68 88 50 138-14-4-28-8-43-12 6-28 2-53-17-74-12-14-28-21-46-24-36-6-72 18-82 53-12 40 6 73 55 98z m61-42c15 26 30 53 45 79 76-23 133 19 154 64 25 55 8 119-41 153-50 34-114 28-158-16 11-10 23-19 35-29 44 28 82 27 111-7 24-28 23-71-2-99-29-33-67-34-114-3-19-34-39-68-58-103-6-11-13-18-27-20-24-5-39-25-40-48-1-22 12-43 33-51 21-8 45-1 59 16 11 14 15 31 9 48-2 5-4 10-6 16z m35 215l-91 0c-9 37-28 66-61 84-25 15-52 19-81 15-54-9-98-57-102-112-4-61 38-116 95-128 4 14 7 28 11 42-51 27-69 60-55 102 13 36 49 56 89 49 40-8 60-42 57-95 39 0 77-1 115 0 15 0 26-1 37-14 19-22 53-20 72 0 21 21 20 55-2 75-20 19-53 18-73-3-4-4-7-9-11-15z"/>
</svg>
