<svg xmlns="http://www.w3.org/2000/svg" viewBox="0 0 24 24">
  <path d="M11.25,9.375 C10.265625,11.0625 9.328125,12.65625 8.34375,14.296875 C8.0625,14.671875 7.96875,15 8.15625,15.5625 C8.71875,17.015625 7.921875,18.421875 6.46875,18.796875 C5.109375,19.171875 3.75,18.234375 3.46875,16.78125 C3.234375,15.46875 4.265625,14.203125 5.671875,13.96875 C5.8125,13.96875 5.953125,13.96875 6.140625,13.921875 C6.84375,12.75 7.546875,11.53125 8.34375,10.265625 C6.9375,8.90625 6.140625,7.3125 6.328125,5.296875 C6.421875,3.9375 6.984375,2.71875 8.015625,1.734375 C9.9375,-0.1875 12.890625,-0.515625 15.140625,0.984375 C17.34375,2.34375 18.328125,5.109375 17.484375,7.453125 C16.828125,7.265625 16.171875,7.078125 15.46875,6.890625 C15.75,5.578125 15.5625,4.40625 14.671875,3.421875 C14.109375,2.765625 13.359375,2.4375 12.515625,2.296875 C10.828125,2.015625 9.140625,3.140625 8.671875,4.78125 C8.109375,6.65625 8.953125,8.203125 11.25,9.375 Z M14.109375,7.40625 C14.8125,8.625 15.515625,9.890625 16.21875,11.109375 C19.78125,10.03125 22.453125,12 23.4375,14.109375 C24.609375,16.6875 23.8125,19.6875 21.515625,21.28125 C19.171875,22.875 16.171875,22.59375 14.109375,20.53125 C14.625,20.0625 15.1875,19.640625 15.75,19.171875 C17.8125,20.484375 19.59375,20.4375 20.953125,18.84375 C22.078125,17.53125 22.03125,15.515625 20.859375,14.203125 C19.5,12.65625 17.71875,12.609375 15.515625,14.0625 C14.625,12.46875 13.6875,10.875 12.796875,9.234375 C12.515625,8.71875 12.1875,8.390625 11.53125,8.296875 C10.40625,8.0625 9.703125,7.125 9.65625,6.046875 C9.609375,5.015625 10.21875,4.03125 11.203125,3.65625 C12.1875,3.28125 13.3125,3.609375 13.96875,4.40625 C14.484375,5.0625 14.671875,5.859375 14.390625,6.65625 C14.296875,6.890625 14.203125,7.125 14.109375,7.40625 Z M15.75,17.484375 L11.484375,17.484375 C11.0625,19.21875 10.171875,20.578125 8.625,21.421875 C7.453125,22.125 6.1875,22.3125 4.828125,22.125 C2.296875,21.703125 0.234375,19.453125 0.046875,16.875 C-0.140625,14.015625 1.828125,11.4375 4.5,10.875 C4.6875,11.53125 4.828125,12.1875 5.015625,12.84375 C2.625,14.109375 1.78125,15.65625 2.4375,17.625 C3.046875,19.3125 4.734375,20.25 6.609375,19.921875 C8.484375,19.546875 9.421875,17.953125 9.28125,15.46875 C11.109375,15.46875 12.890625,15.421875 14.671875,15.46875 C15.375,15.46875 15.890625,15.421875 16.40625,14.8125 C17.296875,13.78125 18.890625,13.875 19.78125,14.8125 C20.765625,15.796875 20.71875,17.390625 19.6875,18.328125 C18.75,19.21875 17.203125,19.171875 16.265625,18.1875 C16.078125,18 15.9375,17.765625 15.75,17.484375 Z" id="Shape"></path>
</svg>