<svg xmlns="http://www.w3.org/2000/svg" viewBox="0 -4 24 24">
  <path d="M23.2941176,3.2 C22.8705882,3.24705882 21.1294118,3.62352941 20.5647059,3.76470588 C19.9058824,3.90588235 14.2117647,8.32941176 13.8352941,9.41176471 C13.7411765,9.78823529 13.6941176,10.3529412 13.6941176,10.9176471 L13.6470588,11.8117647 C13.6470588,12.4235294 13.8352941,13.4117647 13.9294118,13.9764706 C14.3058824,14.0705882 17.0352941,13.9764706 17.5058824,14.0705882 L17.4588235,15.2 C16.9882353,15.1529412 13.5058824,15.1529412 11.5294118,15.1529412 C10.5411765,15.1529412 7.29411765,15.2470588 6.30588235,15.2470588 L6.49411765,14.1647059 C7.05882353,14.1176471 9.31764706,14.2588235 9.78823529,13.7411765 C10.0235294,13.5058824 9.97647059,13.2235294 9.97647059,11.7176471 L9.97647059,11.0117647 C9.97647059,10.6823529 9.97647059,10.0235294 9.88235294,9.45882353 C9.69411765,8.84705882 4.61176471,2.54117647 3.34117647,1.55294118 C2.96470588,1.41176471 0.611764706,1.17647059 0.0470588235,1.03529412 L0,0.0941176471 C0.282352941,-0.0470588235 2.91764706,0.141176471 5.45882353,0.0470588235 C7.10588235,-0.0470588235 10.9176471,0.0470588235 11.3882353,0.0941176471 L11.2941176,0.941176471 C10.7764706,1.08235294 8.37647059,1.12941176 7.71764706,1.27058824 C9.36470588,3.67058824 11.9529412,6.82352941 12.7529412,8 C13.2235294,7.34117647 17.2705882,4.56470588 17.4117647,3.62352941 C16.7529412,3.48235294 14.6823529,3.2 14.3529412,3.2 L14.1647059,2.11764706 C14.7294118,2.02352941 17.6941176,2.11764706 19.2,2.11764706 C20.4705882,2.11764706 23.2470588,2.11764706 24,2.16470588 L23.2941176,3.2" id="Shape"></path>
</svg>