<?xml version="1.0" encoding="UTF-8"?>
<svg width="48px" height="34px" viewBox="0 0 48 34" version="1.1" xmlns="http://www.w3.org/2000/svg" xmlns:xlink="http://www.w3.org/1999/xlink">
    <!-- Generator: Sketch 50.2 (55047) - http://www.bohemiancoding.com/sketch -->
    <title>YouTube</title>
    <desc>Created with Sketch.</desc>
    <defs></defs>
    <g id="Page-1" stroke="none" stroke-width="1" fill="none" fill-rule="evenodd">
        <g id="YouTube">
            <path d="M46.9994354,5.28110205 C46.4474057,3.20226304 44.8210456,1.56526595 42.7555709,1.00969064 C39.0121879,0 24.0012901,0 24.0012901,0 C24.0012901,0 8.99039234,0 5.24700931,1.00969064 C3.18180739,1.56526595 1.5551745,3.20226304 1.00314483,5.28110205 C0,9.04875911 0,16.9099998 0,16.9099998 C0,16.9099998 0,24.7709678 1.00314483,28.5391704 C1.5551745,30.6177367 3.18180739,32.2547337 5.24700931,32.8105818 C8.99039234,33.8199997 24.0012901,33.8199997 24.0012901,33.8199997 C24.0012901,33.8199997 39.0121879,33.8199997 42.7555709,32.8105818 C44.8210456,32.2547337 46.4474057,30.6177367 46.9994354,28.5391704 C48.0025802,24.7709678 48.0025802,16.9099998 48.0025802,16.9099998 C48.0025802,16.9099998 48.0025802,9.04875911 46.9994354,5.28110205" id="Fill-1" fill="#222321"></path>
            <polyline id="Fill-4" fill="#FFFFFE" points="19.0919353 24.0473835 31.6380642 16.9102726 19.0919353 9.7726162 19.0919353 24.0473835"></polyline>
        </g>
    </g>
</svg>