<?xml version="1.0" encoding="UTF-8" standalone="no"?>
<svg width="467px" height="80px" viewBox="0 0 467 80" version="1.1" xmlns="http://www.w3.org/2000/svg" xmlns:xlink="http://www.w3.org/1999/xlink">
    <!-- Generator: Sketch Beta 3.7 (28138) - http://www.bohemiancoding.com/sketch -->
    <title>light on dark logo</title>
    <desc>Created with Sketch Beta.</desc>
    <defs>
        <polygon id="path-1" points="0.000349854227 42.6822157 34.7338776 42.6822157 34.7338776 0.043451895 0.000349854227 0.043451895 0.000349854227 42.6822157"></polygon>
        <polygon id="path-3" points="0.0891195335 42.6822157 25.7196735 42.6822157 25.7196735 0.043451895 0.0891195335 0.043451895"></polygon>
        <polygon id="path-5" points="0.0677084548 42.6822157 25.6989621 42.6822157 25.6989621 0.043451895 0.0677084548 0.043451895 0.0677084548 42.6822157"></polygon>
        <polygon id="path-7" points="0.00681049563 42.6822157 34.735207 42.6822157 34.735207 0.043451895 0.00681049563 0.043451895 0.00681049563 42.6822157"></polygon>
        <polygon id="path-9" points="6.95167271 0.0653061224 0.124374192 0.0653061224 0.124374192 15.2257259 6.95167271 15.2257259 6.95167271 0.0653061224"></polygon>
        <polygon id="path-11" points="1.26437571e-20 0.0949737609 1.26437571e-20 56.5815044 27.8329563 56.5815044 27.8329563 0.0949737609 0 0.0949737609"></polygon>
        <polygon id="path-13" points="6.83860002 0.0730029155 0.0164797435 0.0730029155 0.0164797435 14.9441866 6.83860002 14.9441866 6.83860002 0.0730029155"></polygon>
        <polygon id="path-15" points="1.26437571e-20 0.0949737609 1.26437571e-20 56.5815044 27.8329563 56.5815044 27.8329563 0.0949737609 0 0.0949737609"></polygon>
        <polygon id="path-17" points="6.83860002 0.0730029155 0.0164797435 0.0730029155 0.0164797435 14.9441866 6.83860002 14.9441866 6.83860002 0.0730029155"></polygon>
        <polygon id="path-19" points="1.26437571e-20 0.0949737609 1.26437571e-20 56.5815044 27.8329563 56.5815044 27.8329563 0.0949737609 0 0.0949737609"></polygon>
        <polygon id="path-21" points="6.83860002 0.0730029155 0.0164797435 0.0730029155 0.0164797435 14.9441866 6.83860002 14.9441866 6.83860002 0.0730029155"></polygon>
        <polygon id="path-23" points="1.26437571e-20 0.0949737609 1.26437571e-20 56.5815044 27.8329563 56.5815044 27.8329563 0.0949737609 0 0.0949737609"></polygon>
    </defs>
    <g id="Page-1" stroke="none" stroke-width="1" fill="none" fill-rule="evenodd">
        <g id="Branding" transform="translate(-30.000000, -451.000000)">
            <g id="Color-logo" transform="translate(30.000000, 131.000000)">
                <path d="M93.7043732,30.7477085 L82.6058309,58.3742974 L104.803382,58.3742974 L93.7043732,30.7477085 Z M89.7913703,23.2417026 L98.1769096,23.2417026 L121.732595,78.9772128 L113.029388,78.9772128 L107.357551,64.9203032 L80.0497959,64.9203032 L74.3805248,78.9772128 L65.9949854,78.9772128 L89.7913703,23.2417026 Z" id="Fill-1" fill="#383838"></path>
                <g id="Group-38" stroke-width="1" transform="translate(0.000000, 0.167930)">
                    <path d="M124.32688,38.084688 L131.356152,38.084688 L131.356152,43.992793 L131.514519,43.992793 C134.390087,39.2828222 138.461458,37.1279534 144.450262,37.1279534 C149.161399,37.1279534 153.872536,39.5200233 156.028805,45.0325598 C158.82484,39.2025889 164.972245,37.1279534 168.645948,37.1279534 C179.026589,37.1279534 182.777259,43.8344257 182.777259,52.6962332 L182.777259,78.8091195 L175.272187,78.8091195 L175.272187,54.5332012 C175.272187,49.5018309 174.075452,43.1960583 168.007347,43.1960583 C160.341341,43.1960583 157.306706,50.700898 157.306706,58.2887697 L157.306706,78.8091195 L149.798601,78.8091195 L149.798601,54.5332012 C149.798601,49.5018309 148.601633,43.1960583 142.534461,43.1960583 C134.868921,43.1960583 131.834286,50.700898 131.834286,58.2887697 L131.834286,78.8091195 L124.32688,78.8091195 L124.32688,38.084688 Z" id="Fill-2" fill="#383838"></path>
                    <path d="M205.851685,43.1961749 C197.706379,43.1961749 193.795009,50.942414 193.795009,58.5286531 C193.795009,65.3141924 197.306612,73.6950671 205.770985,73.6950671 C213.835125,73.6950671 217.190227,64.6758251 217.029528,58.2888863 C217.190227,50.942414 213.996525,43.1961749 205.851685,43.1961749 L205.851685,43.1961749 Z M186.287603,18.9209563 L193.795009,18.9209563 L193.795009,43.674309 L193.951977,43.674309 C196.269178,39.9201399 200.342181,37.12807 207.448187,37.12807 C219.268128,37.12807 225.013668,46.7889446 225.013668,57.7288863 C225.013668,68.9055627 219.822764,79.7666706 207.528187,79.7666706 C200.261714,79.7666706 195.63151,76.0922682 193.633843,73.0578659 L193.474076,73.0578659 L193.474076,78.8092362 L186.287603,78.8092362 L186.287603,18.9209563 Z" id="Fill-4" fill="#383838"></path>
                    <g id="Group-8" transform="translate(226.705539, 37.084548)">
                        <mask id="mask-2" fill="white">
                            <use xlink:href="#path-1"></use>
                        </mask>
                        <g id="Clip-7"></g>
                        <path d="M26.9069388,22.3198367 C25.3123032,22.3198367 23.715102,22.1596035 22.116035,22.1596035 C18.0434985,22.1596035 7.98402332,22.7972711 7.98402332,29.983277 C7.98402332,34.2969796 12.136793,36.610449 15.56793,36.610449 C22.9953353,36.610449 26.9069388,31.9816443 26.9069388,25.9149388 L26.9069388,22.3198367 Z M4.63008746,3.87552187 C8.38169096,1.63738776 12.8523615,0.043451895 18.0434985,0.043451895 C29.699242,0.043451895 34.4164431,5.79015743 34.4164431,16.8898659 L34.4164431,33.7379125 C34.4164431,38.3720816 34.5731778,40.5292828 34.7338776,41.7246181 L27.7060058,41.7246181 L27.7060058,36.4541808 L27.5476385,36.4541808 C25.7902041,38.9269504 21.7976676,42.6822857 14.9309621,42.6822857 C6.14705539,42.6822857 0.000349854227,38.8523149 0.000349854227,29.983277 C0.000349854227,19.7635685 11.1779592,16.5714985 18.9225656,16.5714985 C21.8762682,16.5714985 23.9525364,16.5714985 26.9069388,16.7317318 C26.9069388,9.70432653 24.3532362,6.11155685 16.8481633,6.11155685 C12.6144606,6.11155685 8.0644898,7.70712536 5.02728863,10.2633936 L4.63008746,3.87552187 Z" id="Fill-6" fill="#383838" mask="url(#mask-2)"></path>
                    </g>
                    <g id="Group-11" transform="translate(264.723032, 37.084548)">
                        <mask id="mask-4" fill="white">
                            <use xlink:href="#path-3"></use>
                        </mask>
                        <g id="Clip-10"></g>
                        <path d="M0.730285714,33.7379125 C3.68282216,35.6586122 7.9153586,36.610449 10.0709271,36.610449 C13.5053294,36.610449 17.7371662,35.1776793 17.7371662,30.7825773 C17.7371662,23.3586706 0.0891195335,23.9965714 0.0891195335,12.5780292 C0.0891195335,4.11365598 6.39909038,0.043451895 14.4622974,0.043451895 C17.9750671,0.043451895 20.8515685,0.761586006 23.8050379,1.63738776 L23.1657376,8.184793 C21.4899359,7.14969096 17.0173994,6.11155685 15.2590321,6.11155685 C11.4274286,6.11155685 8.072793,7.70712536 8.072793,11.0617609 C8.072793,19.3670671 25.7196735,16.9717318 25.7196735,29.983277 C25.7196735,38.6902157 18.7725015,42.6822857 11.5090612,42.6822857 C7.6753586,42.6822857 3.76328863,42.2822857 0.329119534,40.4448513 L0.730285714,33.7379125 Z" id="Fill-9" fill="#383838" mask="url(#mask-4)"></path>
                    </g>
                    <g id="Group-14" transform="translate(292.478134, 37.084548)">
                        <mask id="mask-6" fill="white">
                            <use xlink:href="#path-5"></use>
                        </mask>
                        <g id="Clip-13"></g>
                        <path d="M0.708174927,33.7379125 C3.66234402,35.6586122 7.89604665,36.610449 10.0509155,36.610449 C13.4834519,36.610449 17.716688,35.1776793 17.716688,30.7825773 C17.716688,23.3586706 0.0677084548,23.9965714 0.0677084548,12.5780292 C0.0677084548,4.11365598 6.37534694,0.043451895 14.4394869,0.043451895 C17.9543557,0.043451895 20.8303907,0.761586006 23.7836268,1.63738776 L23.1433936,8.184793 C21.4671254,7.14969096 16.9955219,6.11155685 15.242519,6.11155685 C11.4088163,6.11155685 8.05488047,7.70712536 8.05488047,11.0617609 C8.05488047,19.3670671 25.6989621,16.9717318 25.6989621,29.983277 C25.6989621,38.6902157 18.7552886,42.6822857 11.4871837,42.6822857 C7.65441399,42.6822857 3.73907872,42.2822857 0.308174927,40.4448513 L0.708174927,33.7379125 Z" id="Fill-12" fill="#383838" mask="url(#mask-6)"></path>
                    </g>
                    <g id="Group-17" transform="translate(320.233236, 37.084548)">
                        <mask id="mask-8" fill="white">
                            <use xlink:href="#path-7"></use>
                        </mask>
                        <g id="Clip-16"></g>
                        <path d="M26.9099009,22.3198367 C25.3122332,22.3198367 23.7152653,22.1596035 22.1161983,22.1596035 C18.0443615,22.1596035 7.99374927,22.7972711 7.99374927,29.983277 C7.99374927,34.2969796 12.1374227,36.610449 15.5697259,36.610449 C22.995965,36.610449 26.9099009,31.9816443 26.9099009,25.9149388 L26.9099009,22.3198367 Z M4.6391137,3.87552187 C8.39211662,1.63738776 12.8541574,0.043451895 18.0443615,0.043451895 C29.703137,0.043451895 34.4159067,5.79015743 34.4159067,16.8898659 L34.4159067,33.7379125 C34.4159067,38.3720816 34.5763732,40.5292828 34.735207,41.7246181 L27.7085015,41.7246181 L27.7085015,36.4541808 L27.5478017,36.4541808 C25.7938659,38.9269504 21.7987638,42.6822857 14.9311254,42.6822857 C6.15678134,42.6822857 0.00681049563,38.8523149 0.00681049563,29.983277 C0.00681049563,19.7635685 11.1781224,16.5714985 18.9250612,16.5714985 C21.8789971,16.5714985 23.9536327,16.5714985 26.9099009,16.7317318 C26.9099009,9.70432653 24.3536327,6.11155685 16.8478601,6.11155685 C12.6178892,6.11155685 8.07048397,7.70712536 5.03888047,10.2633936 L4.6391137,3.87552187 Z" id="Fill-15" fill="#383838" mask="url(#mask-8)"></path>
                    </g>
                    <path d="M376.720397,73.6950904 C385.185703,73.6950904 388.698706,65.3142157 388.698706,58.5286764 C388.698706,50.9424373 384.785236,43.1961983 376.640863,43.1961983 C368.495324,43.1961983 365.303254,50.8598717 365.463953,58.2886764 C365.303254,64.6758484 368.656956,73.6950904 376.720397,73.6950904 L376.720397,73.6950904 Z M389.018939,73.0578892 L388.861038,73.0578892 C386.86407,76.0922915 382.233866,79.7666939 374.964828,79.7666939 C362.666519,79.7666939 357.477714,68.8274519 357.477714,57.7289096 C357.477714,46.7889679 363.228385,37.1280933 375.046227,37.1280933 C382.149901,37.1280933 386.221971,39.9201633 388.540105,43.6743324 L388.698706,43.6743324 L388.698706,18.9209796 L396.205644,18.9209796 L396.205644,78.8092595 L389.018939,78.8092595 L389.018939,73.0578892 Z" id="Fill-18" fill="#383838"></path>
                    <path d="M419.710344,73.6950904 C428.492385,73.6950904 432.405621,65.7121166 432.405621,58.4451778 C432.405621,50.7008047 427.693085,43.1961983 419.710344,43.1961983 C411.644105,43.1961983 406.933434,50.7008047 406.933434,58.4451778 C406.933434,65.7121166 410.842939,73.6950904 419.710344,73.6950904 M419.710344,37.1280933 C432.083055,37.1280933 440.388362,46.0673353 440.388362,58.4451778 C440.388362,70.1041866 431.927254,79.7666939 419.710344,79.7666939 C407.411569,79.7666939 398.946729,70.1041866 398.946729,58.4451778 C398.946729,46.0673353 407.251335,37.1280933 419.710344,37.1280933" id="Fill-20" fill="#383838"></path>
                    <path d="M443.959813,38.084688 L450.986519,38.084688 L450.986519,44.3909271 L451.148152,44.3909271 C453.143487,40.161656 457.45509,37.1279534 461.765294,37.1279534 C464.003429,37.1279534 465.11923,37.3674869 466.719464,37.6835219 L466.719464,44.3909271 C465.360863,43.8344257 463.840863,43.6741924 462.566461,43.6741924 C455.858122,43.6741924 451.466286,50.0625306 451.466286,60.283172 L451.466286,78.8091195 L443.959813,78.8091195 L443.959813,38.084688 Z" id="Fill-22" fill="#383838"></path>
                    <path d="M55.5459592,43.583277 C55.5459592,44.112723 55.3987872,44.6069504 55.1429271,45.0307405 L55.1396618,45.0370379 L54.9733644,45.2803032 L48.7037434,54.4303907 L47.6497493,55.9674169 L47.1347638,56.7177376 L44.3692828,60.7529563 L43.876688,61.472723 L40.6027522,66.2517318 C40.5547055,66.3300991 40.5066589,66.4035685 40.4490496,66.4723732 L40.4362216,66.4900991 C40.1724315,66.8098659 39.7964548,67.0354052 39.3710321,67.1058426 C39.2768047,67.1217026 39.1790787,67.1298659 39.0799534,67.1298659 C38.6258426,67.1298659 38.2132478,66.9570379 37.8995452,66.6738892 C37.8916152,66.6675918 37.8836851,66.6596618 37.8771545,66.6514985 C37.8372711,66.6083499 37.7941224,66.5635685 37.7509738,66.5187872 C37.6261924,66.3877085 37.4965131,66.2500991 37.3621691,66.1078251 C35.4092828,64.0492828 32.2538309,60.7049096 29.1524898,57.3638017 C28.639137,56.8073003 28.125551,56.2505656 27.6187289,55.7003615 C27.5210029,55.5949388 27.4202449,55.4860175 27.3227522,55.3805948 C27.1116735,55.1501574 26.996688,54.921586 26.7888746,54.694414 C25.3638017,53.1382624 23.9475918,51.6602449 23.0146472,50.403102 L23.0146472,50.4014694 C22.3149388,49.7201866 21.7955219,49.1044431 21.3556385,48.5766297 C21.1189038,48.293481 20.8597784,48.032723 20.6790204,47.8041516 C20.6773878,47.802519 20.6507988,47.8008863 20.6493994,47.797621 C20.5805948,47.7080583 20.5033936,47.6250262 20.4408863,47.5450262 C20.437621,47.5401283 20.4271254,47.5338309 20.4254927,47.5305656 C20.1952886,47.1772128 20.0562799,46.7517901 20.0562799,46.2941808 C20.0562799,45.9856093 20.1157551,45.6912653 20.2291079,45.4242099 C20.2291079,45.419312 20.2300408,45.4162799 20.2349388,45.4113819 C20.2909155,45.2947638 20.3559883,45.1713819 20.429691,45.0435685 C20.5351137,44.8532478 20.6549971,44.6533644 20.7844431,44.4420525 C20.8453178,44.3238017 20.9124898,44.2102157 20.9875918,44.1031603 C21.0274752,44.0422857 21.0675918,43.9830437 21.1123732,43.9286997 C21.1154052,43.924035 21.1170379,43.9207697 21.1219359,43.9175044 C21.3376793,43.5849096 21.5776793,43.2329563 21.835172,42.8684082 C21.9326647,42.7275335 22.0350554,42.5852595 22.1390787,42.4397201 C22.8987289,41.3840933 23.7705656,40.2389038 24.6372711,39.1098076 C25.3138892,38.2300408 25.9839767,37.363102 26.5983207,36.5570379 C26.6029854,36.5491079 26.6078834,36.5411778 26.6174461,36.5330146 C26.7886414,36.3044431 26.9579708,36.0789038 27.1212362,35.8596618 C28.1465423,34.4075335 29.0020525,32.6305073 29.6275918,30.6216443 C29.6723732,30.463277 29.7187872,30.303277 29.7682332,30.1435102 C29.7922566,30.0602449 29.776863,29.9739475 29.8041516,29.8874169 C30.6230437,27.2709738 32.1108571,24.4607114 33.2770379,21.7929563 L33.2770379,21.7913236 C34.4432187,19.819312 35.4722566,17.9270671 36.5120233,16.2461341 C36.7902741,15.796688 37.0850845,15.36007 37.3505073,14.9442099 C37.6240933,14.5204198 37.8953469,14.1173878 38.1481749,13.733481 C38.1593703,13.7143557 38.1773294,13.6966297 38.1871254,13.6775044 C38.3886414,13.371965 38.584793,13.082519 38.7685831,12.8042682 C38.8709738,12.6554636 38.9698659,12.5082915 39.0675918,12.3660175 C39.1074752,12.3051429 39.1464257,12.2459009 39.1865423,12.1885248 C39.2856676,12.0429854 39.3819942,11.9021108 39.4731895,11.7677668 C39.6266589,11.5471254 39.7691662,11.3390787 39.9002449,11.1503907 C40.3210029,11.0881166 40.7177376,10.993656 41.0792536,10.8754052 C41.204035,10.8352886 41.3239184,10.7921399 41.439137,10.7473586 C41.4997784,10.72007 41.5590204,10.6962799 41.6166297,10.6706239 L43.9662507,16.5243848 L55.2723732,42.3725481 L55.3283499,42.4973294 C55.4692245,42.8299242 55.5459592,43.1977376 55.5459592,43.583277" id="Fill-24" fill="#05A6CC"></path>
                    <path d="M55.3588338,77.0877434 C55.3588338,78.5671603 52.1023907,79.7666939 48.08793,79.7666939 C44.0702041,79.7666939 40.8170262,78.5671603 40.8170262,77.0877434 C40.8170262,75.9297259 42.8130612,74.9429038 45.6072303,74.5701924 L43.8766181,61.4725831 L44.3692128,60.7530496 L47.1346939,56.7175977 L47.6496793,55.9675102 L50.0984257,74.5125831 C53.1356268,74.8342157 55.3588338,75.8674519 55.3588338,77.0877434" id="Fill-26" fill="#383838"></path>
                    <path d="M41.6166764,10.6706006 C41.5590671,10.6962566 41.4998251,10.7202799 41.4391837,10.7473353 C41.323965,10.7921166 41.2040816,10.8352653 41.0793003,10.8753819 C40.7177843,10.9936327 40.3210496,11.0880933 39.9005248,11.1503673 C39.7694461,11.3390554 39.6269388,11.547102 39.4734694,11.7677434 C39.3822741,11.9020875 39.286414,12.0429621 39.1870554,12.1885015 C39.147172,12.2461108 39.108688,12.3051195 39.0688047,12.3659942 C38.971312,12.5082682 38.873586,12.6554402 38.7714286,12.8042449 C38.5874052,13.0824956 38.3938192,13.3719417 38.1923032,13.677481 C38.1827405,13.6966064 38.1699125,13.7143324 38.1587172,13.7334577 C37.9061224,14.1173644 37.6453644,14.5203965 37.3717784,14.9441866 C37.7237318,14.2101924 37.9427405,13.400863 38.0019825,12.5483848 L37.8165598,11.1536327 C37.4135277,11.0864606 37.0664723,10.9745073 36.794519,10.8257026 C36.4376676,10.6386472 36.2123615,10.3874519 36.1738776,10.0900758 C36.1531195,9.9268105 36.1883382,9.76377843 36.2762682,9.60214577 C36.3609329,9.44377843 36.4938776,9.28867638 36.6697376,9.14150437 L36.8087464,7.53730612 L37.0184257,5.10138776 L37.1462391,3.62523615 L37.3846064,0.867685131 C37.4293878,0.423137026 37.8083965,0.0728163265 38.2660058,0.0728163265 C38.5953353,0.0728163265 38.8817493,0.251941691 39.0352187,0.519230321 L39.1280466,0.754332362 L40.1004082,3.2268688 L41.6038484,7.04307872 L42.1141691,8.33707289 C42.2195918,8.38022157 42.3156851,8.42826822 42.4052478,8.47631487 C42.7378426,8.66500292 42.9458892,8.90803499 42.9841399,9.19281633 C43.0545773,9.72692711 42.5060058,10.2754985 41.6166764,10.6706006" id="Fill-28" fill="#383838"></path>
                    <path d="M35.1806414,77.0365714 C35.1806414,78.517621 31.9241983,79.7187872 27.9097376,79.7187872 C23.8920117,79.7187872 20.6388338,78.517621 20.6388338,77.0365714 C20.6388338,75.8913819 22.5980175,74.9124898 25.3523032,74.5318484 L23.6328863,61.5175044 L24.1910204,60.703277 L26.0576093,57.9795452 C26.4783673,58.4289913 26.8939942,58.8768047 27.3068222,59.321586 L27.3163848,59.3901574 C27.3739942,59.4253761 27.4283382,59.4638601 27.4810496,59.5070087 C27.5689796,59.603102 27.6569096,59.6973294 27.7450729,59.7917901 C27.8474636,59.9324315 27.9909038,60.0940641 28.0340525,60.2682915 L28.1457726,60.6265423 L28.1457726,60.6314402 L29.9069388,74.4551137 C32.9858892,74.7685831 35.1806414,75.8050845 35.1806414,77.0365714" id="Fill-30" fill="#383838"></path>
                    <g id="Group-34" transform="translate(15.860058, -0.000000)">
                        <mask id="mask-10" fill="white">
                            <use xlink:href="#path-9"></use>
                        </mask>
                        <g id="Clip-33"></g>
                        <path d="M5.63603499,10.5906239 C5.55930029,10.6274752 5.47930029,10.6610612 5.40093294,10.6930146 C5.28571429,10.7377959 5.1658309,10.7842099 5.04104956,10.8240933 L5.02985423,10.7410612 C5.02985423,10.7697493 5.03148688,10.7984373 5.0361516,10.8257259 C4.67790087,10.9425773 4.28139942,11.035172 3.86227405,11.0960466 C3.55510204,11.5405948 3.18892128,12.0716735 2.78262391,12.6778542 C2.72991254,12.7594869 2.67393586,12.8408863 2.61795918,12.9241516 C2.52209913,13.069691 2.37586006,13.216863 2.27673469,13.3703324 C2.20793003,13.472723 2.25667638,13.5751137 2.02344023,13.6821691 L2.02344023,13.6838017 C1.79020408,14.1668338 1.42099125,14.6818192 1.07393586,15.2257259 C1.57609329,14.2916152 1.88279883,13.2231603 1.88279883,12.0877668 L1.76641399,11.1009446 C0.840466472,10.9456093 0.200233236,10.5603032 0.129795918,10.0387872 C0.109037901,9.8757551 0.148688047,9.70945773 0.234985423,9.54782507 C0.321516035,9.39109038 0.455626822,9.23598834 0.630087464,9.09044898 L0.768396501,7.48625073 L0.978075802,5.05662974 L1.10635569,3.58724198 L1.34472303,0.868408163 L1.34798834,0.868408163 C1.39440233,0.40193586 1.76874636,0.0651428571 2.22122449,0.0651428571 C2.58600583,0.0651428571 2.89620991,0.278553936 3.03055394,0.593655977 L3.04174927,0.585259475 L4.06215743,3.1776793 L5.56396501,6.99295627 L6.07591837,8.28951603 C6.17994169,8.32939942 6.2774344,8.37721283 6.36536443,8.42525948 C6.69959184,8.61394752 6.90763848,8.85697959 6.94588921,9.14176093 C7.01306122,9.66304373 6.49014577,10.2004198 5.63603499,10.5906239" id="Fill-32" fill="#383838" mask="url(#mask-10)"></path>
                    </g>
                    <g id="Group-37" transform="translate(0.000000, 10.495627)">
                        <mask id="mask-12" fill="white">
                            <use xlink:href="#path-11"></use>
                        </mask>
                        <g id="Clip-36"></g>
                        <path d="M27.8329563,15.6268688 C27.8329563,15.6653528 27.8313236,15.7019708 27.8313236,15.7388222 C27.829691,15.7724082 27.8250262,15.8027289 27.8233936,15.8332828 C27.8217609,15.8458776 27.8184956,15.8556735 27.8184956,15.8636035 C27.8089329,15.9242449 27.8010029,15.9804548 27.7930729,16.0378309 C27.7914402,16.0427289 27.7914402,16.0459942 27.7914402,16.0506589 C27.3914402,18.563312 26.6222274,20.8184723 25.5922566,22.6307172 C25.3891079,23.1153819 24.8580292,23.9149155 24.1464257,24.8921749 C23.3611195,25.9671603 22.3582041,27.2625539 21.3361633,28.5917668 C21.1761633,28.7979475 21.0161633,29.0043615 20.8580292,29.2138076 C20.7843265,29.3099009 20.7108571,29.4073936 20.6371545,29.5032536 C19.3144723,31.2322332 18.0398367,32.9500175 17.2337726,34.2696676 C17.2337726,34.2713003 17.2305073,34.2726997 17.2288746,34.275965 C17.0961633,34.4534577 16.9858426,34.6470437 16.8962799,34.8550904 C16.8930146,34.8564898 16.8913819,34.8581224 16.8930146,34.8597551 C16.7521399,35.1939825 16.6754052,35.5620292 16.6754052,35.9457026 C16.6754052,36.524828 16.8514985,37.0605714 17.1521399,37.5067522 C17.1537726,37.5116501 17.1568047,37.5149155 17.16007,37.5195802 C17.2368047,37.6315335 17.3217026,37.7355569 17.412898,37.8363149 C17.41593,37.8363149 17.41593,37.8379475 17.4175627,37.8409796 C18.5387289,39.2182391 20.4724898,41.3950321 22.6796035,43.8148571 C22.9354636,44.0947405 23.1978542,44.3795219 23.4586122,44.6673353 C24.3061924,45.5902507 25.1826939,46.5385889 26.0575627,47.483895 L24.191207,50.2078601 L23.6328397,51.0218542 L20.4069504,55.7304257 L20.4036851,55.7369563 L20.3092245,55.8729329 L20.3078251,55.8745656 L20.2772711,55.9177143 C20.2805364,55.914449 20.2805364,55.9111837 20.2821691,55.9081516 C19.971965,56.3046531 19.4952303,56.5621458 18.9578542,56.5782391 C18.9387289,56.5815044 18.9177376,56.5815044 18.9002449,56.5815044 C18.4300408,56.5815044 18.0029854,56.397481 17.6878834,56.0935743 C17.648,56.053691 17.609516,56.0119417 17.5710321,55.968793 C17.5598367,55.960863 17.5519067,55.9529329 17.5456093,55.943137 C17.5360466,55.9305423 17.5262507,55.9177143 17.5150554,55.9032536 C17.5199534,55.909551 17.521586,55.9160816 17.5262507,55.9240117 C13.596688,51.783137 3.55237318,41.1375394 0.555055394,37.3805714 L0.559720117,37.3756735 C0.208,36.9038367 -4.66472302e-05,36.3200466 -4.66472302e-05,35.6865773 C-4.66472302e-05,35.2005131 0.124734694,34.7415044 0.342344023,34.3415044 L0.339078717,34.3384723 C1.52578426,32.2831953 4.08648397,29.0636035 6.1144723,26.4068105 C6.68869971,25.6583557 7.21814577,24.9546822 7.65966181,24.3356735 C8.30106122,23.2800466 8.84146939,22.0884431 9.25732945,20.7930496 C9.25732945,20.7914169 9.2589621,20.7897843 9.2589621,20.7848863 C9.40450146,20.3387055 9.5325481,19.8796968 9.64613411,19.4094927 C10.3850262,17.0246531 11.5173878,14.478414 12.7791953,12.0217376 C13.9773294,9.68820991 15.293481,7.43794752 16.5091079,5.48669388 C16.5091079,5.48506122 16.5107405,5.48016327 16.5140058,5.47853061 C16.6849679,5.24179592 16.7948222,4.98920117 16.9340641,4.7300758 C17.2811195,4.1861691 17.6500991,3.67118367 17.8833353,3.1881516 L17.8833353,3.18675219 C18.1165714,3.07946356 18.0678251,2.97707289 18.1366297,2.87468222 C18.2359883,2.72121283 18.3584373,2.57404082 18.4545306,2.42850146 C18.5105073,2.34546939 18.5781458,2.26383673 18.6310904,2.18220408 C19.0371545,1.57602332 19.4093994,1.04494461 19.7165714,0.600396501 C20.1354636,0.539521866 20.5349971,0.446927114 20.893481,0.330075802 C20.8948805,0.328443149 20.8995452,0.328443149 20.8995452,0.328443149 C21.0243265,0.288559767 21.1451429,0.242145773 21.2603615,0.197364431 C21.3387289,0.165411079 21.4189621,0.131825073 21.4956968,0.0949737609 L22.3659009,2.36786006 L23.471207,5.25159184 L27.5754636,14.6351487 L27.7338309,14.9950321 C27.7993703,15.193516 27.8329563,15.4062274 27.8329563,15.6268688" id="Fill-35" fill="#DC1F26" mask="url(#mask-12)"></path>
                    </g>
                </g>
            </g>
            <g id="black-logo" transform="translate(30.000000, 276.000000)">
                <path d="M93.7043732,30.4251895 L82.6058309,58.0517784 L104.803382,58.0517784 L93.7043732,30.4251895 Z M89.7913703,22.9191837 L98.1769096,22.9191837 L121.732595,78.6546939 L113.029388,78.6546939 L107.357551,64.5977843 L80.0497959,64.5977843 L74.3805248,78.6546939 L65.9949854,78.6546939 L89.7913703,22.9191837 Z" id="Fill-1" fill="#000000"></path>
                <g id="Group-34" stroke-width="1" transform="translate(0.000000, 0.160233)">
                    <path d="M124.32688,37.7698659 L131.356152,37.7698659 L131.356152,43.6779708 L131.514519,43.6779708 C134.390087,38.968 138.461458,36.8131312 144.450262,36.8131312 C149.161399,36.8131312 153.872536,39.2052012 156.028805,44.7177376 C158.82484,38.8877668 164.972245,36.8131312 168.645948,36.8131312 C179.026589,36.8131312 182.777259,43.5196035 182.777259,52.3814111 L182.777259,78.4942974 L175.272187,78.4942974 L175.272187,54.218379 C175.272187,49.1870087 174.075452,42.8812362 168.007347,42.8812362 C160.341341,42.8812362 157.306706,50.3860758 157.306706,57.9739475 L157.306706,78.4942974 L149.798601,78.4942974 L149.798601,54.218379 C149.798601,49.1870087 148.601633,42.8812362 142.534461,42.8812362 C134.868921,42.8812362 131.834286,50.3860758 131.834286,57.9739475 L131.834286,78.4942974 L124.32688,78.4942974 L124.32688,37.7698659 Z" id="Fill-2" fill="#000000"></path>
                    <path d="M205.851685,42.8813528 C197.706379,42.8813528 193.795009,50.6275918 193.795009,58.2138309 C193.795009,64.9993703 197.306612,73.3802449 205.770985,73.3802449 C213.835125,73.3802449 217.190227,64.3610029 217.029528,57.9738309 C217.190227,50.6275918 213.996525,42.8813528 205.851685,42.8813528 L205.851685,42.8813528 Z M186.287603,18.6061341 L193.795009,18.6061341 L193.795009,43.3594869 L193.951977,43.3594869 C196.269178,39.6053178 200.342181,36.8132478 207.448187,36.8132478 C219.268128,36.8132478 225.013668,46.4741224 225.013668,57.4140641 C225.013668,68.5907405 219.822764,79.4518484 207.528187,79.4518484 C200.261714,79.4518484 195.63151,75.7774461 193.633843,72.7430437 L193.474076,72.7430437 L193.474076,78.494414 L186.287603,78.494414 L186.287603,18.6061341 Z" id="Fill-4" fill="#000000"></path>
                    <path d="M253.612478,59.0895627 C252.017843,59.0895627 250.420641,58.9293294 248.821574,58.9293294 C244.749038,58.9293294 234.689563,59.5669971 234.689563,66.7530029 C234.689563,71.0667055 238.842332,73.3801749 242.273469,73.3801749 C249.700875,73.3801749 253.612478,68.7513703 253.612478,62.6846647 L253.612478,59.0895627 Z M231.335627,40.6452478 C235.08723,38.4071137 239.557901,36.8131778 244.749038,36.8131778 C256.404781,36.8131778 261.121983,42.5598834 261.121983,53.6595918 L261.121983,70.5076385 C261.121983,75.1418076 261.278717,77.2990087 261.439417,78.494344 L254.411545,78.494344 L254.411545,73.2239067 L254.253178,73.2239067 C252.495743,75.6966764 248.503207,79.4520117 241.636501,79.4520117 C232.852595,79.4520117 226.705889,75.6220408 226.705889,66.7530029 C226.705889,56.5332945 237.883499,53.3412245 245.628105,53.3412245 C248.581808,53.3412245 250.658076,53.3412245 253.612478,53.5014577 C253.612478,46.4740525 251.058776,42.8812828 243.553703,42.8812828 C239.32,42.8812828 234.770029,44.4768513 231.732828,47.0331195 L231.335627,40.6452478 Z" id="Fill-6" fill="#000000"></path>
                    <path d="M265.453318,70.5076385 C268.405854,72.4283382 272.638391,73.3801749 274.793959,73.3801749 C278.228362,73.3801749 282.460198,71.9474052 282.460198,67.5523032 C282.460198,60.1283965 264.812152,60.7662974 264.812152,49.3477551 C264.812152,40.8833819 271.122122,36.8131778 279.185329,36.8131778 C282.698099,36.8131778 285.574601,37.531312 288.52807,38.4071137 L287.88877,44.954519 C286.212968,43.9194169 281.740431,42.8812828 279.982064,42.8812828 C276.150461,42.8812828 272.795825,44.4768513 272.795825,47.8314869 C272.795825,56.136793 290.442706,53.7414577 290.442706,66.7530029 C290.442706,75.4599417 283.495534,79.4520117 276.232093,79.4520117 C272.398391,79.4520117 268.486321,79.0520117 265.052152,77.2145773 L265.453318,70.5076385 Z" id="Fill-8" fill="#000000"></path>
                    <path d="M293.186309,70.5076385 C296.140478,72.4283382 300.374181,73.3801749 302.52905,73.3801749 C305.961586,73.3801749 310.194822,71.9474052 310.194822,67.5523032 C310.194822,60.1283965 292.545843,60.7662974 292.545843,49.3477551 C292.545843,40.8833819 298.853481,36.8131778 306.917621,36.8131778 C310.43249,36.8131778 313.308525,37.531312 316.261761,38.4071137 L315.621528,44.954519 C313.945259,43.9194169 309.473656,42.8812828 307.720653,42.8812828 C303.88695,42.8812828 300.533015,44.4768513 300.533015,47.8314869 C300.533015,56.136793 318.177096,53.7414577 318.177096,66.7530029 C318.177096,75.4599417 311.233423,79.4520117 303.965318,79.4520117 C300.132548,79.4520117 296.217213,79.0520117 292.786309,77.2145773 L293.186309,70.5076385 Z" id="Fill-10" fill="#000000"></path>
                    <path d="M347.143137,59.0895627 C345.545469,59.0895627 343.948501,58.9293294 342.349434,58.9293294 C338.277598,58.9293294 328.226985,59.5669971 328.226985,66.7530029 C328.226985,71.0667055 332.370659,73.3801749 335.802962,73.3801749 C343.229201,73.3801749 347.143137,68.7513703 347.143137,62.6846647 L347.143137,59.0895627 Z M324.87235,40.6452478 C328.625353,38.4071137 333.087394,36.8131778 338.277598,36.8131778 C349.936373,36.8131778 354.649143,42.5598834 354.649143,53.6595918 L354.649143,70.5076385 C354.649143,75.1418076 354.809609,77.2990087 354.968443,78.494344 L347.941738,78.494344 L347.941738,73.2239067 L347.781038,73.2239067 C346.027102,75.6966764 342.032,79.4520117 335.164362,79.4520117 C326.390017,79.4520117 320.240047,75.6220408 320.240047,66.7530029 C320.240047,56.5332945 331.411359,53.3412245 339.158297,53.3412245 C342.112233,53.3412245 344.186869,53.3412245 347.143137,53.5014577 C347.143137,46.4740525 344.586869,42.8812828 337.081096,42.8812828 C332.851125,42.8812828 328.30372,44.4768513 325.272117,47.0331195 L324.87235,40.6452478 Z" id="Fill-12" fill="#000000"></path>
                    <path d="M376.720397,73.3802915 C385.185703,73.3802915 388.698706,64.9994169 388.698706,58.2138776 C388.698706,50.6276385 384.785236,42.8813994 376.640863,42.8813994 C368.495324,42.8813994 365.303254,50.5450729 365.463953,57.9738776 C365.303254,64.3610496 368.656956,73.3802915 376.720397,73.3802915 L376.720397,73.3802915 Z M389.018939,72.7430904 L388.861038,72.7430904 C386.86407,75.7774927 382.233866,79.451895 374.964828,79.451895 C362.666519,79.451895 357.477714,68.5126531 357.477714,57.4141108 C357.477714,46.4741691 363.228385,36.8132945 375.046227,36.8132945 C382.149901,36.8132945 386.221971,39.6053644 388.540105,43.3595335 L388.698706,43.3595335 L388.698706,18.6061808 L396.205644,18.6061808 L396.205644,78.4944606 L389.018939,78.4944606 L389.018939,72.7430904 Z" id="Fill-14" fill="#000000"></path>
                    <path d="M419.710344,73.3802915 C428.492385,73.3802915 432.405621,65.3973178 432.405621,58.130379 C432.405621,50.3860058 427.693085,42.8813994 419.710344,42.8813994 C411.644105,42.8813994 406.933434,50.3860058 406.933434,58.130379 C406.933434,65.3973178 410.842939,73.3802915 419.710344,73.3802915 M419.710344,36.8132945 C432.083055,36.8132945 440.388362,45.7525364 440.388362,58.130379 C440.388362,69.7893878 431.927254,79.451895 419.710344,79.451895 C407.411569,79.451895 398.946729,69.7893878 398.946729,58.130379 C398.946729,45.7525364 407.251335,36.8132945 419.710344,36.8132945" id="Fill-16" fill="#000000"></path>
                    <path d="M443.959813,37.7698659 L450.986519,37.7698659 L450.986519,44.076105 L451.148152,44.076105 C453.143487,39.8468338 457.45509,36.8131312 461.765294,36.8131312 C464.003429,36.8131312 465.11923,37.0526647 466.719464,37.3686997 L466.719464,44.076105 C465.360863,43.5196035 463.840863,43.3593703 462.566461,43.3593703 C455.858122,43.3593703 451.466286,49.7477085 451.466286,59.9683499 L451.466286,78.4942974 L443.959813,78.4942974 L443.959813,37.7698659 Z" id="Fill-18" fill="#000000"></path>
                    <path d="M55.5459592,43.583277 C55.5459592,44.112723 55.3987872,44.6069504 55.1429271,45.0307405 L55.1396618,45.0370379 L54.9733644,45.2803032 L48.7037434,54.4303907 L47.6497493,55.9674169 L47.1347638,56.7177376 L44.3692828,60.7529563 L43.876688,61.472723 L40.6027522,66.2517318 C40.5547055,66.3300991 40.5066589,66.4035685 40.4490496,66.4723732 L40.4362216,66.4900991 C40.1724315,66.8098659 39.7964548,67.0354052 39.3710321,67.1058426 C39.2768047,67.1217026 39.1790787,67.1298659 39.0799534,67.1298659 C38.6258426,67.1298659 38.2132478,66.9570379 37.8995452,66.6738892 C37.8916152,66.6675918 37.8836851,66.6596618 37.8771545,66.6514985 C37.8372711,66.6083499 37.7941224,66.5635685 37.7509738,66.5187872 C37.6261924,66.3877085 37.4965131,66.2500991 37.3621691,66.1078251 C35.4092828,64.0492828 32.2538309,60.7049096 29.1524898,57.3638017 C28.639137,56.8073003 28.125551,56.2505656 27.6187289,55.7003615 C27.5210029,55.5949388 27.4202449,55.4860175 27.3227522,55.3805948 C27.1116735,55.1501574 26.996688,54.921586 26.7888746,54.694414 C25.3638017,53.1382624 23.9475918,51.6602449 23.0146472,50.403102 L23.0146472,50.4014694 C22.3149388,49.7201866 21.7955219,49.1044431 21.3556385,48.5766297 C21.1189038,48.293481 20.8597784,48.032723 20.6790204,47.8041516 C20.6773878,47.802519 20.6507988,47.8008863 20.6493994,47.797621 C20.5805948,47.7080583 20.5033936,47.6250262 20.4408863,47.5450262 C20.437621,47.5401283 20.4271254,47.5338309 20.4254927,47.5305656 C20.1952886,47.1772128 20.0562799,46.7517901 20.0562799,46.2941808 C20.0562799,45.9856093 20.1157551,45.6912653 20.2291079,45.4242099 C20.2291079,45.419312 20.2300408,45.4162799 20.2349388,45.4113819 C20.2909155,45.2947638 20.3559883,45.1713819 20.429691,45.0435685 C20.5351137,44.8532478 20.6549971,44.6533644 20.7844431,44.4420525 C20.8453178,44.3238017 20.9124898,44.2102157 20.9875918,44.1031603 C21.0274752,44.0422857 21.0675918,43.9830437 21.1123732,43.9286997 C21.1154052,43.924035 21.1170379,43.9207697 21.1219359,43.9175044 C21.3376793,43.5849096 21.5776793,43.2329563 21.835172,42.8684082 C21.9326647,42.7275335 22.0350554,42.5852595 22.1390787,42.4397201 C22.8987289,41.3840933 23.7705656,40.2389038 24.6372711,39.1098076 C25.3138892,38.2300408 25.9839767,37.363102 26.5983207,36.5570379 C26.6029854,36.5491079 26.6078834,36.5411778 26.6174461,36.5330146 C26.7886414,36.3044431 26.9579708,36.0789038 27.1212362,35.8596618 C28.1465423,34.4075335 29.0020525,32.6305073 29.6275918,30.6216443 C29.6723732,30.463277 29.7187872,30.303277 29.7682332,30.1435102 C29.7922566,30.0602449 29.776863,29.9739475 29.8041516,29.8874169 C30.6230437,27.2709738 32.1108571,24.4607114 33.2770379,21.7929563 L33.2770379,21.7913236 C34.4432187,19.819312 35.4722566,17.9270671 36.5120233,16.2461341 C36.7902741,15.796688 37.0850845,15.36007 37.3505073,14.9442099 C37.6240933,14.5204198 37.8953469,14.1173878 38.1481749,13.733481 C38.1593703,13.7143557 38.1773294,13.6966297 38.1871254,13.6775044 C38.3886414,13.371965 38.584793,13.082519 38.7685831,12.8042682 C38.8709738,12.6554636 38.9698659,12.5082915 39.0675918,12.3660175 C39.1074752,12.3051429 39.1464257,12.2459009 39.1865423,12.1885248 C39.2856676,12.0429854 39.3819942,11.9021108 39.4731895,11.7677668 C39.6266589,11.5471254 39.7691662,11.3390787 39.9002449,11.1503907 C40.3210029,11.0881166 40.7177376,10.993656 41.0792536,10.8754052 C41.204035,10.8352886 41.3239184,10.7921399 41.439137,10.7473586 C41.4997784,10.72007 41.5590204,10.6962799 41.6166297,10.6706239 L43.9662507,16.5243848 L55.2723732,42.3725481 L55.3283499,42.4973294 C55.4692245,42.8299242 55.5459592,43.1977376 55.5459592,43.583277" id="Fill-20" fill="#000000"></path>
                    <path d="M55.3588338,77.0877434 C55.3588338,78.5671603 52.1023907,79.7666939 48.08793,79.7666939 C44.0702041,79.7666939 40.8170262,78.5671603 40.8170262,77.0877434 C40.8170262,75.9297259 42.8130612,74.9429038 45.6072303,74.5701924 L43.8766181,61.4725831 L44.3692128,60.7530496 L47.1346939,56.7175977 L47.6496793,55.9675102 L50.0984257,74.5125831 C53.1356268,74.8342157 55.3588338,75.8674519 55.3588338,77.0877434" id="Fill-22" fill="#000000"></path>
                    <g id="Group-26" transform="translate(36.151603, 0.000000)">
                        <mask id="mask-14" fill="white">
                            <use xlink:href="#path-13"></use>
                        </mask>
                        <g id="Clip-25"></g>
                        <path d="M5.46507289,10.6706006 C5.40746356,10.6962566 5.34822157,10.7202799 5.28758017,10.7473353 C5.17236152,10.7921166 5.05247813,10.8352653 4.92769679,10.8753819 C4.56618076,10.9936327 4.16944606,11.0880933 3.74892128,11.1503673 C3.61784257,11.3390554 3.47533528,11.547102 3.32186589,11.7677434 C3.23067055,11.9020875 3.1348105,12.0429621 3.0354519,12.1885015 C2.99556851,12.2461108 2.95708455,12.3051195 2.91720117,12.3659942 C2.81970845,12.5082682 2.72198251,12.6554402 2.61982507,12.8042449 C2.43580175,13.0824956 2.24221574,13.3719417 2.04069971,13.677481 C2.03113703,13.6966064 2.01830904,13.7143324 2.0071137,13.7334577 C1.75451895,14.1173644 1.49376093,14.5203965 1.22017493,14.9441866 C1.57212828,14.2101924 1.79113703,13.400863 1.85037901,12.5483848 L1.66495627,11.1536327 C1.2619242,11.0864606 0.914868805,10.9745073 0.642915452,10.8257026 C0.28606414,10.6386472 0.0607580175,10.3874519 0.0222740525,10.0900758 C0.00151603499,9.9268105 0.0367346939,9.76377843 0.124664723,9.60214577 C0.209329446,9.44377843 0.342274052,9.28867638 0.518134111,9.14150437 L0.657142857,7.53730612 L0.866822157,5.10138776 L0.994635569,3.62523615 L1.23300292,0.867685131 C1.27778426,0.423137026 1.656793,0.0728163265 2.11440233,0.0728163265 C2.44373178,0.0728163265 2.73014577,0.251941691 2.88361516,0.519230321 L2.97644315,0.754332362 L3.94880466,3.2268688 L5.4522449,7.04307872 L5.9625656,8.33707289 C6.06798834,8.38022157 6.16408163,8.42826822 6.25364431,8.47631487 C6.58623907,8.66500292 6.79428571,8.90803499 6.83253644,9.19281633 C6.90297376,9.72692711 6.35440233,10.2754985 5.46507289,10.6706006" id="Fill-24" fill="#000000" mask="url(#mask-14)"></path>
                    </g>
                    <path d="M35.1806414,77.0365714 C35.1806414,78.517621 31.9241983,79.7187872 27.9097376,79.7187872 C23.8920117,79.7187872 20.6388338,78.517621 20.6388338,77.0365714 C20.6388338,75.8913819 22.5980175,74.9124898 25.3523032,74.5318484 L23.6328863,61.5175044 L24.1910204,60.703277 L26.0576093,57.9795452 C26.4783673,58.4289913 26.8939942,58.8768047 27.3068222,59.321586 L27.3163848,59.3901574 C27.3739942,59.4253761 27.4283382,59.4638601 27.4810496,59.5070087 C27.5689796,59.603102 27.6569096,59.6973294 27.7450729,59.7917901 C27.8474636,59.9324315 27.9909038,60.0940641 28.0340525,60.2682915 L28.1457726,60.6265423 L28.1457726,60.6314402 L29.9069388,74.4551137 C32.9858892,74.7685831 35.1806414,75.8050845 35.1806414,77.0365714" id="Fill-27" fill="#000000"></path>
                    <path d="M21.4960933,10.5906239 C21.4193586,10.6274752 21.3393586,10.6610612 21.2609913,10.6930146 C21.1457726,10.7377959 21.0258892,10.7842099 20.9011079,10.8240933 L20.8899125,10.7410612 C20.8899125,10.7697493 20.8915452,10.7984373 20.8962099,10.8257259 C20.5379592,10.9425773 20.1414577,11.035172 19.7223324,11.0960466 C19.4151603,11.5405948 19.0489796,12.0716735 18.6426822,12.6778542 C18.5899708,12.7594869 18.5339942,12.8408863 18.4780175,12.9241516 C18.3821574,13.069691 18.2359184,13.216863 18.136793,13.3703324 C18.0679883,13.472723 18.1167347,13.5751137 17.8834985,13.6821691 L17.8834985,13.6838017 C17.6502624,14.1668338 17.2810496,14.6818192 16.9339942,15.2257259 C17.4361516,14.2916152 17.7428571,13.2231603 17.7428571,12.0877668 L17.6264723,11.1009446 C16.7005248,10.9456093 16.0602915,10.5603032 15.9898542,10.0387872 C15.9690962,9.8757551 16.0087464,9.70945773 16.0950437,9.54782507 C16.1815743,9.39109038 16.3156851,9.23598834 16.4901458,9.09044898 L16.6284548,7.48625073 L16.8381341,5.05662974 L16.966414,3.66001166 L17.2047813,1.01441399 L17.2080466,1.01441399 C17.2544606,0.547941691 17.6288047,0.138145773 18.0812828,0.138145773 C18.4460641,0.138145773 18.7562682,0.315172012 18.8906122,0.630274052 L18.9018076,0.603451895 L19.9222157,3.18677551 L21.4240233,6.99738776 L21.9359767,8.2918484 C22.04,8.33173178 22.1374927,8.37837901 22.2254227,8.42642566 C22.5596501,8.6151137 22.7676968,8.85744606 22.8059475,9.14222741 C22.8731195,9.66374344 22.3502041,10.2004198 21.4960933,10.5906239" id="Fill-29" fill="#000000"></path>
                    <g id="Group-33" transform="translate(0.000000, 10.495627)">
                        <mask id="mask-16" fill="white">
                            <use xlink:href="#path-15"></use>
                        </mask>
                        <g id="Clip-32"></g>
                        <path d="M27.8329563,15.6268688 C27.8329563,15.6653528 27.8313236,15.7019708 27.8313236,15.7388222 C27.829691,15.7724082 27.8250262,15.8027289 27.8233936,15.8332828 C27.8217609,15.8458776 27.8184956,15.8556735 27.8184956,15.8636035 C27.8089329,15.9242449 27.8010029,15.9804548 27.7930729,16.0378309 C27.7914402,16.0427289 27.7914402,16.0459942 27.7914402,16.0506589 C27.3914402,18.563312 26.6222274,20.8184723 25.5922566,22.6307172 C25.3891079,23.1153819 24.8580292,23.9149155 24.1464257,24.8921749 C23.3611195,25.9671603 22.3582041,27.2625539 21.3361633,28.5917668 C21.1761633,28.7979475 21.0161633,29.0043615 20.8580292,29.2138076 C20.7843265,29.3099009 20.7108571,29.4073936 20.6371545,29.5032536 C19.3144723,31.2322332 18.0398367,32.9500175 17.2337726,34.2696676 C17.2337726,34.2713003 17.2305073,34.2726997 17.2288746,34.275965 C17.0961633,34.4534577 16.9858426,34.6470437 16.8962799,34.8550904 C16.8930146,34.8564898 16.8913819,34.8581224 16.8930146,34.8597551 C16.7521399,35.1939825 16.6754052,35.5620292 16.6754052,35.9457026 C16.6754052,36.524828 16.8514985,37.0605714 17.1521399,37.5067522 C17.1537726,37.5116501 17.1568047,37.5149155 17.16007,37.5195802 C17.2368047,37.6315335 17.3217026,37.7355569 17.412898,37.8363149 C17.41593,37.8363149 17.41593,37.8379475 17.4175627,37.8409796 C18.5387289,39.2182391 20.4724898,41.3950321 22.6796035,43.8148571 C22.9354636,44.0947405 23.1978542,44.3795219 23.4586122,44.6673353 C24.3061924,45.5902507 25.1826939,46.5385889 26.0575627,47.483895 L24.191207,50.2078601 L23.6328397,51.0218542 L20.4069504,55.7304257 L20.4036851,55.7369563 L20.3092245,55.8729329 L20.3078251,55.8745656 L20.2772711,55.9177143 C20.2805364,55.914449 20.2805364,55.9111837 20.2821691,55.9081516 C19.971965,56.3046531 19.4952303,56.5621458 18.9578542,56.5782391 C18.9387289,56.5815044 18.9177376,56.5815044 18.9002449,56.5815044 C18.4300408,56.5815044 18.0029854,56.397481 17.6878834,56.0935743 C17.648,56.053691 17.609516,56.0119417 17.5710321,55.968793 C17.5598367,55.960863 17.5519067,55.9529329 17.5456093,55.943137 C17.5360466,55.9305423 17.5262507,55.9177143 17.5150554,55.9032536 C17.5199534,55.909551 17.521586,55.9160816 17.5262507,55.9240117 C13.596688,51.783137 3.55237318,41.1375394 0.555055394,37.3805714 L0.559720117,37.3756735 C0.208,36.9038367 -4.66472302e-05,36.3200466 -4.66472302e-05,35.6865773 C-4.66472302e-05,35.2005131 0.124734694,34.7415044 0.342344023,34.3415044 L0.339078717,34.3384723 C1.52578426,32.2831953 4.08648397,29.0636035 6.1144723,26.4068105 C6.68869971,25.6583557 7.21814577,24.9546822 7.65966181,24.3356735 C8.30106122,23.2800466 8.84146939,22.0884431 9.25732945,20.7930496 C9.25732945,20.7914169 9.2589621,20.7897843 9.2589621,20.7848863 C9.40450146,20.3387055 9.5325481,19.8796968 9.64613411,19.4094927 C10.3850262,17.0246531 11.5173878,14.478414 12.7791953,12.0217376 C13.9773294,9.68820991 15.293481,7.43794752 16.5091079,5.48669388 C16.5091079,5.48506122 16.5107405,5.48016327 16.5140058,5.47853061 C16.6849679,5.24179592 16.7948222,4.98920117 16.9340641,4.7300758 C17.2811195,4.1861691 17.6500991,3.67118367 17.8833353,3.1881516 L17.8833353,3.18675219 C18.1165714,3.07946356 18.0678251,2.97707289 18.1366297,2.87468222 C18.2359883,2.72121283 18.3584373,2.57404082 18.4545306,2.42850146 C18.5105073,2.34546939 18.5781458,2.26383673 18.6310904,2.18220408 C19.0371545,1.57602332 19.4093994,1.04494461 19.7165714,0.600396501 C20.1354636,0.539521866 20.5349971,0.446927114 20.893481,0.330075802 C20.8948805,0.328443149 20.8995452,0.328443149 20.8995452,0.328443149 C21.0243265,0.288559767 21.1451429,0.242145773 21.2603615,0.197364431 C21.3387289,0.165411079 21.4189621,0.131825073 21.4956968,0.0949737609 L22.3659009,2.36786006 L23.471207,5.25159184 L27.5754636,14.6351487 L27.7338309,14.9950321 C27.7993703,15.193516 27.8329563,15.4062274 27.8329563,15.6268688" id="Fill-31" fill="#000000" mask="url(#mask-16)"></path>
                    </g>
                </g>
            </g>
            <g id="light-on-dark-logo" transform="translate(30.000000, 451.000000)">
                <path d="M93.7043732,30.6149971 L82.6058309,58.2427522 L104.803382,58.2427522 L93.7043732,30.6149971 Z M89.7913703,23.1082915 L98.1769096,23.1082915 L121.732595,78.8466006 L113.029388,78.8466006 L107.357551,64.7889913 L80.0497959,64.7889913 L74.3805248,78.8466006 L65.9949854,78.8466006 L89.7913703,23.1082915 Z" id="Fill-1" fill="#FFFFFF"></path>
                <g id="Group-34" stroke-width="1" transform="translate(0.000000, 0.160233)">
                    <path d="M124.32688,37.96 L131.356152,37.96 L131.356152,43.8683382 L131.514519,43.8683382 C134.390087,39.1581341 138.461458,37.0030321 144.450262,37.0030321 C149.161399,37.0030321 153.872536,39.395102 156.028805,44.908105 C158.82484,39.0779009 164.972245,37.0030321 168.645948,37.0030321 C179.026589,37.0030321 182.777259,43.7099708 182.777259,52.5722449 L182.777259,78.6862974 L175.272187,78.6862974 L175.272187,54.4092128 C175.272187,49.3776093 174.075452,43.0716035 168.007347,43.0716035 C160.341341,43.0716035 157.306706,50.5766764 157.306706,58.1650146 L157.306706,78.6862974 L149.798601,78.6862974 L149.798601,54.4092128 C149.798601,49.3776093 148.601633,43.0716035 142.534461,43.0716035 C134.868921,43.0716035 131.834286,50.5766764 131.834286,58.1650146 L131.834286,78.6862974 L124.32688,78.6862974 L124.32688,37.96 Z" id="Fill-2" fill="#FFFFFF"></path>
                    <path d="M205.851685,43.0716035 C197.706379,43.0716035 193.795009,50.818309 193.795009,58.4047813 C193.795009,65.1910204 197.306612,73.5721283 205.770985,73.5721283 C213.835125,73.5721283 217.190227,64.5524198 217.029528,58.1650146 C217.190227,50.818309 213.996525,43.0716035 205.851685,43.0716035 L205.851685,43.0716035 Z M186.287603,18.7954519 L193.795009,18.7954519 L193.795009,43.5497376 L193.951977,43.5497376 C196.269178,39.7955685 200.342181,37.0030321 207.448187,37.0030321 C219.268128,37.0030321 225.013668,46.6646064 225.013668,57.6052478 C225.013668,68.7821574 219.822764,79.6441983 207.528187,79.6441983 C200.261714,79.6441983 195.63151,75.9695627 193.633843,72.9346939 L193.474076,72.9346939 L193.474076,78.6862974 L186.287603,78.6862974 L186.287603,18.7954519 Z" id="Fill-4" fill="#FFFFFF"></path>
                    <path d="M253.612478,59.2806064 C252.017843,59.2806064 250.420641,59.1203732 248.821574,59.1203732 C244.749038,59.1203732 234.689563,59.7580408 234.689563,66.9445131 C234.689563,71.2582157 238.842332,73.5719184 242.273469,73.5719184 C249.700875,73.5719184 253.612478,68.9428805 253.612478,62.8759417 L253.612478,59.2806064 Z M231.335627,40.8353586 C235.08723,38.5972245 239.557901,37.0030554 244.749038,37.0030554 C256.404781,37.0030554 261.121983,42.7502274 261.121983,53.8506356 L261.121983,70.6993819 C261.121983,75.3337843 261.278717,77.4909854 261.439417,78.6863207 L254.411545,78.6863207 L254.411545,73.4156501 L254.253178,73.4156501 C252.495743,75.8886531 248.503207,79.6442216 241.636501,79.6442216 C232.852595,79.6442216 226.705889,75.8140175 226.705889,66.9445131 C226.705889,56.7243382 237.883499,53.5318017 245.628105,53.5318017 C248.581808,53.5318017 250.658076,53.5318017 253.612478,53.6922682 C253.612478,46.6646297 251.058776,43.0716268 243.553703,43.0716268 C239.32,43.0716268 234.770029,44.6671953 231.732828,47.2236968 L231.335627,40.8353586 Z" id="Fill-6" fill="#FFFFFF"></path>
                    <path d="M265.453318,70.6993819 C268.405854,72.6200816 272.638391,73.5719184 274.793959,73.5719184 C278.228362,73.5719184 282.460198,72.1391487 282.460198,67.7438134 C282.460198,60.3194402 264.812152,60.9575743 264.812152,49.5385656 C264.812152,41.0737259 271.122122,37.0030554 279.185329,37.0030554 C282.698099,37.0030554 285.574601,37.7214227 288.52807,38.5972245 L287.88877,45.144863 C286.212968,44.1097609 281.740431,43.0716268 279.982064,43.0716268 C276.150461,43.0716268 272.795825,44.6671953 272.795825,48.0220641 C272.795825,56.3278367 290.442706,53.9322682 290.442706,66.9445131 C290.442706,75.6519184 283.495534,79.6442216 276.232093,79.6442216 C272.398391,79.6442216 268.486321,79.2442216 265.052152,77.4065539 L265.453318,70.6993819 Z" id="Fill-8" fill="#FFFFFF"></path>
                    <path d="M293.186309,70.6993819 C296.140478,72.6200816 300.374181,73.5719184 302.52905,73.5719184 C305.961586,73.5719184 310.194822,72.1391487 310.194822,67.7438134 C310.194822,60.3194402 292.545843,60.9575743 292.545843,49.5385656 C292.545843,41.0737259 298.853481,37.0030554 306.917621,37.0030554 C310.43249,37.0030554 313.308525,37.7214227 316.261761,38.5972245 L315.621528,45.144863 C313.945259,44.1097609 309.473656,43.0716268 307.720653,43.0716268 C303.88695,43.0716268 300.533015,44.6671953 300.533015,48.0220641 C300.533015,56.3278367 318.177096,53.9322682 318.177096,66.9445131 C318.177096,75.6519184 311.233423,79.6442216 303.965318,79.6442216 C300.132548,79.6442216 296.217213,79.2442216 292.786309,77.4065539 L293.186309,70.6993819 Z" id="Fill-10" fill="#FFFFFF"></path>
                    <path d="M347.143137,59.2806064 C345.545469,59.2806064 343.948501,59.1203732 342.349434,59.1203732 C338.277598,59.1203732 328.226985,59.7580408 328.226985,66.9445131 C328.226985,71.2582157 332.370659,73.5719184 335.802962,73.5719184 C343.229201,73.5719184 347.143137,68.9428805 347.143137,62.8759417 L347.143137,59.2806064 Z M324.87235,40.8353586 C328.625353,38.5972245 333.087394,37.0030554 338.277598,37.0030554 C349.936373,37.0030554 354.649143,42.7502274 354.649143,53.8506356 L354.649143,70.6993819 C354.649143,75.3337843 354.809609,77.4909854 354.968443,78.6863207 L347.941738,78.6863207 L347.941738,73.4156501 L347.781038,73.4156501 C346.027102,75.8886531 342.032,79.6442216 335.164362,79.6442216 C326.390017,79.6442216 320.240047,75.8140175 320.240047,66.9445131 C320.240047,56.7243382 331.411359,53.5318017 339.158297,53.5318017 C342.112233,53.5318017 344.186869,53.5318017 347.143137,53.6922682 C347.143137,46.6646297 344.586869,43.0716268 337.081096,43.0716268 C332.851125,43.0716268 328.30372,44.6671953 325.272117,47.2236968 L324.87235,40.8353586 Z" id="Fill-12" fill="#FFFFFF"></path>
                    <path d="M376.720397,73.5720117 C385.185703,73.5720117 388.698706,65.1909038 388.698706,58.404898 C388.698706,50.8181924 384.785236,43.0714869 376.640863,43.0714869 C368.495324,43.0714869 365.303254,50.7358601 365.463953,58.164898 C365.303254,64.5523032 368.656956,73.5720117 376.720397,73.5720117 L376.720397,73.5720117 Z M389.018939,72.9348105 L388.861038,72.9348105 C386.86407,75.9694461 382.233866,79.6440816 374.964828,79.6440816 C362.666519,79.6440816 357.477714,68.7041399 357.477714,57.6051312 C357.477714,46.664723 363.228385,37.0031487 375.046227,37.0031487 C382.149901,37.0031487 386.221971,39.7956851 388.540105,43.549621 L388.698706,43.549621 L388.698706,18.7955685 L396.205644,18.7955685 L396.205644,78.686414 L389.018939,78.686414 L389.018939,72.9348105 Z" id="Fill-14" fill="#FFFFFF"></path>
                    <path d="M419.710344,73.5720117 C428.492385,73.5720117 432.405621,65.5888047 432.405621,58.3213994 C432.405621,50.5765598 427.693085,43.0714869 419.710344,43.0714869 C411.644105,43.0714869 406.933434,50.5765598 406.933434,58.3213994 C406.933434,65.5888047 410.842939,73.5720117 419.710344,73.5720117 M419.710344,37.0031487 C432.083055,37.0031487 440.388362,45.9428571 440.388362,58.3213994 C440.388362,69.9811079 431.927254,79.6440816 419.710344,79.6440816 C407.411569,79.6440816 398.946729,69.9811079 398.946729,58.3213994 C398.946729,45.9428571 407.251335,37.0031487 419.710344,37.0031487" id="Fill-16" fill="#FFFFFF"></path>
                    <path d="M443.959813,37.96 L450.986519,37.96 L450.986519,44.2664723 L451.148152,44.2664723 C453.143487,40.0369679 457.45509,37.0030321 461.765294,37.0030321 C464.003429,37.0030321 465.11923,37.2427988 466.719464,37.5588338 L466.719464,44.2664723 C465.360863,43.7099708 463.840863,43.5497376 462.566461,43.5497376 C455.858122,43.5497376 451.466286,49.938309 451.466286,60.1594169 L451.466286,78.6862974 L443.959813,78.6862974 L443.959813,37.96 Z" id="Fill-18" fill="#FFFFFF"></path>
                    <path d="M55.5459592,43.583277 C55.5459592,44.112723 55.3987872,44.6069504 55.1429271,45.0307405 L55.1396618,45.0370379 L54.9733644,45.2803032 L48.7037434,54.4303907 L47.6497493,55.9674169 L47.1347638,56.7177376 L44.3692828,60.7529563 L43.876688,61.472723 L40.6027522,66.2517318 C40.5547055,66.3300991 40.5066589,66.4035685 40.4490496,66.4723732 L40.4362216,66.4900991 C40.1724315,66.8098659 39.7964548,67.0354052 39.3710321,67.1058426 C39.2768047,67.1217026 39.1790787,67.1298659 39.0799534,67.1298659 C38.6258426,67.1298659 38.2132478,66.9570379 37.8995452,66.6738892 C37.8916152,66.6675918 37.8836851,66.6596618 37.8771545,66.6514985 C37.8372711,66.6083499 37.7941224,66.5635685 37.7509738,66.5187872 C37.6261924,66.3877085 37.4965131,66.2500991 37.3621691,66.1078251 C35.4092828,64.0492828 32.2538309,60.7049096 29.1524898,57.3638017 C28.639137,56.8073003 28.125551,56.2505656 27.6187289,55.7003615 C27.5210029,55.5949388 27.4202449,55.4860175 27.3227522,55.3805948 C27.1116735,55.1501574 26.996688,54.921586 26.7888746,54.694414 C25.3638017,53.1382624 23.9475918,51.6602449 23.0146472,50.403102 L23.0146472,50.4014694 C22.3149388,49.7201866 21.7955219,49.1044431 21.3556385,48.5766297 C21.1189038,48.293481 20.8597784,48.032723 20.6790204,47.8041516 C20.6773878,47.802519 20.6507988,47.8008863 20.6493994,47.797621 C20.5805948,47.7080583 20.5033936,47.6250262 20.4408863,47.5450262 C20.437621,47.5401283 20.4271254,47.5338309 20.4254927,47.5305656 C20.1952886,47.1772128 20.0562799,46.7517901 20.0562799,46.2941808 C20.0562799,45.9856093 20.1157551,45.6912653 20.2291079,45.4242099 C20.2291079,45.419312 20.2300408,45.4162799 20.2349388,45.4113819 C20.2909155,45.2947638 20.3559883,45.1713819 20.429691,45.0435685 C20.5351137,44.8532478 20.6549971,44.6533644 20.7844431,44.4420525 C20.8453178,44.3238017 20.9124898,44.2102157 20.9875918,44.1031603 C21.0274752,44.0422857 21.0675918,43.9830437 21.1123732,43.9286997 C21.1154052,43.924035 21.1170379,43.9207697 21.1219359,43.9175044 C21.3376793,43.5849096 21.5776793,43.2329563 21.835172,42.8684082 C21.9326647,42.7275335 22.0350554,42.5852595 22.1390787,42.4397201 C22.8987289,41.3840933 23.7705656,40.2389038 24.6372711,39.1098076 C25.3138892,38.2300408 25.9839767,37.363102 26.5983207,36.5570379 C26.6029854,36.5491079 26.6078834,36.5411778 26.6174461,36.5330146 C26.7886414,36.3044431 26.9579708,36.0789038 27.1212362,35.8596618 C28.1465423,34.4075335 29.0020525,32.6305073 29.6275918,30.6216443 C29.6723732,30.463277 29.7187872,30.303277 29.7682332,30.1435102 C29.7922566,30.0602449 29.776863,29.9739475 29.8041516,29.8874169 C30.6230437,27.2709738 32.1108571,24.4607114 33.2770379,21.7929563 L33.2770379,21.7913236 C34.4432187,19.819312 35.4722566,17.9270671 36.5120233,16.2461341 C36.7902741,15.796688 37.0850845,15.36007 37.3505073,14.9442099 C37.6240933,14.5204198 37.8953469,14.1173878 38.1481749,13.733481 C38.1593703,13.7143557 38.1773294,13.6966297 38.1871254,13.6775044 C38.3886414,13.371965 38.584793,13.082519 38.7685831,12.8042682 C38.8709738,12.6554636 38.9698659,12.5082915 39.0675918,12.3660175 C39.1074752,12.3051429 39.1464257,12.2459009 39.1865423,12.1885248 C39.2856676,12.0429854 39.3819942,11.9021108 39.4731895,11.7677668 C39.6266589,11.5471254 39.7691662,11.3390787 39.9002449,11.1503907 C40.3210029,11.0881166 40.7177376,10.993656 41.0792536,10.8754052 C41.204035,10.8352886 41.3239184,10.7921399 41.439137,10.7473586 C41.4997784,10.72007 41.5590204,10.6962799 41.6166297,10.6706239 L43.9662507,16.5243848 L55.2723732,42.3725481 L55.3283499,42.4973294 C55.4692245,42.8299242 55.5459592,43.1977376 55.5459592,43.583277" id="Fill-20" fill="#05A6CC"></path>
                    <path d="M55.3588338,77.0877434 C55.3588338,78.5671603 52.1023907,79.7666939 48.08793,79.7666939 C44.0702041,79.7666939 40.8170262,78.5671603 40.8170262,77.0877434 C40.8170262,75.9297259 42.8130612,74.9429038 45.6072303,74.5701924 L43.8766181,61.4725831 L44.3692128,60.7530496 L47.1346939,56.7175977 L47.6496793,55.9675102 L50.0984257,74.5125831 C53.1356268,74.8342157 55.3588338,75.8674519 55.3588338,77.0877434" id="Fill-22" fill="#E8E8E8"></path>
                    <g id="Group-26" transform="translate(36.151603, 0.000000)">
                        <mask id="mask-18" fill="white">
                            <use xlink:href="#path-17"></use>
                        </mask>
                        <g id="Clip-25"></g>
                        <path d="M5.46507289,10.6706006 C5.40746356,10.6962566 5.34822157,10.7202799 5.28758017,10.7473353 C5.17236152,10.7921166 5.05247813,10.8352653 4.92769679,10.8753819 C4.56618076,10.9936327 4.16944606,11.0880933 3.74892128,11.1503673 C3.61784257,11.3390554 3.47533528,11.547102 3.32186589,11.7677434 C3.23067055,11.9020875 3.1348105,12.0429621 3.0354519,12.1885015 C2.99556851,12.2461108 2.95708455,12.3051195 2.91720117,12.3659942 C2.81970845,12.5082682 2.72198251,12.6554402 2.61982507,12.8042449 C2.43580175,13.0824956 2.24221574,13.3719417 2.04069971,13.677481 C2.03113703,13.6966064 2.01830904,13.7143324 2.0071137,13.7334577 C1.75451895,14.1173644 1.49376093,14.5203965 1.22017493,14.9441866 C1.57212828,14.2101924 1.79113703,13.400863 1.85037901,12.5483848 L1.66495627,11.1536327 C1.2619242,11.0864606 0.914868805,10.9745073 0.642915452,10.8257026 C0.28606414,10.6386472 0.0607580175,10.3874519 0.0222740525,10.0900758 C0.00151603499,9.9268105 0.0367346939,9.76377843 0.124664723,9.60214577 C0.209329446,9.44377843 0.342274052,9.28867638 0.518134111,9.14150437 L0.657142857,7.53730612 L0.866822157,5.10138776 L0.994635569,3.62523615 L1.23300292,0.867685131 C1.27778426,0.423137026 1.656793,0.0728163265 2.11440233,0.0728163265 C2.44373178,0.0728163265 2.73014577,0.251941691 2.88361516,0.519230321 L2.97644315,0.754332362 L3.94880466,3.2268688 L5.4522449,7.04307872 L5.9625656,8.33707289 C6.06798834,8.38022157 6.16408163,8.42826822 6.25364431,8.47631487 C6.58623907,8.66500292 6.79428571,8.90803499 6.83253644,9.19281633 C6.90297376,9.72692711 6.35440233,10.2754985 5.46507289,10.6706006" id="Fill-24" fill="#E8E8E8" mask="url(#mask-18)"></path>
                    </g>
                    <path d="M35.1806414,77.0365714 C35.1806414,78.517621 31.9241983,79.7187872 27.9097376,79.7187872 C23.8920117,79.7187872 20.6388338,78.517621 20.6388338,77.0365714 C20.6388338,75.8913819 22.5980175,74.9124898 25.3523032,74.5318484 L23.6328863,61.5175044 L24.1910204,60.703277 L26.0576093,57.9795452 C26.4783673,58.4289913 26.8939942,58.8768047 27.3068222,59.321586 L27.3163848,59.3901574 C27.3739942,59.4253761 27.4283382,59.4638601 27.4810496,59.5070087 C27.5689796,59.603102 27.6569096,59.6973294 27.7450729,59.7917901 C27.8474636,59.9324315 27.9909038,60.0940641 28.0340525,60.2682915 L28.1457726,60.6265423 L28.1457726,60.6314402 L29.9069388,74.4551137 C32.9858892,74.7685831 35.1806414,75.8050845 35.1806414,77.0365714" id="Fill-27" fill="#E8E8E8"></path>
                    <path d="M21.4960933,10.5906239 C21.4193586,10.6274752 21.3393586,10.6610612 21.2609913,10.6930146 C21.1457726,10.7377959 21.0258892,10.7842099 20.9011079,10.8240933 L20.8899125,10.7410612 C20.8899125,10.7697493 20.8915452,10.7984373 20.8962099,10.8257259 C20.5379592,10.9425773 20.1414577,11.035172 19.7223324,11.0960466 C19.4151603,11.5405948 19.0489796,12.0716735 18.6426822,12.6778542 C18.5899708,12.7594869 18.5339942,12.8408863 18.4780175,12.9241516 C18.3821574,13.069691 18.2359184,13.216863 18.136793,13.3703324 C18.0679883,13.472723 18.1167347,13.5751137 17.8834985,13.6821691 L17.8834985,13.6838017 C17.6502624,14.1668338 17.2810496,14.6818192 16.9339942,15.2257259 C17.4361516,14.2916152 17.7428571,13.2231603 17.7428571,12.0877668 L17.6264723,11.1009446 C16.7005248,10.9456093 16.0602915,10.5603032 15.9898542,10.0387872 C15.9690962,9.8757551 16.0087464,9.70945773 16.0950437,9.54782507 C16.1815743,9.39109038 16.3156851,9.23598834 16.4901458,9.09044898 L16.6284548,7.48625073 L16.8381341,5.05662974 L16.966414,3.63272303 L17.2047813,0.959603499 L17.2080466,0.959603499 C17.2544606,0.493131195 17.6288047,0.110857143 18.0812828,0.110857143 C18.4460641,0.110857143 18.7562682,0.301411079 18.8906122,0.61651312 L18.9018076,0.596688047 L19.9222157,3.18327697 L21.4240233,6.9957551 L21.9359767,8.29091545 C22.04,8.33103207 22.1374927,8.37791254 22.2254227,8.42595918 C22.5596501,8.61464723 22.7676968,8.85721283 22.8059475,9.14199417 C22.8731195,9.6635102 22.3502041,10.2004198 21.4960933,10.5906239" id="Fill-29" fill="#E8E8E8"></path>
                    <g id="Group-33" transform="translate(0.000000, 10.495627)">
                        <mask id="mask-20" fill="white">
                            <use xlink:href="#path-19"></use>
                        </mask>
                        <g id="Clip-32"></g>
                        <path d="M27.8329563,15.6268688 C27.8329563,15.6653528 27.8313236,15.7019708 27.8313236,15.7388222 C27.829691,15.7724082 27.8250262,15.8027289 27.8233936,15.8332828 C27.8217609,15.8458776 27.8184956,15.8556735 27.8184956,15.8636035 C27.8089329,15.9242449 27.8010029,15.9804548 27.7930729,16.0378309 C27.7914402,16.0427289 27.7914402,16.0459942 27.7914402,16.0506589 C27.3914402,18.563312 26.6222274,20.8184723 25.5922566,22.6307172 C25.3891079,23.1153819 24.8580292,23.9149155 24.1464257,24.8921749 C23.3611195,25.9671603 22.3582041,27.2625539 21.3361633,28.5917668 C21.1761633,28.7979475 21.0161633,29.0043615 20.8580292,29.2138076 C20.7843265,29.3099009 20.7108571,29.4073936 20.6371545,29.5032536 C19.3144723,31.2322332 18.0398367,32.9500175 17.2337726,34.2696676 C17.2337726,34.2713003 17.2305073,34.2726997 17.2288746,34.275965 C17.0961633,34.4534577 16.9858426,34.6470437 16.8962799,34.8550904 C16.8930146,34.8564898 16.8913819,34.8581224 16.8930146,34.8597551 C16.7521399,35.1939825 16.6754052,35.5620292 16.6754052,35.9457026 C16.6754052,36.524828 16.8514985,37.0605714 17.1521399,37.5067522 C17.1537726,37.5116501 17.1568047,37.5149155 17.16007,37.5195802 C17.2368047,37.6315335 17.3217026,37.7355569 17.412898,37.8363149 C17.41593,37.8363149 17.41593,37.8379475 17.4175627,37.8409796 C18.5387289,39.2182391 20.4724898,41.3950321 22.6796035,43.8148571 C22.9354636,44.0947405 23.1978542,44.3795219 23.4586122,44.6673353 C24.3061924,45.5902507 25.1826939,46.5385889 26.0575627,47.483895 L24.191207,50.2078601 L23.6328397,51.0218542 L20.4069504,55.7304257 L20.4036851,55.7369563 L20.3092245,55.8729329 L20.3078251,55.8745656 L20.2772711,55.9177143 C20.2805364,55.914449 20.2805364,55.9111837 20.2821691,55.9081516 C19.971965,56.3046531 19.4952303,56.5621458 18.9578542,56.5782391 C18.9387289,56.5815044 18.9177376,56.5815044 18.9002449,56.5815044 C18.4300408,56.5815044 18.0029854,56.397481 17.6878834,56.0935743 C17.648,56.053691 17.609516,56.0119417 17.5710321,55.968793 C17.5598367,55.960863 17.5519067,55.9529329 17.5456093,55.943137 C17.5360466,55.9305423 17.5262507,55.9177143 17.5150554,55.9032536 C17.5199534,55.909551 17.521586,55.9160816 17.5262507,55.9240117 C13.596688,51.783137 3.55237318,41.1375394 0.555055394,37.3805714 L0.559720117,37.3756735 C0.208,36.9038367 -4.66472302e-05,36.3200466 -4.66472302e-05,35.6865773 C-4.66472302e-05,35.2005131 0.124734694,34.7415044 0.342344023,34.3415044 L0.339078717,34.3384723 C1.52578426,32.2831953 4.08648397,29.0636035 6.1144723,26.4068105 C6.68869971,25.6583557 7.21814577,24.9546822 7.65966181,24.3356735 C8.30106122,23.2800466 8.84146939,22.0884431 9.25732945,20.7930496 C9.25732945,20.7914169 9.2589621,20.7897843 9.2589621,20.7848863 C9.40450146,20.3387055 9.5325481,19.8796968 9.64613411,19.4094927 C10.3850262,17.0246531 11.5173878,14.478414 12.7791953,12.0217376 C13.9773294,9.68820991 15.293481,7.43794752 16.5091079,5.48669388 C16.5091079,5.48506122 16.5107405,5.48016327 16.5140058,5.47853061 C16.6849679,5.24179592 16.7948222,4.98920117 16.9340641,4.7300758 C17.2811195,4.1861691 17.6500991,3.67118367 17.8833353,3.1881516 L17.8833353,3.18675219 C18.1165714,3.07946356 18.0678251,2.97707289 18.1366297,2.87468222 C18.2359883,2.72121283 18.3584373,2.57404082 18.4545306,2.42850146 C18.5105073,2.34546939 18.5781458,2.26383673 18.6310904,2.18220408 C19.0371545,1.57602332 19.4093994,1.04494461 19.7165714,0.600396501 C20.1354636,0.539521866 20.5349971,0.446927114 20.893481,0.330075802 C20.8948805,0.328443149 20.8995452,0.328443149 20.8995452,0.328443149 C21.0243265,0.288559767 21.1451429,0.242145773 21.2603615,0.197364431 C21.3387289,0.165411079 21.4189621,0.131825073 21.4956968,0.0949737609 L22.3659009,2.36786006 L23.471207,5.25159184 L27.5754636,14.6351487 L27.7338309,14.9950321 C27.7993703,15.193516 27.8329563,15.4062274 27.8329563,15.6268688" id="Fill-31" fill="#DC1F26" mask="url(#mask-20)"></path>
                    </g>
                </g>
            </g>
            <g id="Page-1" transform="translate(30.000000, 591.000000)">
                <path d="M93.7043732,30.3753703 L82.6058309,58.0031254 L104.803382,58.0031254 L93.7043732,30.3753703 Z M89.7913703,22.8686647 L98.1769096,22.8686647 L121.732595,78.6069738 L113.029388,78.6069738 L107.357551,64.5493644 L80.0497959,64.5493644 L74.3805248,78.6069738 L65.9949854,78.6069738 L89.7913703,22.8686647 Z" id="Fill-1" fill="#FFFFFF"></path>
                <g id="Group-34" stroke-width="1" transform="translate(0.000000, 0.160233)">
                    <path d="M124.32688,37.7203732 L131.356152,37.7203732 L131.356152,43.6287114 L131.514519,43.6287114 C134.390087,38.9185073 138.461458,36.7634052 144.450262,36.7634052 C149.161399,36.7634052 153.872536,39.1554752 156.028805,44.6684781 C158.82484,38.8382741 164.972245,36.7634052 168.645948,36.7634052 C179.026589,36.7634052 182.777259,43.470344 182.777259,52.3326181 L182.777259,78.4466706 L175.272187,78.4466706 L175.272187,54.169586 C175.272187,49.1379825 174.075452,42.8319767 168.007347,42.8319767 C160.341341,42.8319767 157.306706,50.3370496 157.306706,57.9253878 L157.306706,78.4466706 L149.798601,78.4466706 L149.798601,54.169586 C149.798601,49.1379825 148.601633,42.8319767 142.534461,42.8319767 C134.868921,42.8319767 131.834286,50.3370496 131.834286,57.9253878 L131.834286,78.4466706 L124.32688,78.4466706 L124.32688,37.7203732 Z" id="Fill-2" fill="#FFFFFF"></path>
                    <path d="M205.851685,42.8319767 C197.706379,42.8319767 193.795009,50.5786822 193.795009,58.1651545 C193.795009,64.9513936 197.306612,73.3322682 205.770985,73.3322682 C213.835125,73.3322682 217.190227,64.312793 217.029528,57.9253878 C217.190227,50.5786822 213.996525,42.8319767 205.851685,42.8319767 L205.851685,42.8319767 Z M186.287603,18.5558251 L193.795009,18.5558251 L193.795009,43.3101108 L193.951977,43.3101108 C196.269178,39.5559417 200.342181,36.7634052 207.448187,36.7634052 C219.268128,36.7634052 225.013668,46.4249796 225.013668,57.3653878 C225.013668,68.5425306 219.822764,79.4045714 207.528187,79.4045714 C200.261714,79.4045714 195.63151,75.7299359 193.633843,72.6950671 L193.474076,72.6950671 L193.474076,78.4466706 L186.287603,78.4466706 L186.287603,18.5558251 Z" id="Fill-4" fill="#FFFFFF"></path>
                    <path d="M253.612478,59.0409796 C252.017843,59.0409796 250.420641,58.8807464 248.821574,58.8807464 C244.749038,58.8807464 234.689563,59.518414 234.689563,66.7048863 C234.689563,71.0185889 238.842332,73.3322915 242.273469,73.3322915 C249.700875,73.3322915 253.612478,68.7032536 253.612478,62.6363149 L253.612478,59.0409796 Z M231.335627,40.5957318 C235.08723,38.3575977 239.557901,36.7634286 244.749038,36.7634286 C256.404781,36.7634286 261.121983,42.5106006 261.121983,53.6110087 L261.121983,70.4597551 C261.121983,75.0941574 261.278717,77.2513586 261.439417,78.4466939 L254.411545,78.4466939 L254.411545,73.1760233 L254.253178,73.1760233 C252.495743,75.6490262 248.503207,79.4045948 241.636501,79.4045948 C232.852595,79.4045948 226.705889,75.5743907 226.705889,66.7048863 C226.705889,56.4847114 237.883499,53.2924082 245.628105,53.2924082 C248.581808,53.2924082 250.658076,53.2924082 253.612478,53.4526414 C253.612478,46.4250029 251.058776,42.832 243.553703,42.832 C239.32,42.832 234.770029,44.4275685 231.732828,46.98407 L231.335627,40.5957318 Z" id="Fill-6" fill="#FFFFFF"></path>
                    <path d="M265.453318,70.4597551 C268.405854,72.3804548 272.638391,73.3322915 274.793959,73.3322915 C278.228362,73.3322915 282.460198,71.8995219 282.460198,67.5041866 C282.460198,60.0798134 264.812152,60.7179475 264.812152,49.2989388 C264.812152,40.8340991 271.122122,36.7634286 279.185329,36.7634286 C282.698099,36.7634286 285.574601,37.4820292 288.52807,38.3575977 L287.88877,44.9052362 C286.212968,43.8701341 281.740431,42.832 279.982064,42.832 C276.150461,42.832 272.795825,44.4275685 272.795825,47.7826706 C272.795825,56.0882099 290.442706,53.6926414 290.442706,66.7048863 C290.442706,75.4122915 283.495534,79.4045948 276.232093,79.4045948 C272.398391,79.4045948 268.486321,79.0045948 265.052152,77.1669271 L265.453318,70.4597551 Z" id="Fill-8" fill="#FFFFFF"></path>
                    <path d="M293.186309,70.4597551 C296.140478,72.3804548 300.374181,73.3322915 302.52905,73.3322915 C305.961586,73.3322915 310.194822,71.8995219 310.194822,67.5041866 C310.194822,60.0798134 292.545843,60.7179475 292.545843,49.2989388 C292.545843,40.8340991 298.853481,36.7634286 306.917621,36.7634286 C310.43249,36.7634286 313.308525,37.4820292 316.261761,38.3575977 L315.621528,44.9052362 C313.945259,43.8701341 309.473656,42.832 307.720653,42.832 C303.88695,42.832 300.533015,44.4275685 300.533015,47.7826706 C300.533015,56.0882099 318.177096,53.6926414 318.177096,66.7048863 C318.177096,75.4122915 311.233423,79.4045948 303.965318,79.4045948 C300.132548,79.4045948 296.217213,79.0045948 292.786309,77.1669271 L293.186309,70.4597551 Z" id="Fill-10" fill="#FFFFFF"></path>
                    <path d="M347.143137,59.0409796 C345.545469,59.0409796 343.948501,58.8807464 342.349434,58.8807464 C338.277598,58.8807464 328.226985,59.518414 328.226985,66.7048863 C328.226985,71.0185889 332.370659,73.3322915 335.802962,73.3322915 C343.229201,73.3322915 347.143137,68.7032536 347.143137,62.6363149 L347.143137,59.0409796 Z M324.87235,40.5957318 C328.625353,38.3575977 333.087394,36.7634286 338.277598,36.7634286 C349.936373,36.7634286 354.649143,42.5106006 354.649143,53.6110087 L354.649143,70.4597551 C354.649143,75.0941574 354.809609,77.2513586 354.968443,78.4466939 L347.941738,78.4466939 L347.941738,73.1760233 L347.781038,73.1760233 C346.027102,75.6490262 342.032,79.4045948 335.164362,79.4045948 C326.390017,79.4045948 320.240047,75.5743907 320.240047,66.7048863 C320.240047,56.4847114 331.411359,53.2924082 339.158297,53.2924082 C342.112233,53.2924082 344.186869,53.2924082 347.143137,53.4526414 C347.143137,46.4250029 344.586869,42.832 337.081096,42.832 C332.851125,42.832 328.30372,44.4275685 325.272117,46.98407 L324.87235,40.5957318 Z" id="Fill-12" fill="#FFFFFF"></path>
                    <path d="M376.720397,73.3323848 C385.185703,73.3323848 388.698706,64.951277 388.698706,58.1652711 C388.698706,50.5785656 384.785236,42.8320933 376.640863,42.8320933 C368.495324,42.8320933 365.303254,50.4962332 365.463953,57.9252711 C365.303254,64.3126764 368.656956,73.3323848 376.720397,73.3323848 L376.720397,73.3323848 Z M389.018939,72.6951837 L388.861038,72.6951837 C386.86407,75.7298192 382.233866,79.4044548 374.964828,79.4044548 C362.666519,79.4044548 357.477714,68.4645131 357.477714,57.3655044 C357.477714,46.4250962 363.228385,36.7635219 375.046227,36.7635219 C382.149901,36.7635219 386.221971,39.5560583 388.540105,43.3099942 L388.698706,43.3099942 L388.698706,18.5559417 L396.205644,18.5559417 L396.205644,78.4467872 L389.018939,78.4467872 L389.018939,72.6951837 Z" id="Fill-14" fill="#FFFFFF"></path>
                    <path d="M419.710344,73.3323848 C428.492385,73.3323848 432.405621,65.3494111 432.405621,58.0817726 C432.405621,50.3369329 427.693085,42.8320933 419.710344,42.8320933 C411.644105,42.8320933 406.933434,50.3369329 406.933434,58.0817726 C406.933434,65.3494111 410.842939,73.3323848 419.710344,73.3323848 M419.710344,36.7635219 C432.083055,36.7635219 440.388362,45.7032303 440.388362,58.0817726 C440.388362,69.741481 431.927254,79.4044548 419.710344,79.4044548 C407.411569,79.4044548 398.946729,69.741481 398.946729,58.0817726 C398.946729,45.7032303 407.251335,36.7635219 419.710344,36.7635219" id="Fill-16" fill="#FFFFFF"></path>
                    <path d="M443.959813,37.7203732 L450.986519,37.7203732 L450.986519,44.0268455 L451.148152,44.0268455 C453.143487,39.7973411 457.45509,36.7634052 461.765294,36.7634052 C464.003429,36.7634052 465.11923,37.003172 466.719464,37.319207 L466.719464,44.0268455 C465.360863,43.470344 463.840863,43.3101108 462.566461,43.3101108 C455.858122,43.3101108 451.466286,49.6986822 451.466286,59.9197901 L451.466286,78.4466706 L443.959813,78.4466706 L443.959813,37.7203732 Z" id="Fill-18" fill="#FFFFFF"></path>
                    <path d="M55.5459592,43.583277 C55.5459592,44.112723 55.3987872,44.6069504 55.1429271,45.0307405 L55.1396618,45.0370379 L54.9733644,45.2803032 L48.7037434,54.4303907 L47.6497493,55.9674169 L47.1347638,56.7177376 L44.3692828,60.7529563 L43.876688,61.472723 L40.6027522,66.2517318 C40.5547055,66.3300991 40.5066589,66.4035685 40.4490496,66.4723732 L40.4362216,66.4900991 C40.1724315,66.8098659 39.7964548,67.0354052 39.3710321,67.1058426 C39.2768047,67.1217026 39.1790787,67.1298659 39.0799534,67.1298659 C38.6258426,67.1298659 38.2132478,66.9570379 37.8995452,66.6738892 C37.8916152,66.6675918 37.8836851,66.6596618 37.8771545,66.6514985 C37.8372711,66.6083499 37.7941224,66.5635685 37.7509738,66.5187872 C37.6261924,66.3877085 37.4965131,66.2500991 37.3621691,66.1078251 C35.4092828,64.0492828 32.2538309,60.7049096 29.1524898,57.3638017 C28.639137,56.8073003 28.125551,56.2505656 27.6187289,55.7003615 C27.5210029,55.5949388 27.4202449,55.4860175 27.3227522,55.3805948 C27.1116735,55.1501574 26.996688,54.921586 26.7888746,54.694414 C25.3638017,53.1382624 23.9475918,51.6602449 23.0146472,50.403102 L23.0146472,50.4014694 C22.3149388,49.7201866 21.7955219,49.1044431 21.3556385,48.5766297 C21.1189038,48.293481 20.8597784,48.032723 20.6790204,47.8041516 C20.6773878,47.802519 20.6507988,47.8008863 20.6493994,47.797621 C20.5805948,47.7080583 20.5033936,47.6250262 20.4408863,47.5450262 C20.437621,47.5401283 20.4271254,47.5338309 20.4254927,47.5305656 C20.1952886,47.1772128 20.0562799,46.7517901 20.0562799,46.2941808 C20.0562799,45.9856093 20.1157551,45.6912653 20.2291079,45.4242099 C20.2291079,45.419312 20.2300408,45.4162799 20.2349388,45.4113819 C20.2909155,45.2947638 20.3559883,45.1713819 20.429691,45.0435685 C20.5351137,44.8532478 20.6549971,44.6533644 20.7844431,44.4420525 C20.8453178,44.3238017 20.9124898,44.2102157 20.9875918,44.1031603 C21.0274752,44.0422857 21.0675918,43.9830437 21.1123732,43.9286997 C21.1154052,43.924035 21.1170379,43.9207697 21.1219359,43.9175044 C21.3376793,43.5849096 21.5776793,43.2329563 21.835172,42.8684082 C21.9326647,42.7275335 22.0350554,42.5852595 22.1390787,42.4397201 C22.8987289,41.3840933 23.7705656,40.2389038 24.6372711,39.1098076 C25.3138892,38.2300408 25.9839767,37.363102 26.5983207,36.5570379 C26.6029854,36.5491079 26.6078834,36.5411778 26.6174461,36.5330146 C26.7886414,36.3044431 26.9579708,36.0789038 27.1212362,35.8596618 C28.1465423,34.4075335 29.0020525,32.6305073 29.6275918,30.6216443 C29.6723732,30.463277 29.7187872,30.303277 29.7682332,30.1435102 C29.7922566,30.0602449 29.776863,29.9739475 29.8041516,29.8874169 C30.6230437,27.2709738 32.1108571,24.4607114 33.2770379,21.7929563 L33.2770379,21.7913236 C34.4432187,19.819312 35.4722566,17.9270671 36.5120233,16.2461341 C36.7902741,15.796688 37.0850845,15.36007 37.3505073,14.9442099 C37.6240933,14.5204198 37.8953469,14.1173878 38.1481749,13.733481 C38.1593703,13.7143557 38.1773294,13.6966297 38.1871254,13.6775044 C38.3886414,13.371965 38.584793,13.082519 38.7685831,12.8042682 C38.8709738,12.6554636 38.9698659,12.5082915 39.0675918,12.3660175 C39.1074752,12.3051429 39.1464257,12.2459009 39.1865423,12.1885248 C39.2856676,12.0429854 39.3819942,11.9021108 39.4731895,11.7677668 C39.6266589,11.5471254 39.7691662,11.3390787 39.9002449,11.1503907 C40.3210029,11.0881166 40.7177376,10.993656 41.0792536,10.8754052 C41.204035,10.8352886 41.3239184,10.7921399 41.439137,10.7473586 C41.4997784,10.72007 41.5590204,10.6962799 41.6166297,10.6706239 L43.9662507,16.5243848 L55.2723732,42.3725481 L55.3283499,42.4973294 C55.4692245,42.8299242 55.5459592,43.1977376 55.5459592,43.583277" id="Fill-20" fill="#FFFFFF"></path>
                    <path d="M55.3588338,77.0877434 C55.3588338,78.5671603 52.1023907,79.7666939 48.08793,79.7666939 C44.0702041,79.7666939 40.8170262,78.5671603 40.8170262,77.0877434 C40.8170262,75.9297259 42.8130612,74.9429038 45.6072303,74.5701924 L43.8766181,61.4725831 L44.3692128,60.7530496 L47.1346939,56.7175977 L47.6496793,55.9675102 L50.0984257,74.5125831 C53.1356268,74.8342157 55.3588338,75.8674519 55.3588338,77.0877434" id="Fill-22" fill="#FFFFFF"></path>
                    <g id="Group-26" transform="translate(36.151603, 0.000000)">
                        <mask id="mask-22" fill="white">
                            <use xlink:href="#path-21"></use>
                        </mask>
                        <g id="Clip-25"></g>
                        <path d="M5.46507289,10.6706006 C5.40746356,10.6962566 5.34822157,10.7202799 5.28758017,10.7473353 C5.17236152,10.7921166 5.05247813,10.8352653 4.92769679,10.8753819 C4.56618076,10.9936327 4.16944606,11.0880933 3.74892128,11.1503673 C3.61784257,11.3390554 3.47533528,11.547102 3.32186589,11.7677434 C3.23067055,11.9020875 3.1348105,12.0429621 3.0354519,12.1885015 C2.99556851,12.2461108 2.95708455,12.3051195 2.91720117,12.3659942 C2.81970845,12.5082682 2.72198251,12.6554402 2.61982507,12.8042449 C2.43580175,13.0824956 2.24221574,13.3719417 2.04069971,13.677481 C2.03113703,13.6966064 2.01830904,13.7143324 2.0071137,13.7334577 C1.75451895,14.1173644 1.49376093,14.5203965 1.22017493,14.9441866 C1.57212828,14.2101924 1.79113703,13.400863 1.85037901,12.5483848 L1.66495627,11.1536327 C1.2619242,11.0864606 0.914868805,10.9745073 0.642915452,10.8257026 C0.28606414,10.6386472 0.0607580175,10.3874519 0.0222740525,10.0900758 C0.00151603499,9.9268105 0.0367346939,9.76377843 0.124664723,9.60214577 C0.209329446,9.44377843 0.342274052,9.28867638 0.518134111,9.14150437 L0.657142857,7.53730612 L0.866822157,5.10138776 L0.994635569,3.62523615 L1.23300292,0.867685131 C1.27778426,0.423137026 1.656793,0.0728163265 2.11440233,0.0728163265 C2.44373178,0.0728163265 2.73014577,0.251941691 2.88361516,0.519230321 L2.97644315,0.754332362 L3.94880466,3.2268688 L5.4522449,7.04307872 L5.9625656,8.33707289 C6.06798834,8.38022157 6.16408163,8.42826822 6.25364431,8.47631487 C6.58623907,8.66500292 6.79428571,8.90803499 6.83253644,9.19281633 C6.90297376,9.72692711 6.35440233,10.2754985 5.46507289,10.6706006" id="Fill-24" fill="#FFFFFF" mask="url(#mask-22)"></path>
                    </g>
                    <path d="M35.1806414,77.0365714 C35.1806414,78.517621 31.9241983,79.7187872 27.9097376,79.7187872 C23.8920117,79.7187872 20.6388338,78.517621 20.6388338,77.0365714 C20.6388338,75.8913819 22.5980175,74.9124898 25.3523032,74.5318484 L23.6328863,61.5175044 L24.1910204,60.703277 L26.0576093,57.9795452 C26.4783673,58.4289913 26.8939942,58.8768047 27.3068222,59.321586 L27.3163848,59.3901574 C27.3739942,59.4253761 27.4283382,59.4638601 27.4810496,59.5070087 C27.5689796,59.603102 27.6569096,59.6973294 27.7450729,59.7917901 C27.8474636,59.9324315 27.9909038,60.0940641 28.0340525,60.2682915 L28.1457726,60.6265423 L28.1457726,60.6314402 L29.9069388,74.4551137 C32.9858892,74.7685831 35.1806414,75.8050845 35.1806414,77.0365714" id="Fill-27" fill="#FFFFFF"></path>
                    <path d="M21.4960933,10.5906239 C21.4193586,10.6274752 21.3393586,10.6610612 21.2609913,10.6930146 C21.1457726,10.7377959 21.0258892,10.7842099 20.9011079,10.8240933 L20.8899125,10.7410612 C20.8899125,10.7697493 20.8915452,10.7984373 20.8962099,10.8257259 C20.5379592,10.9425773 20.1414577,11.035172 19.7223324,11.0960466 C19.4151603,11.5405948 19.0489796,12.0716735 18.6426822,12.6778542 C18.5899708,12.7594869 18.5339942,12.8408863 18.4780175,12.9241516 C18.3821574,13.069691 18.2359184,13.216863 18.136793,13.3703324 C18.0679883,13.472723 18.1167347,13.5751137 17.8834985,13.6821691 L17.8834985,13.6838017 C17.6502624,14.1668338 17.2810496,14.6818192 16.9339942,15.2257259 C17.4361516,14.2916152 17.7428571,13.2231603 17.7428571,12.0877668 L17.6264723,11.1009446 C16.7005248,10.9456093 16.0602915,10.5603032 15.9898542,10.0387872 C15.9690962,9.8757551 16.0087464,9.70945773 16.0950437,9.54782507 C16.1815743,9.39109038 16.3156851,9.23598834 16.4901458,9.09044898 L16.6284548,7.48625073 L16.8381341,5.05662974 L16.966414,3.62432653 L17.2047813,0.943043732 L17.2080466,0.943043732 C17.2544606,0.476571429 17.6288047,0.102460641 18.0812828,0.102460641 C18.4460641,0.102460641 18.7562682,0.297212828 18.8906122,0.612314869 L18.9018076,0.594588921 L19.9222157,3.18234402 L21.4240233,6.99528863 L21.9359767,8.29068222 C22.04,8.3305656 22.1374927,8.37791254 22.2254227,8.42572595 C22.5596501,8.61464723 22.7676968,8.85721283 22.8059475,9.14199417 C22.8731195,9.66327697 22.3502041,10.2004198 21.4960933,10.5906239" id="Fill-29" fill="#FFFFFF"></path>
                    <g id="Group-33" transform="translate(0.000000, 10.495627)">
                        <mask id="mask-24" fill="white">
                            <use xlink:href="#path-23"></use>
                        </mask>
                        <g id="Clip-32"></g>
                        <path d="M27.8329563,15.6268688 C27.8329563,15.6653528 27.8313236,15.7019708 27.8313236,15.7388222 C27.829691,15.7724082 27.8250262,15.8027289 27.8233936,15.8332828 C27.8217609,15.8458776 27.8184956,15.8556735 27.8184956,15.8636035 C27.8089329,15.9242449 27.8010029,15.9804548 27.7930729,16.0378309 C27.7914402,16.0427289 27.7914402,16.0459942 27.7914402,16.0506589 C27.3914402,18.563312 26.6222274,20.8184723 25.5922566,22.6307172 C25.3891079,23.1153819 24.8580292,23.9149155 24.1464257,24.8921749 C23.3611195,25.9671603 22.3582041,27.2625539 21.3361633,28.5917668 C21.1761633,28.7979475 21.0161633,29.0043615 20.8580292,29.2138076 C20.7843265,29.3099009 20.7108571,29.4073936 20.6371545,29.5032536 C19.3144723,31.2322332 18.0398367,32.9500175 17.2337726,34.2696676 C17.2337726,34.2713003 17.2305073,34.2726997 17.2288746,34.275965 C17.0961633,34.4534577 16.9858426,34.6470437 16.8962799,34.8550904 C16.8930146,34.8564898 16.8913819,34.8581224 16.8930146,34.8597551 C16.7521399,35.1939825 16.6754052,35.5620292 16.6754052,35.9457026 C16.6754052,36.524828 16.8514985,37.0605714 17.1521399,37.5067522 C17.1537726,37.5116501 17.1568047,37.5149155 17.16007,37.5195802 C17.2368047,37.6315335 17.3217026,37.7355569 17.412898,37.8363149 C17.41593,37.8363149 17.41593,37.8379475 17.4175627,37.8409796 C18.5387289,39.2182391 20.4724898,41.3950321 22.6796035,43.8148571 C22.9354636,44.0947405 23.1978542,44.3795219 23.4586122,44.6673353 C24.3061924,45.5902507 25.1826939,46.5385889 26.0575627,47.483895 L24.191207,50.2078601 L23.6328397,51.0218542 L20.4069504,55.7304257 L20.4036851,55.7369563 L20.3092245,55.8729329 L20.3078251,55.8745656 L20.2772711,55.9177143 C20.2805364,55.914449 20.2805364,55.9111837 20.2821691,55.9081516 C19.971965,56.3046531 19.4952303,56.5621458 18.9578542,56.5782391 C18.9387289,56.5815044 18.9177376,56.5815044 18.9002449,56.5815044 C18.4300408,56.5815044 18.0029854,56.397481 17.6878834,56.0935743 C17.648,56.053691 17.609516,56.0119417 17.5710321,55.968793 C17.5598367,55.960863 17.5519067,55.9529329 17.5456093,55.943137 C17.5360466,55.9305423 17.5262507,55.9177143 17.5150554,55.9032536 C17.5199534,55.909551 17.521586,55.9160816 17.5262507,55.9240117 C13.596688,51.783137 3.55237318,41.1375394 0.555055394,37.3805714 L0.559720117,37.3756735 C0.208,36.9038367 -4.66472302e-05,36.3200466 -4.66472302e-05,35.6865773 C-4.66472302e-05,35.2005131 0.124734694,34.7415044 0.342344023,34.3415044 L0.339078717,34.3384723 C1.52578426,32.2831953 4.08648397,29.0636035 6.1144723,26.4068105 C6.68869971,25.6583557 7.21814577,24.9546822 7.65966181,24.3356735 C8.30106122,23.2800466 8.84146939,22.0884431 9.25732945,20.7930496 C9.25732945,20.7914169 9.2589621,20.7897843 9.2589621,20.7848863 C9.40450146,20.3387055 9.5325481,19.8796968 9.64613411,19.4094927 C10.3850262,17.0246531 11.5173878,14.478414 12.7791953,12.0217376 C13.9773294,9.68820991 15.293481,7.43794752 16.5091079,5.48669388 C16.5091079,5.48506122 16.5107405,5.48016327 16.5140058,5.47853061 C16.6849679,5.24179592 16.7948222,4.98920117 16.9340641,4.7300758 C17.2811195,4.1861691 17.6500991,3.67118367 17.8833353,3.1881516 L17.8833353,3.18675219 C18.1165714,3.07946356 18.0678251,2.97707289 18.1366297,2.87468222 C18.2359883,2.72121283 18.3584373,2.57404082 18.4545306,2.42850146 C18.5105073,2.34546939 18.5781458,2.26383673 18.6310904,2.18220408 C19.0371545,1.57602332 19.4093994,1.04494461 19.7165714,0.600396501 C20.1354636,0.539521866 20.5349971,0.446927114 20.893481,0.330075802 C20.8948805,0.328443149 20.8995452,0.328443149 20.8995452,0.328443149 C21.0243265,0.288559767 21.1451429,0.242145773 21.2603615,0.197364431 C21.3387289,0.165411079 21.4189621,0.131825073 21.4956968,0.0949737609 L22.3659009,2.36786006 L23.471207,5.25159184 L27.5754636,14.6351487 L27.7338309,14.9950321 C27.7993703,15.193516 27.8329563,15.4062274 27.8329563,15.6268688" id="Fill-31" fill="#FFFFFF" mask="url(#mask-24)"></path>
                    </g>
                </g>
            </g>
        </g>
    </g>
</svg>