<?xml version="1.0" encoding="utf-8"?><svg xmlns="http://www.w3.org/2000/svg" xmlns:xlink="http://www.w3.org/1999/xlink"><symbol viewBox="0 -6 24 24" id="mbsy-caret" xmlns="http://www.w3.org/2000/svg"><path d="M0 0h24L12 12z"/></symbol><symbol viewBox="-5 0 24 24" id="mbsy-dwolla" xmlns="http://www.w3.org/2000/svg"><path d="M11.266 9.562c-.9-1.136-1.893-2.225-2.556-3.503C7.763 4.26 7.621 1.704 10.083 0 7.62 1.089 5.16 2.13 2.698 3.219 1.041 3.976.19 5.302.237 7.053c.047 1.704.757 3.172 1.846 4.45a114.77 114.77 0 0 0 3.171 3.598c.095.094.19.189.237.284h.047c-.615.236-1.23.52-1.798.757-.426.19-.805.379-1.231.568-2.272.947-3.03 2.793-2.083 5.065C.946 23.148 2.225 24 3.74 24c.331 0 .662 0 .946-.095h.048c.378-.142.662-.284.946-.473 2.462-1.041 4.876-2.13 7.29-3.219 1.563-.757 2.178-2.13 2.225-3.787.048-1.325-.426-2.462-1.23-3.598-.805-1.136-1.847-2.13-2.699-3.266zM4.497 23.148c-.284.047-.52.047-.757.047-1.136 0-2.13-.615-2.557-1.704-.757-1.893-.189-3.266 1.657-4.07l1.278-.569c.616-.237 1.231-.52 1.846-.805.048 0 .095 0 .143-.047.189.284.426.615.662.994.332.615.568 1.373.52 2.178-.094 1.467-.898 3.219-2.792 3.976z"/></symbol><symbol viewBox="-6 0 24 24" id="mbsy-facebook" xmlns="http://www.w3.org/2000/svg"><path d="M12.52.152v3.852h-2.281c-.862 0-1.42.152-1.673.507-.304.355-.456.862-.456 1.572V8.82h4.258l-.558 4.308h-3.7v10.949H3.7V13.128H0V8.82h3.7V5.677c0-1.825.507-3.193 1.47-4.207C6.184.507 7.553 0 9.225 0c1.42 0 2.484.05 3.295.152z"/></symbol><symbol viewBox="0 0 24 24" id="mbsy-google" xmlns="http://www.w3.org/2000/svg"><path d="M23.314 9.771c.115.8.229 1.6.229 2.515C23.543 19.143 18.914 24 12 24 5.371 24 0 18.629 0 12S5.371 0 12 0c3.257 0 5.943 1.2 8.057 3.143L16.63 6.514C15.37 5.314 13.77 4.686 12 4.686c-3.943 0-7.143 3.371-7.143 7.314s3.2 7.314 7.143 7.314c3.6 0 6.057-2.057 6.571-4.857H12V9.771h11.314z"/></symbol><symbol viewBox="0 0 24 24" id="mbsy-linkedin" xmlns="http://www.w3.org/2000/svg"><path d="M5.424 7.506V23.01H.274V7.506h5.15zm.329-4.821c0 .767-.22 1.424-.767 1.917-.548.493-1.26.767-2.137.767S1.26 5.095.767 4.602C.219 4.109 0 3.452 0 2.685 0 1.918.22 1.26.767.767 1.315.274 2.027 0 2.904 0c.876 0 1.534.274 2.082.767.493.493.767 1.15.767 1.918zM23.996 14.08v8.93h-5.15v-8.327c0-1.096-.164-1.918-.602-2.575-.439-.603-1.096-.932-1.973-.932-.657 0-1.205.22-1.643.548a3.165 3.165 0 0 0-1.041 1.37c-.11.274-.164.712-.164 1.26v8.656h-5.15c.054-4.164.054-7.56.054-10.135V8.218l-.054-.712h5.15v2.246c.219-.329.383-.658.602-.877.22-.274.548-.548.932-.821a4.292 4.292 0 0 1 1.314-.713c.548-.164 1.15-.219 1.808-.219 1.808 0 3.233.603 4.328 1.753 1.096 1.206 1.59 2.959 1.59 5.205z"/></symbol><symbol viewBox="0 0 24 24" id="mbsy-paypal" xmlns="http://www.w3.org/2000/svg"><path d="M17.644 1.802C16.506.522 14.466 0 11.858 0h-7.59c-.521 0-.995.38-1.09.901L.048 20.585c-.095.38.237.759.616.759H5.36l1.185-7.352-.047.237a1.08 1.08 0 0 1 1.09-.9h2.23c4.364 0 7.779-1.756 8.775-6.784.047-.142.047-.284.095-.474.284-1.85 0-3.13-1.044-4.269m1.044 4.27c-.048.189-.048.331-.095.473-.996 5.028-4.411 6.783-8.775 6.783h-2.23c-.568 0-.995.38-1.09.901L5.36 21.344l-.332 1.992c-.048.332.237.664.569.664h3.937c.474 0 .9-.332.948-.806l.048-.19.759-4.648.047-.237c.047-.475.474-.807.901-.807h.617c3.842 0 6.83-1.518 7.684-5.929.379-1.85.19-3.367-.76-4.458-.331-.332-.663-.617-1.09-.854m-1.044-.38c-.332-.094-.664-.189-.996-.236a12.487 12.487 0 0 0-1.944-.143H8.727a.894.894 0 0 0-.38.095.912.912 0 0 0-.52.712l-1.282 7.873-.047.237a1.08 1.08 0 0 1 1.09-.9h2.23c4.364 0 7.779-1.756 8.775-6.784.047-.142.047-.284.095-.474-.285-.095-.522-.237-.854-.332-.047 0-.142-.047-.19-.047"/></symbol><symbol viewBox="0 0 24 24" id="mbsy-slack" xmlns="http://www.w3.org/2000/svg"><path d="M15.563 1.5C15.187.375 13.969-.234 12.842.094c-1.077.375-1.734 1.593-1.359 2.719l5.532 17.015a2.141 2.141 0 0 0 2.625 1.313c1.125-.328 1.828-1.547 1.453-2.672L15.562 1.5M6.985 4.266C6.61 3.14 5.438 2.53 4.313 2.906c-1.125.375-1.735 1.547-1.36 2.672l5.485 17.016c.421 1.031 1.546 1.64 2.624 1.312 1.126-.328 1.829-1.5 1.454-2.625 0-.047-5.532-17.015-5.532-17.015M22.5 15.562a2.165 2.165 0 0 0 1.406-2.671c-.375-1.125-1.593-1.735-2.718-1.407L4.172 17.016c-1.031.375-1.64 1.547-1.313 2.625.329 1.125 1.547 1.828 2.672 1.453L22.5 15.562M7.734 20.392l4.079-1.36A143.668 143.668 0 0 1 10.5 15l-4.078 1.313 1.312 4.078m8.579-2.813c1.5-.469 2.953-.937 4.03-1.312-.327-1.125-.796-2.532-1.312-4.078L15 13.5l1.313 4.078m3.421-10.594c1.125-.328 1.735-1.546 1.36-2.671-.375-1.125-1.547-1.735-2.672-1.36L1.406 8.484c-1.031.375-1.64 1.5-1.312 2.579.328 1.124 1.5 1.828 2.625 1.453.047 0 17.015-5.532 17.015-5.532M4.97 11.813C6.047 11.437 7.5 10.969 9 10.5c-.469-1.547-.938-3-1.313-4.078L3.61 7.734l1.36 4.079M13.5 9.046c1.547-.516 3-.985 4.078-1.36a124.83 124.83 0 0 1-1.312-4.03l-4.078 1.312L13.5 9.047"/></symbol><symbol viewBox="0 0 24 24" id="mbsy-twitter" xmlns="http://www.w3.org/2000/svg"><path d="M24 2.347c-.693.96-1.493 1.813-2.453 2.506v.64c0 1.334-.16 2.667-.587 3.947a12.877 12.877 0 0 1-1.76 3.787c-.747 1.226-1.707 2.293-2.773 3.253a12.81 12.81 0 0 1-3.947 2.187c-1.547.586-3.2.853-4.907.853-2.773 0-5.28-.747-7.573-2.24.373.053.747.107 1.173.107 2.294 0 4.32-.747 6.134-2.134a4.68 4.68 0 0 1-2.88-.96c-.854-.64-1.44-1.44-1.76-2.453.373.053.693.107.96.107.426 0 .853-.054 1.28-.214-1.12-.213-2.08-.8-2.827-1.653A4.839 4.839 0 0 1 .96 6.933V6.88c.693.373 1.44.587 2.24.587A4.465 4.465 0 0 1 1.6 5.76c-.427-.747-.587-1.547-.587-2.347 0-.906.214-1.76.64-2.506a14.139 14.139 0 0 0 4.48 3.626c1.76.907 3.68 1.44 5.707 1.547-.107-.427-.16-.8-.16-1.173 0-1.334.48-2.507 1.44-3.467S15.253 0 16.64 0s2.613.533 3.573 1.547A9.785 9.785 0 0 0 23.36.373c-.373 1.174-1.12 2.08-2.187 2.72.96-.106 1.867-.373 2.827-.746z"/></symbol><symbol viewBox="0 0 24 24" id="mbsy-webhooks" xmlns="http://www.w3.org/2000/svg"><path d="M11.25 9.375a456.923 456.923 0 0 1-2.906 4.922c-.281.375-.375.703-.188 1.265.563 1.454-.234 2.86-1.687 3.235-1.36.375-2.719-.563-3-2.016-.235-1.312.797-2.578 2.203-2.812.14 0 .281 0 .469-.047.703-1.172 1.406-2.39 2.203-3.656-1.406-1.36-2.203-2.954-2.016-4.97.094-1.359.656-2.577 1.688-3.562C9.937-.187 12.89-.516 15.14.984c2.203 1.36 3.187 4.125 2.343 6.47-.656-.188-1.312-.376-2.015-.563.281-1.313.094-2.485-.797-3.47-.563-.655-1.313-.983-2.156-1.124-1.688-.281-3.375.844-3.844 2.484-.563 1.875.281 3.422 2.578 4.594zm2.86-1.969c.703 1.219 1.406 2.485 2.109 3.703 3.562-1.078 6.234.891 7.218 3 1.172 2.579.375 5.579-1.921 7.172-2.344 1.594-5.344 1.313-7.407-.75.516-.468 1.079-.89 1.641-1.36 2.063 1.313 3.844 1.267 5.203-.327 1.125-1.313 1.078-3.328-.094-4.64-1.359-1.548-3.14-1.595-5.343-.142-.891-1.593-1.829-3.187-2.72-4.828-.28-.515-.608-.843-1.265-.937-1.125-.235-1.828-1.172-1.875-2.25-.047-1.031.563-2.016 1.547-2.39.985-.376 2.11-.048 2.766.75.515.655.703 1.452.422 2.25-.094.234-.188.468-.282.75zm1.64 10.078h-4.266c-.421 1.735-1.312 3.094-2.859 3.938-1.172.703-2.438.89-3.797.703-2.531-.422-4.594-2.672-4.781-5.25-.188-2.86 1.781-5.438 4.453-6 .188.656.328 1.313.516 1.969-2.391 1.265-3.235 2.812-2.579 4.781.61 1.688 2.297 2.625 4.172 2.297 1.875-.375 2.813-1.969 2.672-4.453 1.828 0 3.61-.047 5.39 0 .704 0 1.22-.047 1.735-.656.89-1.032 2.485-.938 3.375 0a2.423 2.423 0 0 1-.093 3.515c-.938.89-2.485.844-3.422-.14-.188-.188-.328-.422-.516-.704z"/></symbol><symbol viewBox="0 -4 24 24" id="mbsy-yahoo" xmlns="http://www.w3.org/2000/svg"><path d="M23.294 3.2c-.423.047-2.165.424-2.73.565-.658.14-6.352 4.564-6.729 5.647-.094.376-.14.94-.14 1.506l-.048.894c0 .612.188 1.6.282 2.164.377.095 3.106 0 3.577.095l-.047 1.129c-.47-.047-3.953-.047-5.93-.047-.988 0-4.235.094-5.223.094l.188-1.082c.565-.047 2.824.094 3.294-.424.236-.235.188-.517.188-2.023v-.706c0-.33 0-.988-.094-1.553-.188-.612-5.27-6.918-6.54-7.906-.377-.141-2.73-.377-3.295-.518L0 .095C.282-.048 2.918.14 5.459.046c1.647-.094 5.459 0 5.93.047l-.095.847c-.518.141-2.918.188-3.576.33C9.365 3.67 11.953 6.824 12.753 8c.47-.659 4.518-3.435 4.659-4.376-.66-.142-2.73-.424-3.06-.424l-.187-1.082c.564-.094 3.53 0 5.035 0 1.27 0 4.047 0 4.8.047L23.294 3.2"/></symbol><symbol viewBox="0 0 24 24" id="md-add" xmlns="http://www.w3.org/2000/svg"><path d="M19 13h-6v6h-2v-6H5v-2h6V5h2v6h6v2z"/></symbol><symbol viewBox="0 0 24 24" id="md-arrow-back" xmlns="http://www.w3.org/2000/svg"><path d="M20 11H7.83l5.59-5.59L12 4l-8 8 8 8 1.41-1.41L7.83 13H20v-2z"/></symbol><symbol viewBox="0 0 24 24" id="md-arrow-down" xmlns="http://www.w3.org/2000/svg"><path fill="#010101" d="M20 12l-1.41-1.41L13 16.17V4h-2v12.17l-5.58-5.59L4 12l8 8 8-8z"/></symbol><symbol viewBox="0 0 24 24" id="md-arrow-drop-down" xmlns="http://www.w3.org/2000/svg"><path d="M7 10l5 5 5-5z"/></symbol><symbol viewBox="0 0 24 24" id="md-arrow-drop-up" xmlns="http://www.w3.org/2000/svg"><path d="M7 14l5-5 5 5z"/></symbol><symbol viewBox="0 0 24 24" id="md-arrow-forward" xmlns="http://www.w3.org/2000/svg"><path d="M12 4l-1.41 1.41L16.17 11H4v2h12.17l-5.58 5.59L12 20l8-8z"/></symbol><symbol viewBox="0 0 24 24" id="md-arrow-up" xmlns="http://www.w3.org/2000/svg"><path d="M4 12l1.41 1.41L11 7.83V20h2V7.83l5.58 5.59L20 12l-8-8-8 8z"/></symbol><symbol viewBox="0 0 24 24" id="md-assessment" xmlns="http://www.w3.org/2000/svg"><path d="M19 3H5c-1.1 0-2 .9-2 2v14c0 1.1.9 2 2 2h14c1.1 0 2-.9 2-2V5c0-1.1-.9-2-2-2zM9 17H7v-7h2v7zm4 0h-2V7h2v10zm4 0h-2v-4h2v4z"/></symbol><symbol viewBox="0 0 24 24" id="md-blank-link" xmlns="http://www.w3.org/2000/svg"><path d="M19 19H5V5h7V3H5a2 2 0 0 0-2 2v14a2 2 0 0 0 2 2h14c1.1 0 2-.9 2-2v-7h-2v7zM14 3v2h3.59l-9.83 9.83 1.41 1.41L19 6.41V10h2V3h-7z"/></symbol><symbol viewBox="0 0 24 24" id="md-chart" xmlns="http://www.w3.org/2000/svg"><path d="M3.5 18.49l6-6.01 4 4L22 6.92l-1.41-1.41-7.09 7.97-4-4L2 16.99z"/></symbol><symbol viewBox="0 0 24 24" id="md-chat-bubble" xmlns="http://www.w3.org/2000/svg"><path d="M20 2H4c-1.1 0-2 .9-2 2v18l4-4h14c1.1 0 2-.9 2-2V4c0-1.1-.9-2-2-2z"/></symbol><symbol viewBox="0 0 24 24" id="md-check" xmlns="http://www.w3.org/2000/svg"><path d="M9 16.17L4.83 12l-1.42 1.41L9 19 21 7l-1.41-1.41z"/></symbol><symbol viewBox="0 0 24 24" id="md-checkbox-checked" xmlns="http://www.w3.org/2000/svg"><path d="M19 3H5a2 2 0 0 0-2 2v14a2 2 0 0 0 2 2h14a2 2 0 0 0 2-2V5a2 2 0 0 0-2-2zm-9 14l-5-5 1.41-1.41L10 14.17l7.59-7.59L19 8l-9 9z"/></symbol><symbol viewBox="0 0 24 24" id="md-checkbox-ind" xmlns="http://www.w3.org/2000/svg"><path d="M19 3H5c-1.1 0-2 .9-2 2v14c0 1.1.9 2 2 2h14c1.1 0 2-.9 2-2V5c0-1.1-.9-2-2-2zm-2 10H7v-2h10v2z"/></symbol><symbol viewBox="0 0 24 24" id="md-checkbox-unchecked" xmlns="http://www.w3.org/2000/svg"><path d="M19 5v14H5V5h14m0-2H5c-1.1 0-2 .9-2 2v14c0 1.1.9 2 2 2h14c1.1 0 2-.9 2-2V5c0-1.1-.9-2-2-2z"/></symbol><symbol viewBox="0 0 24 24" id="md-chevron-left" xmlns="http://www.w3.org/2000/svg"><path d="M15.41 7.41L14 6l-6 6 6 6 1.41-1.41L10.83 12z"/></symbol><symbol viewBox="0 0 24 24" id="md-chevron-right" xmlns="http://www.w3.org/2000/svg"><path d="M10 6L8.59 7.41 13.17 12l-4.58 4.59L10 18l6-6z"/></symbol><symbol viewBox="0 0 24 24" id="md-close" xmlns="http://www.w3.org/2000/svg"><path d="M19 6.41L17.59 5 12 10.59 6.41 5 5 6.41 10.59 12 5 17.59 6.41 19 12 13.41 17.59 19 19 17.59 13.41 12z"/></symbol><symbol viewBox="0 0 24 24" id="md-cloud" xmlns="http://www.w3.org/2000/svg"><path d="M19.35 10.04A7.49 7.49 0 0 0 12 4C9.11 4 6.6 5.64 5.35 8.04A5.994 5.994 0 0 0 0 14c0 3.31 2.69 6 6 6h13c2.76 0 5-2.24 5-5 0-2.64-2.05-4.78-4.65-4.96z"/></symbol><symbol viewBox="0 0 24 24" id="md-compare" xmlns="http://www.w3.org/2000/svg"><path d="M9.01 14H2v2h7.01v3L13 15l-3.99-4v3zm5.98-1v-3H22V8h-7.01V5L11 9l3.99 4z"/></symbol><symbol viewBox="0 0 24 24" id="md-contact" xmlns="http://www.w3.org/2000/svg"><path d="M22 3H2C.9 3 0 3.9 0 5v14c0 1.1.9 2 2 2h20c1.1 0 1.99-.9 1.99-2L24 5c0-1.1-.9-2-2-2zM8 6c1.66 0 3 1.34 3 3s-1.34 3-3 3-3-1.34-3-3 1.34-3 3-3zm6 12H2v-1c0-2 4-3.1 6-3.1s6 1.1 6 3.1v1zm3.85-4h1.64L21 16l-1.99 1.99A7.512 7.512 0 0 1 16.28 14c-.18-.64-.28-1.31-.28-2s.1-1.36.28-2a7.474 7.474 0 0 1 2.73-3.99L21 8l-1.51 2h-1.64c-.22.63-.35 1.3-.35 2s.13 1.37.35 2z"/></symbol><symbol viewBox="0 0 24 24" id="md-copy" xmlns="http://www.w3.org/2000/svg"><path d="M16 1H4c-1.1 0-2 .9-2 2v14h2V3h12V1zm3 4H8c-1.1 0-2 .9-2 2v14c0 1.1.9 2 2 2h11c1.1 0 2-.9 2-2V7c0-1.1-.9-2-2-2zm0 16H8V7h11v14z"/></symbol><symbol viewBox="0 0 24 24" id="md-credit-card" xmlns="http://www.w3.org/2000/svg"><path d="M20 4H4c-1.11 0-1.99.89-1.99 2L2 18c0 1.11.89 2 2 2h16c1.11 0 2-.89 2-2V6c0-1.11-.89-2-2-2zm0 14H4v-6h16v6zm0-10H4V6h16v2z"/></symbol><symbol viewBox="0 0 24 24" id="md-danger" xmlns="http://www.w3.org/2000/svg"><path d="M12 2C6.48 2 2 6.48 2 12s4.48 10 10 10 10-4.48 10-10S17.52 2 12 2zm1 15h-2v-2h2v2zm0-4h-2V7h2v6z"/></symbol><symbol viewBox="0 0 24 24" id="md-dashboard" xmlns="http://www.w3.org/2000/svg"><path d="M3 13h8V3H3v10zm0 8h8v-6H3v6zm10 0h8V11h-8v10zm0-18v6h8V3h-8z"/></symbol><symbol viewBox="0 0 24 24" id="md-date" xmlns="http://www.w3.org/2000/svg"><path d="M9 11H7v2h2v-2zm4 0h-2v2h2v-2zm4 0h-2v2h2v-2zm2-7h-1V2h-2v2H8V2H6v2H5c-1.11 0-1.99.9-1.99 2L3 20a2 2 0 0 0 2 2h14c1.1 0 2-.9 2-2V6c0-1.1-.9-2-2-2zm0 16H5V9h14v11z"/></symbol><symbol viewBox="0 0 24 24" id="md-delete" xmlns="http://www.w3.org/2000/svg"><path d="M6 19c0 1.1.9 2 2 2h8c1.1 0 2-.9 2-2V7H6v12zM19 4h-3.5l-1-1h-5l-1 1H5v2h14V4z"/></symbol><symbol viewBox="0 0 24 24" id="md-domain" xmlns="http://www.w3.org/2000/svg"><path d="M12 7V3H2v18h20V7H12zM6 19H4v-2h2v2zm0-4H4v-2h2v2zm0-4H4V9h2v2zm0-4H4V5h2v2zm4 12H8v-2h2v2zm0-4H8v-2h2v2zm0-4H8V9h2v2zm0-4H8V5h2v2zm10 12h-8v-2h2v-2h-2v-2h2v-2h-2V9h8v10zm-2-8h-2v2h2v-2zm0 4h-2v2h2v-2z"/></symbol><symbol viewBox="0 0 24 24" id="md-download" xmlns="http://www.w3.org/2000/svg"><path d="M19.35 10.04A7.49 7.49 0 0 0 12 4C9.11 4 6.6 5.64 5.35 8.04A5.994 5.994 0 0 0 0 14c0 3.31 2.69 6 6 6h13c2.76 0 5-2.24 5-5 0-2.64-2.05-4.78-4.65-4.96zM17 13l-5 5-5-5h3V9h4v4h3z"/></symbol><symbol viewBox="0 0 24 24" id="md-edit" xmlns="http://www.w3.org/2000/svg"><path d="M3 17.25V21h3.75L17.81 9.94l-3.75-3.75L3 17.25zM20.71 7.04a.996.996 0 0 0 0-1.41l-2.34-2.34a.996.996 0 0 0-1.41 0l-1.83 1.83 3.75 3.75 1.83-1.83z"/></symbol><symbol viewBox="0 0 24 24" id="md-email" xmlns="http://www.w3.org/2000/svg"><path d="M20 4H4c-1.1 0-1.99.9-1.99 2L2 18c0 1.1.9 2 2 2h16c1.1 0 2-.9 2-2V6c0-1.1-.9-2-2-2zm0 4l-8 5-8-5V6l8 5 8-5v2z"/></symbol><symbol viewBox="0 0 24 24" id="md-favorite" xmlns="http://www.w3.org/2000/svg"><path d="M12 21.35l-1.45-1.32C5.4 15.36 2 12.28 2 8.5 2 5.42 4.42 3 7.5 3c1.74 0 3.41.81 4.5 2.09C13.09 3.81 14.76 3 16.5 3 19.58 3 22 5.42 22 8.5c0 3.78-3.4 6.86-8.55 11.54L12 21.35z"/></symbol><symbol viewBox="0 0 24 24" id="md-file" xmlns="http://www.w3.org/2000/svg"><path d="M6 2c-1.1 0-1.99.9-1.99 2L4 20c0 1.1.89 2 1.99 2H18c1.1 0 2-.9 2-2V8l-6-6H6zm7 7V3.5L18.5 9H13z"/></symbol><symbol viewBox="0 0 24 24" id="md-filter" xmlns="http://www.w3.org/2000/svg"><path d="M10 18h4v-2h-4v2zM3 6v2h18V6H3zm3 7h12v-2H6v2z"/></symbol><symbol viewBox="0 0 24 24" id="md-fingerprint" xmlns="http://www.w3.org/2000/svg"><path d="M17.81 4.47c-.08 0-.16-.02-.23-.06C15.66 3.42 14 3 12.01 3c-1.98 0-3.86.47-5.57 1.41-.24.13-.54.04-.68-.2a.506.506 0 0 1 .2-.68C7.82 2.52 9.86 2 12.01 2c2.13 0 3.99.47 6.03 1.52.25.13.34.43.21.67a.49.49 0 0 1-.44.28zM3.5 9.72a.499.499 0 0 1-.41-.79c.99-1.4 2.25-2.5 3.75-3.27C9.98 4.04 14 4.03 17.15 5.65c1.5.77 2.76 1.86 3.75 3.25a.5.5 0 0 1-.12.7c-.23.16-.54.11-.7-.12a9.388 9.388 0 0 0-3.39-2.94c-2.87-1.47-6.54-1.47-9.4.01-1.36.7-2.5 1.7-3.4 2.96-.08.14-.23.21-.39.21zm6.25 12.07a.47.47 0 0 1-.35-.15c-.87-.87-1.34-1.43-2.01-2.64-.69-1.23-1.05-2.73-1.05-4.34 0-2.97 2.54-5.39 5.66-5.39s5.66 2.42 5.66 5.39c0 .28-.22.5-.5.5s-.5-.22-.5-.5c0-2.42-2.09-4.39-4.66-4.39-2.57 0-4.66 1.97-4.66 4.39 0 1.44.32 2.77.93 3.85.64 1.15 1.08 1.64 1.85 2.42.19.2.19.51 0 .71-.11.1-.24.15-.37.15zm7.17-1.85c-1.19 0-2.24-.3-3.1-.89-1.49-1.01-2.38-2.65-2.38-4.39 0-.28.22-.5.5-.5s.5.22.5.5c0 1.41.72 2.74 1.94 3.56.71.48 1.54.71 2.54.71.24 0 .64-.03 1.04-.1.27-.05.53.13.58.41.05.27-.13.53-.41.58-.57.11-1.07.12-1.21.12zM14.91 22c-.04 0-.09-.01-.13-.02-1.59-.44-2.63-1.03-3.72-2.1a7.297 7.297 0 0 1-2.17-5.22c0-1.62 1.38-2.94 3.08-2.94 1.7 0 3.08 1.32 3.08 2.94 0 1.07.93 1.94 2.08 1.94s2.08-.87 2.08-1.94c0-3.77-3.25-6.83-7.25-6.83-2.84 0-5.44 1.58-6.61 4.03-.39.81-.59 1.76-.59 2.8 0 .78.07 2.01.67 3.61.1.26-.03.55-.29.64-.26.1-.55-.04-.64-.29a11.14 11.14 0 0 1-.73-3.96c0-1.2.23-2.29.68-3.24 1.33-2.79 4.28-4.6 7.51-4.6 4.55 0 8.25 3.51 8.25 7.83 0 1.62-1.38 2.94-3.08 2.94s-3.08-1.32-3.08-2.94c0-1.07-.93-1.94-2.08-1.94s-2.08.87-2.08 1.94c0 1.71.66 3.31 1.87 4.51.95.94 1.86 1.46 3.27 1.85.27.07.42.35.35.61-.05.23-.26.38-.47.38z"/></symbol><symbol viewBox="0 0 24 24" id="md-flag" xmlns="http://www.w3.org/2000/svg"><path d="M14.4 6L14 4H5v17h2v-7h5.6l.4 2h7V6z"/></symbol><symbol viewBox="0 0 24 24" id="md-globe" xmlns="http://www.w3.org/2000/svg"><path d="M11.99 2C6.47 2 2 6.48 2 12s4.47 10 9.99 10C17.52 22 22 17.52 22 12S17.52 2 11.99 2zm6.93 6h-2.95a15.65 15.65 0 0 0-1.38-3.56A8.03 8.03 0 0 1 18.92 8zM12 4.04c.83 1.2 1.48 2.53 1.91 3.96h-3.82c.43-1.43 1.08-2.76 1.91-3.96zM4.26 14C4.1 13.36 4 12.69 4 12s.1-1.36.26-2h3.38c-.08.66-.14 1.32-.14 2 0 .68.06 1.34.14 2H4.26zm.82 2h2.95c.32 1.25.78 2.45 1.38 3.56A7.987 7.987 0 0 1 5.08 16zm2.95-8H5.08a7.987 7.987 0 0 1 4.33-3.56A15.65 15.65 0 0 0 8.03 8zM12 19.96c-.83-1.2-1.48-2.53-1.91-3.96h3.82c-.43 1.43-1.08 2.76-1.91 3.96zM14.34 14H9.66c-.09-.66-.16-1.32-.16-2 0-.68.07-1.35.16-2h4.68c.09.65.16 1.32.16 2 0 .68-.07 1.34-.16 2zm.25 5.56c.6-1.11 1.06-2.31 1.38-3.56h2.95a8.03 8.03 0 0 1-4.33 3.56zM16.36 14c.08-.66.14-1.32.14-2 0-.68-.06-1.34-.14-2h3.38c.16.64.26 1.31.26 2s-.1 1.36-.26 2h-3.38z"/></symbol><symbol viewBox="0 0 24 24" id="md-group-add" xmlns="http://www.w3.org/2000/svg"><path d="M8 10H5V7H3v3H0v2h3v3h2v-3h3v-2zm10 1c1.66 0 2.99-1.34 2.99-3S19.66 5 18 5c-.32 0-.63.05-.91.14.57.81.9 1.79.9 2.86s-.34 2.04-.9 2.86c.28.09.59.14.91.14zm-5 0c1.66 0 2.99-1.34 2.99-3S14.66 5 13 5c-1.66 0-3 1.34-3 3s1.34 3 3 3zm6.62 2.16c.83.73 1.38 1.66 1.38 2.84v2h3v-2c0-1.54-2.37-2.49-4.38-2.84zM13 13c-2 0-6 1-6 3v2h12v-2c0-2-4-3-6-3z"/></symbol><symbol viewBox="0 0 24 24" id="md-help" xmlns="http://www.w3.org/2000/svg"><path d="M11 18h2v-2h-2v2zm1-16C6.48 2 2 6.48 2 12s4.48 10 10 10 10-4.48 10-10S17.52 2 12 2zm0 18c-4.41 0-8-3.59-8-8s3.59-8 8-8 8 3.59 8 8-3.59 8-8 8zm0-14c-2.21 0-4 1.79-4 4h2c0-1.1.9-2 2-2s2 .9 2 2c0 2-3 1.75-3 5h2c0-2.25 3-2.5 3-5 0-2.21-1.79-4-4-4z"/></symbol><symbol viewBox="0 0 24 24" id="md-info" xmlns="http://www.w3.org/2000/svg"><path d="M12 2C6.48 2 2 6.48 2 12s4.48 10 10 10 10-4.48 10-10S17.52 2 12 2zm1 15h-2v-6h2v6zm0-8h-2V7h2v2z"/></symbol><symbol viewBox="0 0 24 24" id="md-info-outline" xmlns="http://www.w3.org/2000/svg"><path d="M11 17h2v-6h-2v6zm1-15C6.48 2 2 6.48 2 12s4.48 10 10 10 10-4.48 10-10S17.52 2 12 2zm0 18c-4.41 0-8-3.59-8-8s3.59-8 8-8 8 3.59 8 8-3.59 8-8 8zM11 9h2V7h-2v2z"/></symbol><symbol viewBox="0 0 24 24" id="md-insert-chart" xmlns="http://www.w3.org/2000/svg"><path d="M19 3H5c-1.1 0-2 .9-2 2v14c0 1.1.9 2 2 2h14c1.1 0 2-.9 2-2V5c0-1.1-.9-2-2-2zM9 17H7v-7h2v7zm4 0h-2V7h2v10zm4 0h-2v-4h2v4z"/></symbol><symbol viewBox="0 0 24 24" id="md-keyboard-down" xmlns="http://www.w3.org/2000/svg"><path d="M7.41 7.84L12 12.42l4.59-4.58L18 9.25l-6 6-6-6z"/></symbol><symbol viewBox="0 0 24 24" id="md-keyboard-up" xmlns="http://www.w3.org/2000/svg"><path d="M7.41 15.41L12 10.83l4.59 4.58L18 14l-6-6-6 6z"/></symbol><symbol viewBox="0 -5 24 24" id="md-klout" xmlns="http://www.w3.org/2000/svg"><path d="M4.26 13.633H0l4.923-6.958L.38 0h4.165l3.267 5.112h1.467v3.172H7.811l-3.55 5.35m0 0H0l4.923-6.96L.38 0h4.165l3.267 5.112h1.467v3.172H7.811l-3.55 5.35m15.479 0l-3.55-5.35h-2.462v5.35H10.32V0h3.408v5.112h2.461L19.503 0h4.118l-4.497 6.675L24 13.633h-4.26"/></symbol><symbol viewBox="0 0 24 24" id="md-label" xmlns="http://www.w3.org/2000/svg"><path d="M17.63 5.84C17.27 5.33 16.67 5 16 5L5 5.01C3.9 5.01 3 5.9 3 7v10c0 1.1.9 1.99 2 1.99L16 19c.67 0 1.27-.33 1.63-.84L22 12l-4.37-6.16z"/></symbol><symbol viewBox="0 0 24 24" id="md-layers" xmlns="http://www.w3.org/2000/svg"><path d="M11.99 18.54l-7.37-5.73L3 14.07l9 7 9-7-1.63-1.27-7.38 5.74zM12 16l7.36-5.73L21 9l-9-7-9 7 1.63 1.27L12 16z"/></symbol><symbol viewBox="0 0 24 24" id="md-lightbulb" xmlns="http://www.w3.org/2000/svg"><path d="M9 21c0 .55.45 1 1 1h4c.55 0 1-.45 1-1v-1H9v1zm3-19C8.14 2 5 5.14 5 9c0 2.38 1.19 4.47 3 5.74V17c0 .55.45 1 1 1h6c.55 0 1-.45 1-1v-2.26c1.81-1.27 3-3.36 3-5.74 0-3.86-3.14-7-7-7zm2.85 11.1l-.85.6V16h-4v-2.3l-.85-.6A4.997 4.997 0 0 1 7 9c0-2.76 2.24-5 5-5s5 2.24 5 5c0 1.63-.8 3.16-2.15 4.1z"/></symbol><symbol viewBox="0 0 24 24" id="md-link" xmlns="http://www.w3.org/2000/svg"><path d="M3.9 12c0-1.71 1.39-3.1 3.1-3.1h4V7H7c-2.76 0-5 2.24-5 5s2.24 5 5 5h4v-1.9H7c-1.71 0-3.1-1.39-3.1-3.1zM8 13h8v-2H8v2zm9-6h-4v1.9h4c1.71 0 3.1 1.39 3.1 3.1s-1.39 3.1-3.1 3.1h-4V17h4c2.76 0 5-2.24 5-5s-2.24-5-5-5z"/></symbol><symbol viewBox="0 0 24 24" id="md-local-activity" xmlns="http://www.w3.org/2000/svg"><path d="M20 12c0-1.1.9-2 2-2V6c0-1.1-.9-2-2-2H4c-1.1 0-1.99.9-1.99 2v4c1.1 0 1.99.9 1.99 2s-.89 2-2 2v4c0 1.1.9 2 2 2h16c1.1 0 2-.9 2-2v-4c-1.1 0-2-.9-2-2zm-4.42 4.8L12 14.5l-3.58 2.3 1.08-4.12-3.29-2.69 4.24-.25L12 5.8l1.54 3.95 4.24.25-3.29 2.69 1.09 4.11z"/></symbol><symbol viewBox="0 0 24 24" id="md-lock-open" xmlns="http://www.w3.org/2000/svg"><path d="M12 17c1.1 0 2-.9 2-2s-.9-2-2-2-2 .9-2 2 .9 2 2 2zm6-9h-1V6c0-2.76-2.24-5-5-5S7 3.24 7 6h1.9c0-1.71 1.39-3.1 3.1-3.1 1.71 0 3.1 1.39 3.1 3.1v2H6c-1.1 0-2 .9-2 2v10c0 1.1.9 2 2 2h12c1.1 0 2-.9 2-2V10c0-1.1-.9-2-2-2zm0 12H6V10h12v10z"/></symbol><symbol viewBox="0 0 24 24" id="md-minus" xmlns="http://www.w3.org/2000/svg"><path d="M19 13H5v-2h14v2z"/></symbol><symbol viewBox="0 0 24 24" id="md-money" xmlns="http://www.w3.org/2000/svg"><path d="M11.8 10.9c-2.27-.59-3-1.2-3-2.15 0-1.09 1.01-1.85 2.7-1.85 1.78 0 2.44.85 2.5 2.1h2.21c-.07-1.72-1.12-3.3-3.21-3.81V3h-3v2.16c-1.94.42-3.5 1.68-3.5 3.61 0 2.31 1.91 3.46 4.7 4.13 2.5.6 3 1.48 3 2.41 0 .69-.49 1.79-2.7 1.79-2.06 0-2.87-.92-2.98-2.1h-2.2c.12 2.19 1.76 3.42 3.68 3.83V21h3v-2.15c1.95-.37 3.5-1.5 3.5-3.55 0-2.84-2.43-3.81-4.7-4.4z"/></symbol><symbol viewBox="0 0 24 24" id="md-mouse" xmlns="http://www.w3.org/2000/svg"><path d="M13 1.07V9h7c0-4.08-3.05-7.44-7-7.93zM4 15c0 4.42 3.58 8 8 8s8-3.58 8-8v-4H4v4zm7-13.93C7.05 1.56 4 4.92 4 9h7V1.07z"/></symbol><symbol viewBox="0 0 24 24" id="md-no-access" xmlns="http://www.w3.org/2000/svg"><path d="M12 2C6.48 2 2 6.48 2 12s4.48 10 10 10 10-4.48 10-10S17.52 2 12 2zm0 18c-4.42 0-8-3.58-8-8 0-1.85.63-3.55 1.69-4.9L16.9 18.31A7.902 7.902 0 0 1 12 20zm6.31-3.1L7.1 5.69A7.902 7.902 0 0 1 12 4c4.42 0 8 3.58 8 8 0 1.85-.63 3.55-1.69 4.9z"/></symbol><symbol viewBox="0 0 24 24" id="md-notifications" xmlns="http://www.w3.org/2000/svg"><path d="M12 22c1.1 0 2-.9 2-2h-4c0 1.1.9 2 2 2zm6-6v-5c0-3.07-1.63-5.64-4.5-6.32V4c0-.83-.67-1.5-1.5-1.5s-1.5.67-1.5 1.5v.68C7.64 5.36 6 7.92 6 11v5l-2 2v1h16v-1l-2-2zm-2 1H8v-6c0-2.48 1.51-4.5 4-4.5s4 2.02 4 4.5v6z"/></symbol><symbol viewBox="0 0 24 24" id="md-pause" xmlns="http://www.w3.org/2000/svg"><path d="M6 19h4V5H6v14zm8-14v14h4V5h-4z"/></symbol><symbol viewBox="0 0 24 24" id="md-people" xmlns="http://www.w3.org/2000/svg"><path d="M16 11c1.66 0 2.99-1.34 2.99-3S17.66 5 16 5c-1.66 0-3 1.34-3 3s1.34 3 3 3zm-8 0c1.66 0 2.99-1.34 2.99-3S9.66 5 8 5C6.34 5 5 6.34 5 8s1.34 3 3 3zm0 2c-2.33 0-7 1.17-7 3.5V19h14v-2.5c0-2.33-4.67-3.5-7-3.5zm8 0c-.29 0-.62.02-.97.05 1.16.84 1.97 1.97 1.97 3.45V19h6v-2.5c0-2.33-4.67-3.5-7-3.5z"/></symbol><symbol viewBox="0 0 24 24" id="md-person" xmlns="http://www.w3.org/2000/svg"><path d="M12 12c2.21 0 4-1.79 4-4s-1.79-4-4-4-4 1.79-4 4 1.79 4 4 4zm0 2c-2.67 0-8 1.34-8 4v2h16v-2c0-2.66-5.33-4-8-4z"/></symbol><symbol viewBox="0 0 24 24" id="md-person-outline" xmlns="http://www.w3.org/2000/svg"><path d="M12 5.9a2.1 2.1 0 1 1 0 4.2 2.1 2.1 0 0 1 0-4.2m0 9c2.97 0 6.1 1.46 6.1 2.1v1.1H5.9V17c0-.64 3.13-2.1 6.1-2.1M12 4C9.79 4 8 5.79 8 8s1.79 4 4 4 4-1.79 4-4-1.79-4-4-4zm0 9c-2.67 0-8 1.34-8 4v3h16v-3c0-2.66-5.33-4-8-4z"/></symbol><symbol viewBox="0 0 24 24" id="md-pie-chart-outlined" xmlns="http://www.w3.org/2000/svg"><path d="M12 2C6.5 2 2 6.5 2 12s4.5 10 10 10 10-4.5 10-10S17.5 2 12 2zm1 2.07c3.61.45 6.48 3.33 6.93 6.93H13V4.07zM4 12c0-4.06 3.07-7.44 7-7.93v15.87c-3.93-.5-7-3.88-7-7.94zm9 7.93V13h6.93A8.002 8.002 0 0 1 13 19.93z"/></symbol><symbol viewBox="0 0 24 24" id="md-place" xmlns="http://www.w3.org/2000/svg"><path d="M12 2C8.13 2 5 5.13 5 9c0 5.25 7 13 7 13s7-7.75 7-13c0-3.87-3.13-7-7-7zm0 9.5a2.5 2.5 0 0 1 0-5 2.5 2.5 0 0 1 0 5z"/></symbol><symbol viewBox="0 0 24 24" id="md-play" xmlns="http://www.w3.org/2000/svg"><path d="M8 5v14l11-7z"/></symbol><symbol viewBox="0 0 24 24" id="md-power" xmlns="http://www.w3.org/2000/svg"><path d="M13 3h-2v10h2V3zm4.83 2.17l-1.42 1.42A6.92 6.92 0 0 1 19 12c0 3.87-3.13 7-7 7A6.995 6.995 0 0 1 7.58 6.58L6.17 5.17A8.932 8.932 0 0 0 3 12a9 9 0 0 0 18 0c0-2.74-1.23-5.18-3.17-6.83z"/></symbol><symbol viewBox="0 0 24 24" id="md-radio" xmlns="http://www.w3.org/2000/svg"><path d="M3.24 6.15C2.51 6.43 2 7.17 2 8v12a2 2 0 0 0 2 2h16a2 2 0 0 0 2-2V8c0-1.11-.89-2-2-2H8.3l8.26-3.34L15.88 1 3.24 6.15zM7 20c-1.66 0-3-1.34-3-3s1.34-3 3-3 3 1.34 3 3-1.34 3-3 3zm13-8h-2v-2h-2v2H4V8h16v4z"/></symbol><symbol viewBox="0 0 24 24" id="md-radio-checked" xmlns="http://www.w3.org/2000/svg"><path d="M12 7c-2.76 0-5 2.24-5 5s2.24 5 5 5 5-2.24 5-5-2.24-5-5-5zm0-5C6.48 2 2 6.48 2 12s4.48 10 10 10 10-4.48 10-10S17.52 2 12 2zm0 18c-4.42 0-8-3.58-8-8s3.58-8 8-8 8 3.58 8 8-3.58 8-8 8z"/></symbol><symbol viewBox="0 0 24 24" id="md-radio-unchecked" xmlns="http://www.w3.org/2000/svg"><path d="M12 2C6.48 2 2 6.48 2 12s4.48 10 10 10 10-4.48 10-10S17.52 2 12 2zm0 18c-4.42 0-8-3.58-8-8s3.58-8 8-8 8 3.58 8 8-3.58 8-8 8z"/></symbol><symbol viewBox="0 0 24 24" id="md-receipt" xmlns="http://www.w3.org/2000/svg"><path d="M18 17H6v-2h12v2zm0-4H6v-2h12v2zm0-4H6V7h12v2zM3 22l1.5-1.5L6 22l1.5-1.5L9 22l1.5-1.5L12 22l1.5-1.5L15 22l1.5-1.5L18 22l1.5-1.5L21 22V2l-1.5 1.5L18 2l-1.5 1.5L15 2l-1.5 1.5L12 2l-1.5 1.5L9 2 7.5 3.5 6 2 4.5 3.5 3 2v20z"/></symbol><symbol viewBox="16 -12 48 48" id="md-record" xmlns="http://www.w3.org/2000/svg"><circle cx="40" cy="12" r="16"/></symbol><symbol viewBox="0 0 24 24" id="md-remove" xmlns="http://www.w3.org/2000/svg"><path d="M14.59 8L12 10.59 9.41 8 8 9.41 10.59 12 8 14.59 9.41 16 12 13.41 14.59 16 16 14.59 13.41 12 16 9.41 14.59 8zM12 2C6.47 2 2 6.47 2 12s4.47 10 10 10 10-4.47 10-10S17.53 2 12 2zm0 18c-4.41 0-8-3.59-8-8s3.59-8 8-8 8 3.59 8 8-3.59 8-8 8z"/></symbol><symbol viewBox="0 0 24 24" id="md-search" xmlns="http://www.w3.org/2000/svg"><path d="M15.5 14h-.79l-.28-.27A6.471 6.471 0 0 0 16 9.5 6.5 6.5 0 1 0 9.5 16c1.61 0 3.09-.59 4.23-1.57l.27.28v.79l5 4.99L20.49 19l-4.99-5zm-6 0C7.01 14 5 11.99 5 9.5S7.01 5 9.5 5 14 7.01 14 9.5 11.99 14 9.5 14z"/></symbol><symbol viewBox="0 0 24 24" id="md-send" xmlns="http://www.w3.org/2000/svg"><path d="M2.01 21L23 12 2.01 3 2 10l15 2-15 2z"/></symbol><symbol viewBox="0 0 24 24" id="md-settings" xmlns="http://www.w3.org/2000/svg"><path d="M19.43 12.98c.04-.32.07-.64.07-.98s-.03-.66-.07-.98l2.11-1.65c.19-.15.24-.42.12-.64l-2-3.46c-.12-.22-.39-.3-.61-.22l-2.49 1c-.52-.4-1.08-.73-1.69-.98l-.38-2.65A.488.488 0 0 0 14 2h-4c-.25 0-.46.18-.49.42l-.38 2.65c-.61.25-1.17.59-1.69.98l-2.49-1c-.23-.09-.49 0-.61.22l-2 3.46c-.13.22-.07.49.12.64l2.11 1.65c-.04.32-.07.65-.07.98s.03.66.07.98l-2.11 1.65c-.19.15-.24.42-.12.64l2 3.46c.12.22.39.3.61.22l2.49-1c.52.4 1.08.73 1.69.98l.38 2.65c.03.24.24.42.49.42h4c.25 0 .46-.18.49-.42l.38-2.65c.61-.25 1.17-.59 1.69-.98l2.49 1c.23.09.49 0 .61-.22l2-3.46c.12-.22.07-.49-.12-.64l-2.11-1.65zM12 15.5c-1.93 0-3.5-1.57-3.5-3.5s1.57-3.5 3.5-3.5 3.5 1.57 3.5 3.5-1.57 3.5-3.5 3.5z"/></symbol><symbol viewBox="0 0 24 24" id="md-source" xmlns="http://www.w3.org/2000/svg"><path d="M17 16l-4-4V8.82C14.16 8.4 15 7.3 15 6c0-1.66-1.34-3-3-3S9 4.34 9 6c0 1.3.84 2.4 2 2.82V12l-4 4H3v5h5v-3.05l4-4.2 4 4.2V21h5v-5h-4z"/></symbol><symbol viewBox="0 0 24 24" id="md-stars" xmlns="http://www.w3.org/2000/svg"><path d="M11.99 2C6.47 2 2 6.48 2 12s4.47 10 9.99 10C17.52 22 22 17.52 22 12S17.52 2 11.99 2zm4.24 16L12 15.45 7.77 18l1.12-4.81-3.73-3.23 4.92-.42L12 5l1.92 4.53 4.92.42-3.73 3.23L16.23 18z"/></symbol><symbol viewBox="0 0 24 24" id="md-stop" xmlns="http://www.w3.org/2000/svg"><path d="M6 6h12v12H6z"/></symbol><symbol viewBox="0 0 24 24" id="md-success" xmlns="http://www.w3.org/2000/svg"><path d="M12 2C6.48 2 2 6.48 2 12s4.48 10 10 10 10-4.48 10-10S17.52 2 12 2zm-2 15l-5-5 1.41-1.41L10 14.17l7.59-7.59L19 8l-9 9z"/></symbol><symbol viewBox="0 0 24 24" id="md-textsms" xmlns="http://www.w3.org/2000/svg"><path d="M20 2H4c-1.1 0-1.99.9-1.99 2L2 22l4-4h14c1.1 0 2-.9 2-2V4c0-1.1-.9-2-2-2zM9 11H7V9h2v2zm4 0h-2V9h2v2zm4 0h-2V9h2v2z"/></symbol><symbol viewBox="0 0 24 24" id="md-thumb-down" xmlns="http://www.w3.org/2000/svg"><path d="M15 3H6c-.83 0-1.54.5-1.84 1.22l-3.02 7.05c-.09.23-.14.47-.14.73v1.91l.01.01L1 14c0 1.1.9 2 2 2h6.31l-.95 4.57-.03.32c0 .41.17.79.44 1.06L9.83 23l6.59-6.59c.36-.36.58-.86.58-1.41V5c0-1.1-.9-2-2-2zm4 0v12h4V3h-4z"/></symbol><symbol viewBox="0 0 24 24" id="md-thumb-up" xmlns="http://www.w3.org/2000/svg"><path d="M1 21h4V9H1v12zm22-11c0-1.1-.9-2-2-2h-6.31l.95-4.57.03-.32c0-.41-.17-.79-.44-1.06L14.17 1 7.59 7.59C7.22 7.95 7 8.45 7 9v10c0 1.1.9 2 2 2h9c.83 0 1.54-.5 1.84-1.22l3.02-7.05c.09-.23.14-.47.14-.73v-1.91l-.01-.01L23 10z"/></symbol><symbol viewBox="0 0 24 24" id="md-time" xmlns="http://www.w3.org/2000/svg"><path d="M11.99 2C6.47 2 2 6.48 2 12s4.47 10 9.99 10C17.52 22 22 17.52 22 12S17.52 2 11.99 2zM12 20c-4.42 0-8-3.58-8-8s3.58-8 8-8 8 3.58 8 8-3.58 8-8 8zm.5-13H11v6l5.25 3.15.75-1.23-4.5-2.67z"/></symbol><symbol viewBox="0 0 24 24" id="md-touch" xmlns="http://www.w3.org/2000/svg"><path d="M9 11.24V7.5a2.5 2.5 0 0 1 5 0v3.74c1.21-.81 2-2.18 2-3.74C16 5.01 13.99 3 11.5 3S7 5.01 7 7.5c0 1.56.79 2.93 2 3.74zm9.84 4.63l-4.54-2.26c-.17-.07-.35-.11-.54-.11H13v-6c0-.83-.67-1.5-1.5-1.5S10 6.67 10 7.5v10.74l-3.43-.72c-.08-.01-.15-.03-.24-.03-.31 0-.59.13-.79.33l-.79.8 4.94 4.94c.27.27.65.44 1.06.44h6.79c.75 0 1.33-.55 1.44-1.28l.75-5.27c.01-.07.02-.14.02-.2 0-.62-.38-1.16-.91-1.38z"/></symbol><symbol viewBox="0 0 24 24" id="md-upload" xmlns="http://www.w3.org/2000/svg"><path d="M19.35 10.04A7.49 7.49 0 0 0 12 4C9.11 4 6.6 5.64 5.35 8.04A5.994 5.994 0 0 0 0 14c0 3.31 2.69 6 6 6h13c2.76 0 5-2.24 5-5 0-2.64-2.05-4.78-4.65-4.96zM14 13v4h-4v-4H7l5-5 5 5h-3z"/></symbol><symbol viewBox="0 0 24 24" id="md-warning" xmlns="http://www.w3.org/2000/svg"><path d="M1 21h22L12 2 1 21zm12-3h-2v-2h2v2zm0-4h-2v-4h2v4z"/></symbol><symbol viewBox="0 0 24 24" id="md-wifi" xmlns="http://www.w3.org/2000/svg"><path d="M12 11c-1.1 0-2 .9-2 2s.9 2 2 2 2-.9 2-2-.9-2-2-2zm6 2c0-3.31-2.69-6-6-6s-6 2.69-6 6c0 2.22 1.21 4.15 3 5.19l1-1.74c-1.19-.7-2-1.97-2-3.45 0-2.21 1.79-4 4-4s4 1.79 4 4c0 1.48-.81 2.75-2 3.45l1 1.74c1.79-1.04 3-2.97 3-5.19zM12 3C6.48 3 2 7.48 2 13c0 3.7 2.01 6.92 4.99 8.65l1-1.73C5.61 18.53 4 15.96 4 13c0-4.42 3.58-8 8-8s8 3.58 8 8c0 2.96-1.61 5.53-4 6.92l1 1.73c2.99-1.73 5-4.95 5-8.65 0-5.52-4.48-10-10-10z"/></symbol></svg>