<?xml version="1.0" encoding="utf-8"?><svg xmlns="http://www.w3.org/2000/svg" xmlns:xlink="http://www.w3.org/1999/xlink"><symbol viewBox="0 0 512 512" id="mbsy-facebook" xmlns="http://www.w3.org/2000/svg"><path d="M384 3v76h-45c-17 0-28 3-33 10-6 7-9 17-9 31v54h84l-11 85h-73v216h-87V259h-73v-85h73v-62c0-36 10-63 29-83 20-19 47-29 80-29 28 0 49 1 65 3z"/></symbol><symbol viewBox="0 0 512 512" id="mbsy-linkedin" xmlns="http://www.w3.org/2000/svg"><path d="M136 179v283H42V179zm6-88c0 14-4 26-14 35s-23 14-39 14-29-5-38-14c-10-9-14-21-14-35s4-26 14-35 23-14 39-14 28 5 38 14c9 9 14 21 14 35zm333 208v163h-94V310c0-20-3-35-11-47-8-11-20-17-36-17-12 0-22 4-30 10-9 7-15 15-19 25-2 5-3 13-3 23v158h-94c1-76 1-138 1-185v-85l-1-13h94v41c4-6 7-12 11-16 4-5 10-10 17-15 6-5 15-10 24-13 10-3 21-4 33-4 33 0 59 11 79 32 20 22 29 54 29 95z"/></symbol><symbol viewBox="0 0 512 512" id="mbsy-slack"><path d="M332 32c-8-24-34-37-58-30-23 8-37 34-29 58l118 363c8 22 32 35 56 28s39-33 31-57L332 32M149 91c-8-24-33-37-57-29s-37 33-29 57l117 363c9 22 33 35 56 28 24-7 39-32 31-56 0-1-118-363-118-363m331 241c24-8 37-33 30-57-8-24-34-37-58-30L89 363c-22 8-35 33-28 56 7 24 33 39 57 31l362-118M165 435l87-29c-8-23-18-54-28-86l-87 28 28 87m183-60c32-10 63-20 86-28-7-24-17-54-28-87l-86 28 28 87m73-226c24-7 37-33 29-57s-33-37-57-29L30 181c-22 8-35 32-28 55 7 24 32 39 56 31 1 0 363-118 363-118M106 252c23-8 54-18 86-28-10-33-20-64-28-87l-87 28 29 87m182-59c33-11 64-21 87-29-11-32-21-63-28-86l-87 28 28 87"/></symbol><symbol viewBox="0 0 512 512" id="mbsy-twitter" xmlns="http://www.w3.org/2000/svg"><path d="M481 117c-13 18-28 34-46 47v12c0 25-3 50-11 74-7 25-18 49-33 71-14 23-32 43-52 61-21 17-45 31-74 41-29 11-60 16-92 16-52 0-99-14-142-42 7 1 14 2 22 2 43 0 81-14 115-40-20 0-38-6-54-18s-27-27-33-46c7 1 13 2 18 2 8 0 16-1 24-4-21-4-39-15-53-31-14-17-21-37-21-59v-1c13 7 27 11 42 11-13-8-23-19-30-32-8-14-11-29-11-44 0-17 4-33 12-47 23 28 51 51 84 68s69 27 107 29c-2-8-3-15-3-22 0-25 9-47 27-65s40-27 66-27 49 10 67 29c21-4 40-11 59-22-7 22-21 39-41 51 18-2 35-7 53-14z"/></symbol><symbol viewBox="0 0 24 24" id="md-add" xmlns="http://www.w3.org/2000/svg"><path d="M19 13h-6v6h-2v-6H5v-2h6V5h2v6h6v2z"/></symbol><symbol viewBox="0 0 24 24" id="md-arrow-back" xmlns="http://www.w3.org/2000/svg"><path d="M20 11H7.83l5.59-5.59L12 4l-8 8 8 8 1.41-1.41L7.83 13H20v-2z"/></symbol><symbol viewBox="0 0 48 48" id="md-arrow-drop-down" xmlns="http://www.w3.org/2000/svg"><path d="M14 20l10 10 10-10z"/></symbol><symbol viewBox="0 0 48 48" id="md-arrow-drop-up" xmlns="http://www.w3.org/2000/svg"><path d="M14 28l10-10 10 10z"/></symbol><symbol viewBox="0 0 24 24" id="md-arrow-forward" xmlns="http://www.w3.org/2000/svg"><path d="M12 4l-1.41 1.41L16.17 11H4v2h12.17l-5.58 5.59L12 20l8-8z"/></symbol><symbol viewBox="0 0 24 24" id="md-assessment" xmlns="http://www.w3.org/2000/svg"><path d="M19 3H5c-1.1 0-2 .9-2 2v14c0 1.1.9 2 2 2h14c1.1 0 2-.9 2-2V5c0-1.1-.9-2-2-2zM9 17H7v-7h2v7zm4 0h-2V7h2v10zm4 0h-2v-4h2v4z"/></symbol><symbol viewBox="0 0 24 24" id="md-blank-link" xmlns="http://www.w3.org/2000/svg"><path d="M19 19H5V5h7V3H5a2 2 0 0 0-2 2v14a2 2 0 0 0 2 2h14c1.1 0 2-.9 2-2v-7h-2v7zM14 3v2h3.59l-9.83 9.83 1.41 1.41L19 6.41V10h2V3h-7z"/></symbol><symbol viewBox="0 0 24 24" id="md-chart" xmlns="http://www.w3.org/2000/svg"><path d="M3.5 18.49l6-6.01 4 4L22 6.92l-1.41-1.41-7.09 7.97-4-4L2 16.99z"/></symbol><symbol viewBox="0 0 24 24" id="md-check" xmlns="http://www.w3.org/2000/svg"><path d="M9 16.17L4.83 12l-1.42 1.41L9 19 21 7l-1.41-1.41z"/></symbol><symbol viewBox="0 0 24 24" id="md-check-circle" xmlns="http://www.w3.org/2000/svg"><path d="M12 2C6.48 2 2 6.48 2 12s4.48 10 10 10 10-4.48 10-10S17.52 2 12 2zm-2 15l-5-5 1.41-1.41L10 14.17l7.59-7.59L19 8l-9 9z"/></symbol><symbol viewBox="0 0 24 24" id="md-chevron-left" xmlns="http://www.w3.org/2000/svg"><path d="M15.41 7.41L14 6l-6 6 6 6 1.41-1.41L10.83 12z"/></symbol><symbol viewBox="0 0 24 24" id="md-chevron-right" xmlns="http://www.w3.org/2000/svg"><path d="M10 6L8.59 7.41 13.17 12l-4.58 4.59L10 18l6-6z"/></symbol><symbol viewBox="0 0 24 24" id="md-close" xmlns="http://www.w3.org/2000/svg"><path d="M19 6.41L17.59 5 12 10.59 6.41 5 5 6.41 10.59 12 5 17.59 6.41 19 12 13.41 17.59 19 19 17.59 13.41 12z"/></symbol><symbol viewBox="0 0 24 24" id="md-compare" xmlns="http://www.w3.org/2000/svg"><path d="M9.01 14H2v2h7.01v3L13 15l-3.99-4v3zm5.98-1v-3H22V8h-7.01V5L11 9l3.99 4z"/></symbol><symbol viewBox="0 0 24 24" id="md-dashboard" xmlns="http://www.w3.org/2000/svg"><path d="M3 13h8V3H3v10zm0 8h8v-6H3v6zm10 0h8V11h-8v10zm0-18v6h8V3h-8z"/></symbol><symbol viewBox="0 0 24 24" id="md-date" xmlns="http://www.w3.org/2000/svg"><path d="M9 11H7v2h2v-2zm4 0h-2v2h2v-2zm4 0h-2v2h2v-2zm2-7h-1V2h-2v2H8V2H6v2H5c-1.11 0-1.99.9-1.99 2L3 20a2 2 0 0 0 2 2h14c1.1 0 2-.9 2-2V6c0-1.1-.9-2-2-2zm0 16H5V9h14v11z"/></symbol><symbol viewBox="0 0 24 24" id="md-delete" xmlns="http://www.w3.org/2000/svg"><path d="M6 19c0 1.1.9 2 2 2h8c1.1 0 2-.9 2-2V7H6v12zM19 4h-3.5l-1-1h-5l-1 1H5v2h14V4z"/></symbol><symbol viewBox="0 0 24 24" id="md-download" xmlns="http://www.w3.org/2000/svg"><path d="M19.35 10.04A7.49 7.49 0 0 0 12 4C9.11 4 6.6 5.64 5.35 8.04A5.994 5.994 0 0 0 0 14c0 3.31 2.69 6 6 6h13c2.76 0 5-2.24 5-5 0-2.64-2.05-4.78-4.65-4.96zM17 13l-5 5-5-5h3V9h4v4h3z"/></symbol><symbol viewBox="0 0 24 24" id="md-edit" xmlns="http://www.w3.org/2000/svg"><path d="M3 17.25V21h3.75L17.81 9.94l-3.75-3.75L3 17.25zM20.71 7.04a.996.996 0 0 0 0-1.41l-2.34-2.34a.996.996 0 0 0-1.41 0l-1.83 1.83 3.75 3.75 1.83-1.83z"/></symbol><symbol viewBox="0 0 24 24" id="md-email" xmlns="http://www.w3.org/2000/svg"><path d="M20 4H4c-1.1 0-1.99.9-1.99 2L2 18c0 1.1.9 2 2 2h16c1.1 0 2-.9 2-2V6c0-1.1-.9-2-2-2zm0 4l-8 5-8-5V6l8 5 8-5v2z"/></symbol><symbol viewBox="0 0 24 24" id="md-favorite" xmlns="http://www.w3.org/2000/svg"><path d="M12 21.35l-1.45-1.32C5.4 15.36 2 12.28 2 8.5 2 5.42 4.42 3 7.5 3c1.74 0 3.41.81 4.5 2.09C13.09 3.81 14.76 3 16.5 3 19.58 3 22 5.42 22 8.5c0 3.78-3.4 6.86-8.55 11.54L12 21.35z"/></symbol><symbol viewBox="0 0 24 24" id="md-file" xmlns="http://www.w3.org/2000/svg"><path d="M6 2c-1.1 0-1.99.9-1.99 2L4 20c0 1.1.89 2 1.99 2H18c1.1 0 2-.9 2-2V8l-6-6H6zm7 7V3.5L18.5 9H13z"/></symbol><symbol viewBox="0 0 24 24" id="md-filter" xmlns="http://www.w3.org/2000/svg"><path d="M10 18h4v-2h-4v2zM3 6v2h18V6H3zm3 7h12v-2H6v2z"/></symbol><symbol viewBox="0 0 24 24" id="md-globe" xmlns="http://www.w3.org/2000/svg"><path d="M11.99 2C6.47 2 2 6.48 2 12s4.47 10 9.99 10C17.52 22 22 17.52 22 12S17.52 2 11.99 2zm6.93 6h-2.95a15.65 15.65 0 0 0-1.38-3.56A8.03 8.03 0 0 1 18.92 8zM12 4.04c.83 1.2 1.48 2.53 1.91 3.96h-3.82c.43-1.43 1.08-2.76 1.91-3.96zM4.26 14C4.1 13.36 4 12.69 4 12s.1-1.36.26-2h3.38c-.08.66-.14 1.32-.14 2 0 .68.06 1.34.14 2H4.26zm.82 2h2.95c.32 1.25.78 2.45 1.38 3.56A7.987 7.987 0 0 1 5.08 16zm2.95-8H5.08a7.987 7.987 0 0 1 4.33-3.56A15.65 15.65 0 0 0 8.03 8zM12 19.96c-.83-1.2-1.48-2.53-1.91-3.96h3.82c-.43 1.43-1.08 2.76-1.91 3.96zM14.34 14H9.66c-.09-.66-.16-1.32-.16-2 0-.68.07-1.35.16-2h4.68c.09.65.16 1.32.16 2 0 .68-.07 1.34-.16 2zm.25 5.56c.6-1.11 1.06-2.31 1.38-3.56h2.95a8.03 8.03 0 0 1-4.33 3.56zM16.36 14c.08-.66.14-1.32.14-2 0-.68-.06-1.34-.14-2h3.38c.16.64.26 1.31.26 2s-.1 1.36-.26 2h-3.38z"/></symbol><symbol viewBox="0 0 24 24" id="md-help" xmlns="http://www.w3.org/2000/svg"><path d="M11 18h2v-2h-2v2zm1-16C6.48 2 2 6.48 2 12s4.48 10 10 10 10-4.48 10-10S17.52 2 12 2zm0 18c-4.41 0-8-3.59-8-8s3.59-8 8-8 8 3.59 8 8-3.59 8-8 8zm0-14c-2.21 0-4 1.79-4 4h2c0-1.1.9-2 2-2s2 .9 2 2c0 2-3 1.75-3 5h2c0-2.25 3-2.5 3-5 0-2.21-1.79-4-4-4z"/></symbol><symbol viewBox="0 0 24 24" id="md-info" xmlns="http://www.w3.org/2000/svg"><path d="M12 2C6.48 2 2 6.48 2 12s4.48 10 10 10 10-4.48 10-10S17.52 2 12 2zm1 15h-2v-6h2v6zm0-8h-2V7h2v2z"/></symbol><symbol viewBox="0 0 24 24" id="md-info-outline" xmlns="http://www.w3.org/2000/svg"><path d="M11 17h2v-6h-2v6zm1-15C6.48 2 2 6.48 2 12s4.48 10 10 10 10-4.48 10-10S17.52 2 12 2zm0 18c-4.41 0-8-3.59-8-8s3.59-8 8-8 8 3.59 8 8-3.59 8-8 8zM11 9h2V7h-2v2z"/></symbol><symbol viewBox="0 0 24 24" id="md-insert-chart" xmlns="http://www.w3.org/2000/svg"><path d="M19 3H5c-1.1 0-2 .9-2 2v14c0 1.1.9 2 2 2h14c1.1 0 2-.9 2-2V5c0-1.1-.9-2-2-2zM9 17H7v-7h2v7zm4 0h-2V7h2v10zm4 0h-2v-4h2v4z"/></symbol><symbol viewBox="0 0 512 512" id="md-klout" xmlns="http://www.w3.org/2000/svg"><path d="M92 400H2l104-147-96-141h88l69 108h31v67h-31L92 400m0 0H2l104-147-96-141h88l69 108h31v67h-31L92 400m327 0l-75-113h-52v113h-72V112h72v108h52l70-108h87l-95 141 103 147h-90"/></symbol><symbol viewBox="0 0 24 24" id="md-layers" xmlns="http://www.w3.org/2000/svg"><path d="M11.99 18.54l-7.37-5.73L3 14.07l9 7 9-7-1.63-1.27-7.38 5.74zM12 16l7.36-5.73L21 9l-9-7-9 7 1.63 1.27L12 16z"/></symbol><symbol viewBox="0 0 24 24" id="md-lightbulb" xmlns="http://www.w3.org/2000/svg"><path d="M9 21c0 .55.45 1 1 1h4c.55 0 1-.45 1-1v-1H9v1zm3-19C8.14 2 5 5.14 5 9c0 2.38 1.19 4.47 3 5.74V17c0 .55.45 1 1 1h6c.55 0 1-.45 1-1v-2.26c1.81-1.27 3-3.36 3-5.74 0-3.86-3.14-7-7-7zm2.85 11.1l-.85.6V16h-4v-2.3l-.85-.6A4.997 4.997 0 0 1 7 9c0-2.76 2.24-5 5-5s5 2.24 5 5c0 1.63-.8 3.16-2.15 4.1z"/></symbol><symbol viewBox="0 0 24 24" id="md-link" xmlns="http://www.w3.org/2000/svg"><path d="M3.9 12c0-1.71 1.39-3.1 3.1-3.1h4V7H7c-2.76 0-5 2.24-5 5s2.24 5 5 5h4v-1.9H7c-1.71 0-3.1-1.39-3.1-3.1zM8 13h8v-2H8v2zm9-6h-4v1.9h4c1.71 0 3.1 1.39 3.1 3.1s-1.39 3.1-3.1 3.1h-4V17h4c2.76 0 5-2.24 5-5s-2.24-5-5-5z"/></symbol><symbol viewBox="0 0 24 24" id="md-local-activity" xmlns="http://www.w3.org/2000/svg"><path d="M20 12c0-1.1.9-2 2-2V6c0-1.1-.9-2-2-2H4c-1.1 0-1.99.9-1.99 2v4c1.1 0 1.99.9 1.99 2s-.89 2-2 2v4c0 1.1.9 2 2 2h16c1.1 0 2-.9 2-2v-4c-1.1 0-2-.9-2-2zm-4.42 4.8L12 14.5l-3.58 2.3 1.08-4.12-3.29-2.69 4.24-.25L12 5.8l1.54 3.95 4.24.25-3.29 2.69 1.09 4.11z"/></symbol><symbol viewBox="0 0 24 24" id="md-lock-open" xmlns="http://www.w3.org/2000/svg"><path d="M12 17c1.1 0 2-.9 2-2s-.9-2-2-2-2 .9-2 2 .9 2 2 2zm6-9h-1V6c0-2.76-2.24-5-5-5S7 3.24 7 6h1.9c0-1.71 1.39-3.1 3.1-3.1 1.71 0 3.1 1.39 3.1 3.1v2H6c-1.1 0-2 .9-2 2v10c0 1.1.9 2 2 2h12c1.1 0 2-.9 2-2V10c0-1.1-.9-2-2-2zm0 12H6V10h12v10z"/></symbol><symbol viewBox="0 0 24 24" id="md-minus" xmlns="http://www.w3.org/2000/svg"><path d="M19 13H5v-2h14v2z"/></symbol><symbol viewBox="0 0 24 24" id="md-money" xmlns="http://www.w3.org/2000/svg"><path d="M11.8 10.9c-2.27-.59-3-1.2-3-2.15 0-1.09 1.01-1.85 2.7-1.85 1.78 0 2.44.85 2.5 2.1h2.21c-.07-1.72-1.12-3.3-3.21-3.81V3h-3v2.16c-1.94.42-3.5 1.68-3.5 3.61 0 2.31 1.91 3.46 4.7 4.13 2.5.6 3 1.48 3 2.41 0 .69-.49 1.79-2.7 1.79-2.06 0-2.87-.92-2.98-2.1h-2.2c.12 2.19 1.76 3.42 3.68 3.83V21h3v-2.15c1.95-.37 3.5-1.5 3.5-3.55 0-2.84-2.43-3.81-4.7-4.4z"/></symbol><symbol viewBox="0 0 24 24" id="md-notifications" xmlns="http://www.w3.org/2000/svg"><path d="M12 22c1.1 0 2-.9 2-2h-4c0 1.1.9 2 2 2zm6-6v-5c0-3.07-1.63-5.64-4.5-6.32V4c0-.83-.67-1.5-1.5-1.5s-1.5.67-1.5 1.5v.68C7.64 5.36 6 7.92 6 11v5l-2 2v1h16v-1l-2-2zm-2 1H8v-6c0-2.48 1.51-4.5 4-4.5s4 2.02 4 4.5v6z"/></symbol><symbol viewBox="0 0 24 24" id="md-pause" xmlns="http://www.w3.org/2000/svg"><path d="M6 19h4V5H6v14zm8-14v14h4V5h-4z"/></symbol><symbol viewBox="0 0 24 24" id="md-person" xmlns="http://www.w3.org/2000/svg"><path d="M12 12c2.21 0 4-1.79 4-4s-1.79-4-4-4-4 1.79-4 4 1.79 4 4 4zm0 2c-2.67 0-8 1.34-8 4v2h16v-2c0-2.66-5.33-4-8-4z"/></symbol><symbol viewBox="0 0 24 24" id="md-pie-chart-outlined" xmlns="http://www.w3.org/2000/svg"><path d="M12 2C6.5 2 2 6.5 2 12s4.5 10 10 10 10-4.5 10-10S17.5 2 12 2zm1 2.07c3.61.45 6.48 3.33 6.93 6.93H13V4.07zM4 12c0-4.06 3.07-7.44 7-7.93v15.87c-3.93-.5-7-3.88-7-7.94zm9 7.93V13h6.93A8.002 8.002 0 0 1 13 19.93z"/></symbol><symbol viewBox="0 0 24 24" id="md-power" xmlns="http://www.w3.org/2000/svg"><path d="M13 3h-2v10h2V3zm4.83 2.17l-1.42 1.42A6.92 6.92 0 0 1 19 12c0 3.87-3.13 7-7 7A6.995 6.995 0 0 1 7.58 6.58L6.17 5.17A8.932 8.932 0 0 0 3 12a9 9 0 0 0 18 0c0-2.74-1.23-5.18-3.17-6.83z"/></symbol><symbol viewBox="0 0 24 24" id="md-receipt" xmlns="http://www.w3.org/2000/svg"><path d="M18 17H6v-2h12v2zm0-4H6v-2h12v2zm0-4H6V7h12v2zM3 22l1.5-1.5L6 22l1.5-1.5L9 22l1.5-1.5L12 22l1.5-1.5L15 22l1.5-1.5L18 22l1.5-1.5L21 22V2l-1.5 1.5L18 2l-1.5 1.5L15 2l-1.5 1.5L12 2l-1.5 1.5L9 2 7.5 3.5 6 2 4.5 3.5 3 2v20z"/></symbol><symbol viewBox="0 0 24 24" id="md-record" xmlns="http://www.w3.org/2000/svg"><circle fill="#010101" cx="12" cy="12" r="8"/></symbol><symbol viewBox="0 0 24 24" id="md-remove" xmlns="http://www.w3.org/2000/svg"><path d="M14.59 8L12 10.59 9.41 8 8 9.41 10.59 12 8 14.59 9.41 16 12 13.41 14.59 16 16 14.59 13.41 12 16 9.41 14.59 8zM12 2C6.47 2 2 6.47 2 12s4.47 10 10 10 10-4.47 10-10S17.53 2 12 2zm0 18c-4.41 0-8-3.59-8-8s3.59-8 8-8 8 3.59 8 8-3.59 8-8 8z"/></symbol><symbol viewBox="0 0 24 24" id="md-search" xmlns="http://www.w3.org/2000/svg"><path d="M15.5 14h-.79l-.28-.27A6.471 6.471 0 0 0 16 9.5 6.5 6.5 0 1 0 9.5 16c1.61 0 3.09-.59 4.23-1.57l.27.28v.79l5 4.99L20.49 19l-4.99-5zm-6 0C7.01 14 5 11.99 5 9.5S7.01 5 9.5 5 14 7.01 14 9.5 11.99 14 9.5 14z"/></symbol><symbol viewBox="0 0 24 24" id="md-send" xmlns="http://www.w3.org/2000/svg"><path d="M2.01 21L23 12 2.01 3 2 10l15 2-15 2z"/></symbol><symbol viewBox="0 0 24 24" id="md-settings" xmlns="http://www.w3.org/2000/svg"><path d="M19.43 12.98c.04-.32.07-.64.07-.98s-.03-.66-.07-.98l2.11-1.65c.19-.15.24-.42.12-.64l-2-3.46c-.12-.22-.39-.3-.61-.22l-2.49 1c-.52-.4-1.08-.73-1.69-.98l-.38-2.65A.488.488 0 0 0 14 2h-4c-.25 0-.46.18-.49.42l-.38 2.65c-.61.25-1.17.59-1.69.98l-2.49-1c-.23-.09-.49 0-.61.22l-2 3.46c-.13.22-.07.49.12.64l2.11 1.65c-.04.32-.07.65-.07.98s.03.66.07.98l-2.11 1.65c-.19.15-.24.42-.12.64l2 3.46c.12.22.39.3.61.22l2.49-1c.52.4 1.08.73 1.69.98l.38 2.65c.03.24.24.42.49.42h4c.25 0 .46-.18.49-.42l.38-2.65c.61-.25 1.17-.59 1.69-.98l2.49 1c.23.09.49 0 .61-.22l2-3.46c.12-.22.07-.49-.12-.64l-2.11-1.65zM12 15.5c-1.93 0-3.5-1.57-3.5-3.5s1.57-3.5 3.5-3.5 3.5 1.57 3.5 3.5-1.57 3.5-3.5 3.5z"/></symbol><symbol viewBox="0 0 24 24" id="md-stars" xmlns="http://www.w3.org/2000/svg"><path d="M11.99 2C6.47 2 2 6.48 2 12s4.47 10 9.99 10C17.52 22 22 17.52 22 12S17.52 2 11.99 2zm4.24 16L12 15.45 7.77 18l1.12-4.81-3.73-3.23 4.92-.42L12 5l1.92 4.53 4.92.42-3.73 3.23L16.23 18z"/></symbol><symbol viewBox="0 0 24 24" id="md-stop" xmlns="http://www.w3.org/2000/svg"><path d="M6 6h12v12H6z"/></symbol><symbol viewBox="0 0 24 24" id="md-textsms" xmlns="http://www.w3.org/2000/svg"><path d="M20 2H4c-1.1 0-1.99.9-1.99 2L2 22l4-4h14c1.1 0 2-.9 2-2V4c0-1.1-.9-2-2-2zM9 11H7V9h2v2zm4 0h-2V9h2v2zm4 0h-2V9h2v2z"/></symbol><symbol viewBox="0 0 24 24" id="md-time" xmlns="http://www.w3.org/2000/svg"><path d="M11.99 2C6.47 2 2 6.48 2 12s4.47 10 9.99 10C17.52 22 22 17.52 22 12S17.52 2 11.99 2zM12 20c-4.42 0-8-3.58-8-8s3.58-8 8-8 8 3.58 8 8-3.58 8-8 8zm.5-13H11v6l5.25 3.15.75-1.23-4.5-2.67z"/></symbol><symbol viewBox="0 0 24 24" id="md-touch" xmlns="http://www.w3.org/2000/svg"><path d="M9 11.24V7.5a2.5 2.5 0 0 1 5 0v3.74c1.21-.81 2-2.18 2-3.74C16 5.01 13.99 3 11.5 3S7 5.01 7 7.5c0 1.56.79 2.93 2 3.74zm9.84 4.63l-4.54-2.26c-.17-.07-.35-.11-.54-.11H13v-6c0-.83-.67-1.5-1.5-1.5S10 6.67 10 7.5v10.74l-3.43-.72c-.08-.01-.15-.03-.24-.03-.31 0-.59.13-.79.33l-.79.8 4.94 4.94c.27.27.65.44 1.06.44h6.79c.75 0 1.33-.55 1.44-1.28l.75-5.27c.01-.07.02-.14.02-.2 0-.62-.38-1.16-.91-1.38z"/></symbol><symbol viewBox="0 0 24 24" id="md-upload" xmlns="http://www.w3.org/2000/svg"><path d="M19.35 10.04A7.49 7.49 0 0 0 12 4C9.11 4 6.6 5.64 5.35 8.04A5.994 5.994 0 0 0 0 14c0 3.31 2.69 6 6 6h13c2.76 0 5-2.24 5-5 0-2.64-2.05-4.78-4.65-4.96zM14 13v4h-4v-4H7l5-5 5 5h-3z"/></symbol><symbol viewBox="0 0 24 24" id="md-warning" xmlns="http://www.w3.org/2000/svg"><path d="M1 21h22L12 2 1 21zm12-3h-2v-2h2v2zm0-4h-2v-4h2v4z"/></symbol></svg>